<?xml version="1.0" encoding="UTF-8" standalone="no"?>
<!DOCTYPE svg PUBLIC "-//W3C//DTD SVG 1.1//EN" "http://www.w3.org/Graphics/SVG/1.1/DTD/svg11.dtd">
<svg width="100%" height="100%" viewBox="0 0 2481 3508" version="1.1" xmlns="http://www.w3.org/2000/svg" xmlns:xlink="http://www.w3.org/1999/xlink" xml:space="preserve" xmlns:serif="http://www.serif.com/" style="fill-rule:evenodd;clip-rule:evenodd;stroke-linejoin:round;stroke-miterlimit:2;">
    <g transform="matrix(1,0,0,1,-47.6674,-6.36039)">
        <g>
            <g transform="matrix(0.462623,-0.462623,0.732063,0.732063,76.8696,727.711)">
                <rect x="594.693" y="1297.01" width="631.849" height="102.675" style="fill:rgb(0,6,114);"/>
            </g>
            <g transform="matrix(0.608404,-0.608404,0.732063,0.732063,-9.95237,998.503)">
                <rect x="594.693" y="1297.01" width="631.849" height="102.675" style="fill:rgb(0,6,114);"/>
            </g>
            <g transform="matrix(0.755203,-0.755203,0.732063,0.732063,-98.1395,1270.43)">
                <rect x="594.693" y="1297.01" width="631.849" height="102.675" style="fill:rgb(0,6,114);"/>
            </g>
            <g transform="matrix(0.462623,-0.462623,0.732063,0.732063,352.591,1003.43)">
                <rect x="594.693" y="1297.01" width="631.849" height="102.675" style="fill:rgb(0,6,114);"/>
            </g>
            <g transform="matrix(-0.355097,-0.355097,0.732063,-0.732063,970.991,3155.43)">
                <rect x="594.693" y="1297.01" width="631.849" height="102.675" style="fill:rgb(0,6,114);"/>
            </g>
            <g transform="matrix(-0.355097,-0.355097,0.732063,-0.732063,879.035,3247.38)">
                <rect x="594.693" y="1297.01" width="631.849" height="102.675" style="fill:rgb(0,6,114);"/>
            </g>
            <g transform="matrix(-0.355097,-0.355097,0.732063,-0.732063,787.347,3339.43)">
                <rect x="594.693" y="1297.01" width="631.849" height="102.675" style="fill:rgb(0,6,114);"/>
            </g>
            <g transform="matrix(-0.462623,-0.462623,-0.732063,0.732063,2498.78,727.724)">
                <rect x="594.693" y="1297.01" width="631.849" height="102.675" style="fill:rgb(0,6,114);"/>
            </g>
            <g transform="matrix(-0.608404,-0.608404,-0.732063,0.732063,2585.6,998.516)">
                <rect x="594.693" y="1297.01" width="631.849" height="102.675" style="fill:rgb(0,6,114);"/>
            </g>
            <g transform="matrix(-0.755203,-0.755203,-0.732063,0.732063,2673.79,1270.44)">
                <rect x="594.693" y="1297.01" width="631.849" height="102.675" style="fill:rgb(0,6,114);"/>
            </g>
            <g transform="matrix(-0.462623,-0.462623,-0.732063,0.732063,2223.06,1003.45)">
                <rect x="594.693" y="1297.01" width="631.849" height="102.675" style="fill:rgb(0,6,114);"/>
            </g>
            <g transform="matrix(0.355097,-0.355097,-0.732063,-0.732063,1604.66,3155.44)">
                <rect x="594.693" y="1297.01" width="631.849" height="102.675" style="fill:rgb(0,6,114);"/>
            </g>
            <g transform="matrix(0.355097,-0.355097,-0.732063,-0.732063,1696.61,3247.4)">
                <rect x="594.693" y="1297.01" width="631.849" height="102.675" style="fill:rgb(0,6,114);"/>
            </g>
            <g transform="matrix(0.355097,-0.355097,-0.732063,-0.732063,1788.3,3339.44)">
                <rect x="594.693" y="1297.01" width="631.849" height="102.675" style="fill:rgb(0,6,114);"/>
            </g>
        </g>
    </g>
    <g transform="matrix(0.977776,0,0,0.950363,1.51017,215.137)">
        <ellipse cx="1266.8" cy="1040.5" rx="102.676" ry="105.637" style="fill:rgb(0,6,114);"/>
    </g>
    <g transform="matrix(1,0,0,1,-196.776,2.65646)">
        <g transform="matrix(291.971,0,0,291.971,2206.16,2452.66)">
        </g>
        <text x="677.694px" y="2452.66px" style="font-family:'Modern-Regular', 'Modern No. 20';font-size:291.971px;fill:rgb(0,6,114);">BLÅVINGE</text>
    </g>
</svg>
