0
SECTION
2
HEADER
9
$INSUNITS
70
4
0
ENDSEC
0
SECTION
2
TABLES
0
TABLE
2
LTYPE
0
LTYPE
72
65
70
64
2
CONTINUOUS
3
______
73
0
40
0
0
ENDTAB
0
TABLE
2
LAYER
0
ENDTAB
0
ENDSEC
0
SECTION
2
ENTITIES
0
LINE
8
0
10
46.5816133
20
-133.3345163
11
61.0816101
21
-79.2197917
0
LINE
8
0
10
63.2668367
20
-77.0820986
11
88.9144284
21
-70.8108991
0
LINE
8
0
10
89.4786702
20
-70.7287174
11
109.1778654
21
-69.7536672
0
LINE
8
0
10
110.352235
20
-69.9309211
11
130.7733979
21
-77.3636166
0
LINE
8
0
10
131.5746837
20
-77.8034497
11
146.7700534
21
-89.4740442
0
LINE
8
0
10
147.2818624
20
-89.7909748
11
163.5574135
21
-97.7322586
0
LINE
8
0
10
164.8729508
20
-98.0360832
11
188.2496462
21
-98.0360832
0
LINE
8
0
10
189.5651835
20
-97.7322586
11
205.8407346
21
-89.7909748
0
LINE
8
0
10
206.3525436
20
-89.4740442
11
221.5479133
21
-77.8034497
0
LINE
8
0
10
222.3491991
20
-77.3636166
11
242.770362
21
-69.9309211
0
LINE
8
0
10
243.9447316
20
-69.7536672
11
263.6439268
21
-70.7287174
0
LINE
8
0
10
264.2081686
20
-70.8108991
11
289.8557603
21
-77.0820986
0
LINE
8
0
10
292.0409869
20
-79.2197917
11
306.5409837
21
-133.3345163
0
LINE
8
0
10
304.4196632
20
-137.0087509
11
286.1079302
21
-141.9153649
0
LINE
8
0
10
284.4861616
20
-141.8960329
11
264.0407382
21
-135.8918363
0
LINE
8
0
10
262.5458961
20
-135.8414407
11
250.2987164
21
-138.557504
0
LINE
8
0
10
247.9915334
20
-140.9785606
11
244.5351994
21
-161.1040121
0
LINE
8
0
10
242.5881599
20
-163.4212158
11
226.040541
21
-169.3354709
0
LINE
8
0
10
224.8207806
20
-170.1530673
11
210.5779904
21
-185.9712883
0
LINE
8
0
10
209.8923726
20
-187.269829
11
206.0390749
21
-203.115981
0
LINE
8
0
10
202.3982568
20
-205.3180171
11
183.5607649
21
-200.6213029
0
LINE
8
0
10
182.8349992
20
-200.5321901
11
170.2875978
21
-200.5321901
0
LINE
8
0
10
169.5618321
20
-200.6213029
11
150.7243402
21
-205.3180171
0
LINE
8
0
10
147.0835221
20
-203.115981
11
143.2302244
21
-187.269829
0
LINE
8
0
10
142.5446066
20
-185.9712883
11
128.3018164
21
-170.1530673
0
LINE
8
0
10
127.082056
20
-169.3354709
11
110.5344371
21
-163.4212158
0
LINE
8
0
10
108.5873976
20
-161.1040121
11
105.1310636
21
-140.9785606
0
LINE
8
0
10
102.8238806
20
-138.557504
11
90.5767009
21
-135.8414407
0
LINE
8
0
10
89.0818588
20
-135.8918363
11
68.6364354
21
-141.8960329
0
LINE
8
0
10
67.0146668
20
-141.9153649
11
48.7029338
21
-137.0087509
0
ARC
8
0
10
63.9793877
20
-79.9962487
40
3
50
103.7400376
51
165.0000021
0
ARC
8
0
10
89.6269794
20
-73.7250492
40
3
50
92.833652
51
103.7400376
0
ARC
8
0
10
109.3261746
20
-72.749999
40
3
50
70.0000019
51
92.833652
0
ARC
8
0
10
129.7473375
20
-80.1826945
40
3
50
52.4744318
51
70.0000019
0
ARC
8
0
10
148.5973996
20
-87.0947994
40
3
50
232.4744318
51
243.9909942
0
ARC
8
0
10
164.8729508
20
-95.0360832
40
3
50
243.9909942
51
270
0
ARC
8
0
10
188.2496462
20
-95.0360832
40
3
50
270
51
296.0090058
0
ARC
8
0
10
204.5251974
20
-87.0947994
40
3
50
296.0090058
51
307.5255682
0
ARC
8
0
10
223.3752595
20
-80.1826945
40
3
50
109.9999981
51
127.5255682
0
ARC
8
0
10
243.7964224
20
-72.749999
40
3
50
87.166348
51
109.9999981
0
ARC
8
0
10
263.4956176
20
-73.7250492
40
3
50
76.2599624
51
87.166348
0
ARC
8
0
10
289.1432093
20
-79.9962487
40
3
50
14.9999979
51
76.2599624
0
ARC
8
0
10
303.6432062
20
-134.1109733
40
3
50
284.9999979
51
14.9999979
0
ARC
8
0
10
285.3314731
20
-139.0175874
40
3
50
253.6340973
51
284.9999979
0
ARC
8
0
10
263.1954267
20
-138.7702818
40
3
50
73.6340973
51
102.504142
0
ARC
8
0
10
250.948247
20
-141.4863451
40
3
50
102.504142
51
170.2551163
0
ARC
8
0
10
241.5784859
20
-160.5962276
40
3
50
289.6673077
51
350.2551163
0
ARC
8
0
10
227.0502151
20
-172.1604591
40
3
50
109.6673077
51
137.9999993
0
ARC
8
0
10
212.8074249
20
-187.9786801
40
3
50
137.9999993
51
166.3326953
0
ARC
8
0
10
203.1240225
20
-202.4071299
40
3
50
255.9999994
51
346.3326953
0
ARC
8
0
10
182.8349992
20
-203.5321901
40
3
50
75.9999994
51
90
0
ARC
8
0
10
170.2875978
20
-203.5321901
40
3
50
90
51
104.0000006
0
ARC
8
0
10
149.9985745
20
-202.4071299
40
3
50
193.6673047
51
284.0000006
0
ARC
8
0
10
140.3151721
20
-187.9786801
40
3
50
13.6673047
51
42.0000007
0
ARC
8
0
10
126.0723819
20
-172.1604591
40
3
50
42.0000007
51
70.3326923
0
ARC
8
0
10
111.5441111
20
-160.5962276
40
3
50
189.7448837
51
250.3326923
0
ARC
8
0
10
102.17435
20
-141.4863451
40
3
50
9.7448837
51
77.495858
0
ARC
8
0
10
89.9271703
20
-138.7702818
40
3
50
77.495858
51
106.3659027
0
ARC
8
0
10
67.7911239
20
-139.0175874
40
3
50
255.0000021
51
286.3659027
0
ARC
8
0
10
49.4793908
20
-134.1109733
40
3
50
165.0000021
51
255.0000021
0
ENDSEC
0
EOF