0
SECTION
2
HEADER
9
$INSUNITS
70
4
0
ENDSEC
0
SECTION
2
TABLES
0
TABLE
2
LTYPE
0
LTYPE
72
65
70
64
2
CONTINUOUS
3
______
73
0
40
0
0
ENDTAB
0
TABLE
2
LAYER
0
ENDTAB
0
ENDSEC
0
SECTION
2
ENTITIES
0
LINE
8
0
10
48.4383576
20
-134.7120141
11
66.3079854
21
-139.5001665
0
LINE
8
0
10
66.3079854
20
-139.5001665
11
71.0961378
21
-121.6305387
0
LINE
8
0
10
71.0961378
20
-121.6305387
11
53.22651
21
-116.8423863
0
LINE
8
0
10
53.22651
20
-116.8423863
11
48.4383576
21
-134.7120141
0
LINE
8
0
10
53.3559195
20
-116.3594234
11
71.2255473
21
-121.1475758
0
LINE
8
0
10
71.2255473
20
-121.1475758
11
76.0136997
21
-103.277948
0
LINE
8
0
10
76.0136997
20
-103.277948
11
58.1440719
21
-98.4897956
0
LINE
8
0
10
58.1440719
20
-98.4897956
11
53.3559195
21
-116.3594234
0
LINE
8
0
10
58.2734814
20
-98.0068327
11
76.1431092
21
-102.7949851
0
LINE
8
0
10
76.1431092
20
-102.7949851
11
80.9312616
21
-84.9253573
0
LINE
8
0
10
80.9312616
20
-84.9253573
11
63.0616338
21
-80.1372049
0
LINE
8
0
10
63.0616338
20
-80.1372049
11
58.2734814
21
-98.0068327
0
LINE
8
0
10
71.1534844
20
-126.5911912
11
88.5377979
21
-132.9185639
0
LINE
8
0
10
88.5377979
20
-132.9185639
11
94.8651706
21
-115.5342504
0
LINE
8
0
10
94.8651706
20
-115.5342504
11
77.4808571
21
-109.2068777
0
LINE
8
0
10
77.4808571
20
-109.2068777
11
71.1534844
21
-126.5911912
0
LINE
8
0
10
77.6518671
20
-108.7370314
11
95.0361806
21
-115.0644041
0
LINE
8
0
10
95.0361806
20
-115.0644041
11
101.3635533
21
-97.6800906
0
LINE
8
0
10
101.3635533
20
-97.6800906
11
83.9792398
21
-91.3527179
0
LINE
8
0
10
83.9792398
20
-91.3527179
11
77.6518671
21
-108.7370314
0
LINE
8
0
10
84.1502498
20
-90.8828716
11
101.5345633
21
-97.2102443
0
LINE
8
0
10
101.5345633
20
-97.2102443
11
107.861936
21
-79.8259308
0
LINE
8
0
10
107.861936
20
-79.8259308
11
90.4776225
21
-73.4985581
0
LINE
8
0
10
90.4776225
20
-73.4985581
11
84.1502498
21
-90.8828716
0
LINE
8
0
10
91.7438053
20
-125.5720329
11
109.1281188
21
-131.8994056
0
LINE
8
0
10
109.1281188
20
-131.8994056
11
115.4554915
21
-114.5150921
0
LINE
8
0
10
115.4554915
20
-114.5150921
11
98.071178
21
-108.1877194
0
LINE
8
0
10
98.071178
20
-108.1877194
11
91.7438053
21
-125.5720329
0
LINE
8
0
10
98.242188
20
-107.7178732
11
115.6265015
21
-114.0452459
0
LINE
8
0
10
115.6265015
20
-114.0452459
11
121.9538742
21
-96.6609324
0
LINE
8
0
10
121.9538742
20
-96.6609324
11
104.5695607
21
-90.3335597
0
LINE
8
0
10
104.5695607
20
-90.3335597
11
98.242188
21
-107.7178732
0
LINE
8
0
10
104.7405708
20
-89.8637134
11
122.1248843
21
-96.1910861
0
LINE
8
0
10
122.1248843
20
-96.1910861
11
128.452257
21
-78.8067726
0
LINE
8
0
10
128.452257
20
-78.8067726
11
111.0679435
21
-72.4793999
0
LINE
8
0
10
111.0679435
20
-72.4793999
11
104.7405708
21
-89.8637134
0
LINE
8
0
10
107.5458443
20
-137.7085714
11
124.9301578
21
-144.0359441
0
LINE
8
0
10
124.9301578
20
-144.0359441
11
131.2575305
21
-126.6516306
0
LINE
8
0
10
131.2575305
20
-126.6516306
11
113.873217
21
-120.3242579
0
LINE
8
0
10
113.873217
20
-120.3242579
11
107.5458443
21
-137.7085714
0
LINE
8
0
10
114.044227
20
-119.8544116
11
131.4285405
21
-126.1817843
0
LINE
8
0
10
131.4285405
20
-126.1817843
11
137.7559132
21
-108.7974708
0
LINE
8
0
10
137.7559132
20
-108.7974708
11
120.3715997
21
-102.4700981
0
LINE
8
0
10
120.3715997
20
-102.4700981
11
114.044227
21
-119.8544116
0
LINE
8
0
10
120.5426097
20
-102.0002518
11
137.9269232
21
-108.3276245
0
LINE
8
0
10
137.9269232
20
-108.3276245
11
144.2542959
21
-90.943311
0
LINE
8
0
10
144.2542959
20
-90.943311
11
126.8699824
21
-84.6159383
0
LINE
8
0
10
126.8699824
20
-84.6159383
11
120.5426097
21
-102.0002518
0
LINE
8
0
10
124.7159638
20
-146.0863394
11
142.1002773
21
-152.4137121
0
LINE
8
0
10
142.1002773
20
-152.4137121
11
148.42765
21
-135.0293986
0
LINE
8
0
10
148.42765
20
-135.0293986
11
131.0433365
21
-128.7020259
0
LINE
8
0
10
131.0433365
20
-128.7020259
11
124.7159638
21
-146.0863394
0
LINE
8
0
10
131.2143465
20
-128.2321796
11
148.59866
21
-134.5595523
0
LINE
8
0
10
148.59866
20
-134.5595523
11
154.9260327
21
-117.1752388
0
LINE
8
0
10
154.9260327
20
-117.1752388
11
137.5417192
21
-110.8478661
0
LINE
8
0
10
137.5417192
20
-110.8478661
11
131.2143465
21
-128.2321796
0
LINE
8
0
10
137.7127292
20
-110.3780198
11
155.0970427
21
-116.7053925
0
LINE
8
0
10
155.0970427
20
-116.7053925
11
161.4244154
21
-99.321079
0
LINE
8
0
10
161.4244154
20
-99.321079
11
144.0401019
21
-92.9937063
0
LINE
8
0
10
144.0401019
20
-92.9937063
11
137.7127292
21
-110.3780198
0
LINE
8
0
10
111.6397327
20
-161.5463582
11
129.0240462
21
-167.8737309
0
LINE
8
0
10
129.0240462
20
-167.8737309
11
135.3514189
21
-150.4894174
0
LINE
8
0
10
135.3514189
20
-150.4894174
11
117.9671054
21
-144.1620447
0
LINE
8
0
10
117.9671054
20
-144.1620447
11
111.6397327
21
-161.5463582
0
LINE
8
0
10
130.8315148
20
-169.7494574
11
143.210431
21
-183.4976366
0
LINE
8
0
10
143.210431
20
-183.4976366
11
156.9586102
21
-171.1187204
0
LINE
8
0
10
156.9586102
20
-171.1187204
11
144.579694
21
-157.3705412
0
LINE
8
0
10
144.579694
20
-157.3705412
11
130.8315148
21
-169.7494574
0
LINE
8
0
10
144.8869501
20
-185.4912705
11
149.3625052
21
-203.4417414
0
LINE
8
0
10
149.3625052
20
-203.4417414
11
167.3129761
21
-198.9661863
0
LINE
8
0
10
167.3129761
20
-198.9661863
11
162.837421
21
-181.0157154
0
LINE
8
0
10
162.837421
20
-181.0157154
11
144.8869501
21
-185.4912705
0
LINE
8
0
10
286.8146116
20
-139.5001665
11
304.6842394
21
-134.7120141
0
LINE
8
0
10
304.6842394
20
-134.7120141
11
299.896087
21
-116.8423863
0
LINE
8
0
10
299.896087
20
-116.8423863
11
282.0264592
21
-121.6305387
0
LINE
8
0
10
282.0264592
20
-121.6305387
11
286.8146116
21
-139.5001665
0
LINE
8
0
10
281.8970497
20
-121.1475758
11
299.7666775
21
-116.3594234
0
LINE
8
0
10
299.7666775
20
-116.3594234
11
294.9785251
21
-98.4897956
0
LINE
8
0
10
294.9785251
20
-98.4897956
11
277.1088973
21
-103.277948
0
LINE
8
0
10
277.1088973
20
-103.277948
11
281.8970497
21
-121.1475758
0
LINE
8
0
10
276.9794878
20
-102.7949851
11
294.8491156
21
-98.0068327
0
LINE
8
0
10
294.8491156
20
-98.0068327
11
290.0609632
21
-80.1372049
0
LINE
8
0
10
290.0609632
20
-80.1372049
11
272.1913354
21
-84.9253573
0
LINE
8
0
10
272.1913354
20
-84.9253573
11
276.9794878
21
-102.7949851
0
LINE
8
0
10
264.5847991
20
-132.9185639
11
281.9691126
21
-126.5911912
0
LINE
8
0
10
281.9691126
20
-126.5911912
11
275.6417399
21
-109.2068777
0
LINE
8
0
10
275.6417399
20
-109.2068777
11
258.2574264
21
-115.5342504
0
LINE
8
0
10
258.2574264
20
-115.5342504
11
264.5847991
21
-132.9185639
0
LINE
8
0
10
258.0864164
20
-115.0644041
11
275.4707299
21
-108.7370314
0
LINE
8
0
10
275.4707299
20
-108.7370314
11
269.1433572
21
-91.3527179
0
LINE
8
0
10
269.1433572
20
-91.3527179
11
251.7590437
21
-97.6800906
0
LINE
8
0
10
251.7590437
20
-97.6800906
11
258.0864164
21
-115.0644041
0
LINE
8
0
10
251.5880337
20
-97.2102443
11
268.9723472
21
-90.8828716
0
LINE
8
0
10
268.9723472
20
-90.8828716
11
262.6449745
21
-73.4985581
0
LINE
8
0
10
262.6449745
20
-73.4985581
11
245.260661
21
-79.8259308
0
LINE
8
0
10
245.260661
20
-79.8259308
11
251.5880337
21
-97.2102443
0
LINE
8
0
10
243.9944782
20
-131.8994056
11
261.3787917
21
-125.5720329
0
LINE
8
0
10
261.3787917
20
-125.5720329
11
255.051419
21
-108.1877194
0
LINE
8
0
10
255.051419
20
-108.1877194
11
237.6671055
21
-114.5150921
0
LINE
8
0
10
237.6671055
20
-114.5150921
11
243.9944782
21
-131.8994056
0
LINE
8
0
10
237.4960955
20
-114.0452459
11
254.880409
21
-107.7178732
0
LINE
8
0
10
254.880409
20
-107.7178732
11
248.5530363
21
-90.3335597
0
LINE
8
0
10
248.5530363
20
-90.3335597
11
231.1687228
21
-96.6609324
0
LINE
8
0
10
231.1687228
20
-96.6609324
11
237.4960955
21
-114.0452459
0
LINE
8
0
10
230.9977127
20
-96.1910861
11
248.3820262
21
-89.8637134
0
LINE
8
0
10
248.3820262
20
-89.8637134
11
242.0546535
21
-72.4793999
0
LINE
8
0
10
242.0546535
20
-72.4793999
11
224.67034
21
-78.8067726
0
LINE
8
0
10
224.67034
20
-78.8067726
11
230.9977127
21
-96.1910861
0
LINE
8
0
10
228.1924392
20
-144.0359441
11
245.5767527
21
-137.7085714
0
LINE
8
0
10
245.5767527
20
-137.7085714
11
239.24938
21
-120.3242579
0
LINE
8
0
10
239.24938
20
-120.3242579
11
221.8650665
21
-126.6516306
0
LINE
8
0
10
221.8650665
20
-126.6516306
11
228.1924392
21
-144.0359441
0
LINE
8
0
10
221.6940565
20
-126.1817843
11
239.07837
21
-119.8544116
0
LINE
8
0
10
239.07837
20
-119.8544116
11
232.7509973
21
-102.4700981
0
LINE
8
0
10
232.7509973
20
-102.4700981
11
215.3666838
21
-108.7974708
0
LINE
8
0
10
215.3666838
20
-108.7974708
11
221.6940565
21
-126.1817843
0
LINE
8
0
10
215.1956738
20
-108.3276245
11
232.5799873
21
-102.0002518
0
LINE
8
0
10
232.5799873
20
-102.0002518
11
226.2526146
21
-84.6159383
0
LINE
8
0
10
226.2526146
20
-84.6159383
11
208.8683011
21
-90.943311
0
LINE
8
0
10
208.8683011
20
-90.943311
11
215.1956738
21
-108.3276245
0
LINE
8
0
10
211.0223197
20
-152.4137121
11
228.4066332
21
-146.0863394
0
LINE
8
0
10
228.4066332
20
-146.0863394
11
222.0792605
21
-128.7020259
0
LINE
8
0
10
222.0792605
20
-128.7020259
11
204.694947
21
-135.0293986
0
LINE
8
0
10
204.694947
20
-135.0293986
11
211.0223197
21
-152.4137121
0
LINE
8
0
10
204.523937
20
-134.5595523
11
221.9082505
21
-128.2321796
0
LINE
8
0
10
221.9082505
20
-128.2321796
11
215.5808778
21
-110.8478661
0
LINE
8
0
10
215.5808778
20
-110.8478661
11
198.1965643
21
-117.1752388
0
LINE
8
0
10
198.1965643
20
-117.1752388
11
204.523937
21
-134.5595523
0
LINE
8
0
10
198.0255543
20
-116.7053925
11
215.4098678
21
-110.3780198
0
LINE
8
0
10
215.4098678
20
-110.3780198
11
209.0824951
21
-92.9937063
0
LINE
8
0
10
209.0824951
20
-92.9937063
11
191.6981816
21
-99.321079
0
LINE
8
0
10
191.6981816
20
-99.321079
11
198.0255543
21
-116.7053925
0
LINE
8
0
10
224.0985508
20
-167.8737309
11
241.4828643
21
-161.5463582
0
LINE
8
0
10
241.4828643
20
-161.5463582
11
235.1554916
21
-144.1620447
0
LINE
8
0
10
235.1554916
20
-144.1620447
11
217.7711781
21
-150.4894174
0
LINE
8
0
10
217.7711781
20
-150.4894174
11
224.0985508
21
-167.8737309
0
LINE
8
0
10
209.912166
20
-183.4976366
11
222.2910822
21
-169.7494574
0
LINE
8
0
10
222.2910822
20
-169.7494574
11
208.542903
21
-157.3705412
0
LINE
8
0
10
208.542903
20
-157.3705412
11
196.1639868
21
-171.1187204
0
LINE
8
0
10
196.1639868
20
-171.1187204
11
209.912166
21
-183.4976366
0
LINE
8
0
10
203.7600918
20
-203.4417414
11
208.2356469
21
-185.4912705
0
LINE
8
0
10
208.2356469
20
-185.4912705
11
190.285176
21
-181.0157154
0
LINE
8
0
10
190.285176
20
-181.0157154
11
185.8096209
21
-198.9661863
0
LINE
8
0
10
185.8096209
20
-198.9661863
11
203.7600918
21
-203.4417414
0
ENDSEC
0
EOF