0
SECTION
2
HEADER
9
$INSUNITS
70
4
0
ENDSEC
0
SECTION
2
TABLES
0
TABLE
2
LTYPE
0
LTYPE
72
65
70
64
2
CONTINUOUS
3
______
73
0
40
0
0
ENDTAB
0
TABLE
2
LAYER
0
ENDTAB
0
ENDSEC
0
SECTION
2
ENTITIES
0
LINE
8
0
10
48.1321714
20
-134.8887908
11
66.4847621
21
-139.8063527
0
LINE
8
0
10
66.4847621
20
-139.8063527
11
81.2374478
21
-84.7485806
0
LINE
8
0
10
48.1321714
20
-134.8887908
11
62.8848571
21
-79.8310187
0
LINE
8
0
10
81.2374478
20
-84.7485806
11
62.8848571
21
-79.8310187
0
LINE
8
0
10
70.8330562
20
-126.7406093
11
88.687216
21
-133.2389921
0
LINE
8
0
10
88.687216
20
-133.2389921
11
91.4233771
21
-125.721451
0
LINE
8
0
10
70.8330562
20
-126.7406093
11
90.3282044
21
-73.1781299
0
LINE
8
0
10
108.1823642
20
-79.6765127
11
90.3282044
21
-73.1781299
0
LINE
8
0
10
91.4233771
20
-125.721451
11
109.2775369
21
-132.2198338
0
LINE
8
0
10
126.7205643
20
-84.2955101
11
128.7726852
21
-78.6573545
0
LINE
8
0
10
128.7726852
20
-78.6573545
11
110.9185254
21
-72.1589717
0
LINE
8
0
10
110.9185254
20
-72.1589717
11
108.1823642
21
-79.6765127
0
LINE
8
0
10
107.2254161
20
-137.8579895
11
125.0795759
21
-144.3563723
0
LINE
8
0
10
109.2775369
20
-132.2198338
11
107.2254161
21
-137.8579895
0
LINE
8
0
10
143.8906838
20
-92.6732781
11
144.5747241
21
-90.7938929
0
LINE
8
0
10
144.5747241
20
-90.7938929
11
126.7205643
21
-84.2955101
0
LINE
8
0
10
135.6718471
20
-150.3399993
11
142.2496954
21
-152.7341403
0
LINE
8
0
10
142.2496954
20
-152.7341403
11
161.7448436
21
-99.1716609
0
LINE
8
0
10
125.0795759
20
-144.3563723
11
124.3955356
21
-146.2357575
0
LINE
8
0
10
161.7448436
20
-99.1716609
11
143.8906838
21
-92.6732781
0
LINE
8
0
10
111.3193045
20
-161.6957763
11
129.1734643
21
-168.1941591
0
LINE
8
0
10
129.1734643
20
-168.1941591
11
135.6718471
21
-150.3399993
0
LINE
8
0
10
124.3955356
20
-146.2357575
11
117.8176873
21
-143.8416165
0
LINE
8
0
10
117.8176873
20
-143.8416165
11
111.3193045
21
-161.6957763
0
LINE
8
0
10
130.4784459
20
-169.7309538
11
143.1919274
21
-183.8507055
0
LINE
8
0
10
143.1919274
20
-183.8507055
11
157.3116791
21
-171.137224
0
LINE
8
0
10
157.3116791
20
-171.137224
11
144.5981976
21
-157.0174723
0
LINE
8
0
10
144.5981976
20
-157.0174723
11
130.4784459
21
-169.7309538
0
LINE
8
0
10
144.5838957
20
-185.309177
11
149.1804117
21
-203.7447958
0
LINE
8
0
10
149.1804117
20
-203.7447958
11
167.6160305
21
-199.1482798
0
LINE
8
0
10
167.6160305
20
-199.1482798
11
163.0195145
21
-180.712661
0
LINE
8
0
10
163.0195145
20
-180.712661
11
144.5838957
21
-185.309177
0
LINE
8
0
10
286.6378349
20
-139.8063527
11
304.9904256
21
-134.8887908
0
LINE
8
0
10
290.2377399
20
-79.8310187
11
304.9904256
21
-134.8887908
0
LINE
8
0
10
271.8851492
20
-84.7485806
11
286.6378349
21
-139.8063527
0
LINE
8
0
10
290.2377399
20
-79.8310187
11
271.8851492
21
-84.7485806
0
LINE
8
0
10
264.435381
20
-133.2389921
11
282.2895408
21
-126.7406093
0
LINE
8
0
10
262.7943926
20
-73.1781299
11
282.2895408
21
-126.7406093
0
LINE
8
0
10
261.6992199
20
-125.721451
11
264.435381
21
-133.2389921
0
LINE
8
0
10
262.7943926
20
-73.1781299
11
244.9402328
21
-79.6765127
0
LINE
8
0
10
243.8450601
20
-132.2198338
11
261.6992199
21
-125.721451
0
LINE
8
0
10
244.9402328
20
-79.6765127
11
242.2040716
21
-72.1589717
0
LINE
8
0
10
242.2040716
20
-72.1589717
11
224.3499118
21
-78.6573545
0
LINE
8
0
10
224.3499118
20
-78.6573545
11
226.4020327
21
-84.2955101
0
LINE
8
0
10
228.0430211
20
-144.3563723
11
245.8971809
21
-137.8579895
0
LINE
8
0
10
245.8971809
20
-137.8579895
11
243.8450601
21
-132.2198338
0
LINE
8
0
10
226.4020327
20
-84.2955101
11
208.5478729
21
-90.7938929
0
LINE
8
0
10
208.5478729
20
-90.7938929
11
209.2319132
21
-92.6732781
0
LINE
8
0
10
210.8729016
20
-152.7341403
11
217.4507499
21
-150.3399993
0
LINE
8
0
10
228.7270614
20
-146.2357575
11
228.0430211
21
-144.3563723
0
LINE
8
0
10
191.3777534
20
-99.1716609
11
210.8729016
21
-152.7341403
0
LINE
8
0
10
209.2319132
20
-92.6732781
11
191.3777534
21
-99.1716609
0
LINE
8
0
10
223.9491327
20
-168.1941591
11
241.8032925
21
-161.6957763
0
LINE
8
0
10
241.8032925
20
-161.6957763
11
235.3049097
21
-143.8416165
0
LINE
8
0
10
235.3049097
20
-143.8416165
11
228.7270614
21
-146.2357575
0
LINE
8
0
10
217.4507499
20
-150.3399993
11
223.9491327
21
-168.1941591
0
LINE
8
0
10
209.9306696
20
-183.8507055
11
222.6441511
21
-169.7309538
0
LINE
8
0
10
222.6441511
20
-169.7309538
11
208.5243994
21
-157.0174723
0
LINE
8
0
10
208.5243994
20
-157.0174723
11
195.8109179
21
-171.137224
0
LINE
8
0
10
195.8109179
20
-171.137224
11
209.9306696
21
-183.8507055
0
LINE
8
0
10
203.9421853
20
-203.7447958
11
208.5387013
21
-185.309177
0
LINE
8
0
10
208.5387013
20
-185.309177
11
190.1030825
21
-180.712661
0
LINE
8
0
10
190.1030825
20
-180.712661
11
185.5065665
21
-199.1482798
0
LINE
8
0
10
185.5065665
20
-199.1482798
11
203.9421853
21
-203.7447958
0
ENDSEC
0
EOF