%TF.GenerationSoftware,KiCad,Pcbnew,(6.0.10)*%
%TF.CreationDate,2024-09-29T17:33:22+02:00*%
%TF.ProjectId,blavinge,626c6176-696e-4676-952e-6b696361645f,v1.0.0*%
%TF.SameCoordinates,Original*%
%TF.FileFunction,Copper,L1,Top*%
%TF.FilePolarity,Positive*%
%FSLAX46Y46*%
G04 Gerber Fmt 4.6, Leading zero omitted, Abs format (unit mm)*
G04 Created by KiCad (PCBNEW (6.0.10)) date 2024-09-29 17:33:22*
%MOMM*%
%LPD*%
G01*
G04 APERTURE LIST*
G04 Aperture macros list*
%AMRotRect*
0 Rectangle, with rotation*
0 The origin of the aperture is its center*
0 $1 length*
0 $2 width*
0 $3 Rotation angle, in degrees counterclockwise*
0 Add horizontal line*
21,1,$1,$2,0,0,$3*%
G04 Aperture macros list end*
%TA.AperFunction,SMDPad,CuDef*%
%ADD10RotRect,0.900000X1.200000X345.000000*%
%TD*%
%TA.AperFunction,ComponentPad*%
%ADD11RotRect,1.778000X1.778000X345.000000*%
%TD*%
%TA.AperFunction,ComponentPad*%
%ADD12C,1.905000*%
%TD*%
%TA.AperFunction,SMDPad,CuDef*%
%ADD13RotRect,0.900000X1.200000X340.000000*%
%TD*%
%TA.AperFunction,ComponentPad*%
%ADD14RotRect,1.778000X1.778000X340.000000*%
%TD*%
%TA.AperFunction,SMDPad,CuDef*%
%ADD15RotRect,0.900000X1.200000X312.000000*%
%TD*%
%TA.AperFunction,ComponentPad*%
%ADD16RotRect,1.778000X1.778000X312.000000*%
%TD*%
%TA.AperFunction,SMDPad,CuDef*%
%ADD17RotRect,0.900000X1.200000X284.000000*%
%TD*%
%TA.AperFunction,ComponentPad*%
%ADD18RotRect,1.778000X1.778000X284.000000*%
%TD*%
%TA.AperFunction,SMDPad,CuDef*%
%ADD19RotRect,0.900000X1.200000X15.000000*%
%TD*%
%TA.AperFunction,ComponentPad*%
%ADD20RotRect,1.778000X1.778000X15.000000*%
%TD*%
%TA.AperFunction,SMDPad,CuDef*%
%ADD21RotRect,0.900000X1.200000X20.000000*%
%TD*%
%TA.AperFunction,ComponentPad*%
%ADD22RotRect,1.778000X1.778000X20.000000*%
%TD*%
%TA.AperFunction,SMDPad,CuDef*%
%ADD23RotRect,0.900000X1.200000X48.000000*%
%TD*%
%TA.AperFunction,ComponentPad*%
%ADD24RotRect,1.778000X1.778000X48.000000*%
%TD*%
%TA.AperFunction,SMDPad,CuDef*%
%ADD25RotRect,0.900000X1.200000X76.000000*%
%TD*%
%TA.AperFunction,ComponentPad*%
%ADD26RotRect,1.778000X1.778000X76.000000*%
%TD*%
%TA.AperFunction,ComponentPad*%
%ADD27R,1.752600X1.752600*%
%TD*%
%TA.AperFunction,ComponentPad*%
%ADD28C,1.752600*%
%TD*%
%TA.AperFunction,ComponentPad*%
%ADD29C,0.700000*%
%TD*%
%TA.AperFunction,ComponentPad*%
%ADD30C,4.400000*%
%TD*%
%TA.AperFunction,ViaPad*%
%ADD31C,0.800000*%
%TD*%
%TA.AperFunction,Conductor*%
%ADD32C,0.250000*%
%TD*%
G04 APERTURE END LIST*
D10*
%TO.P,D1,1*%
%TO.N,P19*%
X45853378Y-138499937D03*
%TO.P,D1,2*%
%TO.N,pinky_bottom*%
X49040934Y-139354039D03*
D11*
%TO.P,D1,1*%
%TO.N,P19*%
X43766979Y-137940887D03*
D12*
%TO.P,D1,2*%
%TO.N,pinky_bottom*%
X51127333Y-139913089D03*
%TD*%
D10*
%TO.P,D2,1*%
%TO.N,P20*%
X50770946Y-120147351D03*
%TO.P,D2,2*%
%TO.N,pinky_home*%
X53958502Y-121001453D03*
D11*
%TO.P,D2,1*%
%TO.N,P20*%
X48684547Y-119588301D03*
D12*
%TO.P,D2,2*%
%TO.N,pinky_home*%
X56044901Y-121560503D03*
%TD*%
D10*
%TO.P,D3,1*%
%TO.N,P21*%
X55688503Y-101794764D03*
%TO.P,D3,2*%
%TO.N,pinky_top*%
X58876059Y-102648866D03*
D11*
%TO.P,D3,1*%
%TO.N,P21*%
X53602104Y-101235714D03*
D12*
%TO.P,D3,2*%
%TO.N,pinky_top*%
X60962458Y-103207916D03*
%TD*%
D13*
%TO.P,D4,1*%
%TO.N,P19*%
X68722747Y-131122925D03*
%TO.P,D4,2*%
%TO.N,ring_bottom*%
X71823733Y-132251591D03*
D14*
%TO.P,D4,1*%
%TO.N,P19*%
X66693011Y-130384161D03*
D12*
%TO.P,D4,2*%
%TO.N,ring_bottom*%
X73853469Y-132990355D03*
%TD*%
D13*
%TO.P,D5,1*%
%TO.N,P20*%
X75221124Y-113268772D03*
%TO.P,D5,2*%
%TO.N,ring_home*%
X78322110Y-114397438D03*
D14*
%TO.P,D5,1*%
%TO.N,P20*%
X73191388Y-112530008D03*
D12*
%TO.P,D5,2*%
%TO.N,ring_home*%
X80351846Y-115136202D03*
%TD*%
D13*
%TO.P,D6,1*%
%TO.N,P21*%
X81719513Y-95414607D03*
%TO.P,D6,2*%
%TO.N,ring_top*%
X84820499Y-96543273D03*
D14*
%TO.P,D6,1*%
%TO.N,P21*%
X79689777Y-94675843D03*
D12*
%TO.P,D6,2*%
%TO.N,ring_top*%
X86850235Y-97282037D03*
%TD*%
D13*
%TO.P,D7,1*%
%TO.N,P19*%
X89313061Y-130103773D03*
%TO.P,D7,2*%
%TO.N,middle_bottom*%
X92414047Y-131232439D03*
D14*
%TO.P,D7,1*%
%TO.N,P19*%
X87283325Y-129365009D03*
D12*
%TO.P,D7,2*%
%TO.N,middle_bottom*%
X94443783Y-131971203D03*
%TD*%
D13*
%TO.P,D8,1*%
%TO.N,P20*%
X95811445Y-112249603D03*
%TO.P,D8,2*%
%TO.N,middle_home*%
X98912431Y-113378269D03*
D14*
%TO.P,D8,1*%
%TO.N,P20*%
X93781709Y-111510839D03*
D12*
%TO.P,D8,2*%
%TO.N,middle_home*%
X100942167Y-114117033D03*
%TD*%
D13*
%TO.P,D9,1*%
%TO.N,P21*%
X102309831Y-94395458D03*
%TO.P,D9,2*%
%TO.N,middle_top*%
X105410817Y-95524124D03*
D14*
%TO.P,D9,1*%
%TO.N,P21*%
X100280095Y-93656694D03*
D12*
%TO.P,D9,2*%
%TO.N,middle_top*%
X107440553Y-96262888D03*
%TD*%
D13*
%TO.P,D10,1*%
%TO.N,P19*%
X105115091Y-142240316D03*
%TO.P,D10,2*%
%TO.N,index_bottom*%
X108216077Y-143368982D03*
D14*
%TO.P,D10,1*%
%TO.N,P19*%
X103085355Y-141501552D03*
D12*
%TO.P,D10,2*%
%TO.N,index_bottom*%
X110245813Y-144107746D03*
%TD*%
D13*
%TO.P,D11,1*%
%TO.N,P20*%
X111613480Y-124386152D03*
%TO.P,D11,2*%
%TO.N,index_home*%
X114714466Y-125514818D03*
D14*
%TO.P,D11,1*%
%TO.N,P20*%
X109583744Y-123647388D03*
D12*
%TO.P,D11,2*%
%TO.N,index_home*%
X116744202Y-126253582D03*
%TD*%
D13*
%TO.P,D12,1*%
%TO.N,P21*%
X118111863Y-106531992D03*
%TO.P,D12,2*%
%TO.N,index_top*%
X121212849Y-107660658D03*
D14*
%TO.P,D12,1*%
%TO.N,P21*%
X116082127Y-105793228D03*
D12*
%TO.P,D12,2*%
%TO.N,index_top*%
X123242585Y-108399422D03*
%TD*%
D13*
%TO.P,D13,1*%
%TO.N,P19*%
X122285213Y-150618096D03*
%TO.P,D13,2*%
%TO.N,inner_bottom*%
X125386199Y-151746762D03*
D14*
%TO.P,D13,1*%
%TO.N,P19*%
X120255477Y-149879332D03*
D12*
%TO.P,D13,2*%
%TO.N,inner_bottom*%
X127415935Y-152485526D03*
%TD*%
D13*
%TO.P,D14,1*%
%TO.N,P20*%
X128783610Y-132763925D03*
%TO.P,D14,2*%
%TO.N,inner_home*%
X131884596Y-133892591D03*
D14*
%TO.P,D14,1*%
%TO.N,P20*%
X126753874Y-132025161D03*
D12*
%TO.P,D14,2*%
%TO.N,inner_home*%
X133914332Y-134631355D03*
%TD*%
D13*
%TO.P,D15,1*%
%TO.N,P21*%
X135281974Y-114909767D03*
%TO.P,D15,2*%
%TO.N,inner_top*%
X138382960Y-116038433D03*
D14*
%TO.P,D15,1*%
%TO.N,P21*%
X133252238Y-114171003D03*
D12*
%TO.P,D15,2*%
%TO.N,inner_top*%
X140412696Y-116777197D03*
%TD*%
D13*
%TO.P,D16,1*%
%TO.N,P19*%
X109208987Y-166078118D03*
%TO.P,D16,2*%
%TO.N,near_thumb*%
X112309973Y-167206784D03*
D14*
%TO.P,D16,1*%
%TO.N,P19*%
X107179251Y-165339354D03*
D12*
%TO.P,D16,2*%
%TO.N,near_thumb*%
X114339709Y-167945548D03*
%TD*%
D15*
%TO.P,D17,1*%
%TO.N,P20*%
X128049287Y-178479649D03*
%TO.P,D17,2*%
%TO.N,home_thumb*%
X130257419Y-180932027D03*
D16*
%TO.P,D17,1*%
%TO.N,P20*%
X126603965Y-176874456D03*
D12*
%TO.P,D17,2*%
%TO.N,home_thumb*%
X131702741Y-182537220D03*
%TD*%
D17*
%TO.P,D18,1*%
%TO.N,P21*%
X139823316Y-197763433D03*
%TO.P,D18,2*%
%TO.N,far_thumb*%
X140621658Y-200965409D03*
D18*
%TO.P,D18,1*%
%TO.N,P21*%
X139300765Y-195667594D03*
D12*
%TO.P,D18,2*%
%TO.N,far_thumb*%
X141144209Y-203061248D03*
%TD*%
D19*
%TO.P,D19,1*%
%TO.N,P6*%
X282029685Y-139354037D03*
%TO.P,D19,2*%
%TO.N,mirror_pinky_bottom*%
X285217241Y-138499935D03*
D20*
%TO.P,D19,1*%
%TO.N,P6*%
X279943286Y-139913087D03*
D12*
%TO.P,D19,2*%
%TO.N,mirror_pinky_bottom*%
X287303640Y-137940885D03*
%TD*%
D19*
%TO.P,D20,1*%
%TO.N,P5*%
X277112123Y-121001455D03*
%TO.P,D20,2*%
%TO.N,mirror_pinky_home*%
X280299679Y-120147353D03*
D20*
%TO.P,D20,1*%
%TO.N,P5*%
X275025724Y-121560505D03*
D12*
%TO.P,D20,2*%
%TO.N,mirror_pinky_home*%
X282386078Y-119588303D03*
%TD*%
D19*
%TO.P,D21,1*%
%TO.N,P4*%
X272194540Y-102648867D03*
%TO.P,D21,2*%
%TO.N,mirror_pinky_top*%
X275382096Y-101794765D03*
D20*
%TO.P,D21,1*%
%TO.N,P4*%
X270108141Y-103207917D03*
D12*
%TO.P,D21,2*%
%TO.N,mirror_pinky_top*%
X277468495Y-101235715D03*
%TD*%
D21*
%TO.P,D22,1*%
%TO.N,P6*%
X259246886Y-132251617D03*
%TO.P,D22,2*%
%TO.N,mirror_ring_bottom*%
X262347872Y-131122951D03*
D22*
%TO.P,D22,1*%
%TO.N,P6*%
X257217150Y-132990381D03*
D12*
%TO.P,D22,2*%
%TO.N,mirror_ring_bottom*%
X264377608Y-130384187D03*
%TD*%
D21*
%TO.P,D23,1*%
%TO.N,P5*%
X252748506Y-114397441D03*
%TO.P,D23,2*%
%TO.N,mirror_ring_home*%
X255849492Y-113268775D03*
D22*
%TO.P,D23,1*%
%TO.N,P5*%
X250718770Y-115136205D03*
D12*
%TO.P,D23,2*%
%TO.N,mirror_ring_home*%
X257879228Y-112530011D03*
%TD*%
D21*
%TO.P,D24,1*%
%TO.N,P4*%
X246250118Y-96543290D03*
%TO.P,D24,2*%
%TO.N,mirror_ring_top*%
X249351104Y-95414624D03*
D22*
%TO.P,D24,1*%
%TO.N,P4*%
X244220382Y-97282054D03*
D12*
%TO.P,D24,2*%
%TO.N,mirror_ring_top*%
X251380840Y-94675860D03*
%TD*%
D21*
%TO.P,D25,1*%
%TO.N,P6*%
X238656555Y-131232452D03*
%TO.P,D25,2*%
%TO.N,mirror_middle_bottom*%
X241757541Y-130103786D03*
D22*
%TO.P,D25,1*%
%TO.N,P6*%
X236626819Y-131971216D03*
D12*
%TO.P,D25,2*%
%TO.N,mirror_middle_bottom*%
X243787277Y-129365022D03*
%TD*%
D21*
%TO.P,D26,1*%
%TO.N,P5*%
X232158174Y-113378280D03*
%TO.P,D26,2*%
%TO.N,mirror_middle_home*%
X235259160Y-112249614D03*
D22*
%TO.P,D26,1*%
%TO.N,P5*%
X230128438Y-114117044D03*
D12*
%TO.P,D26,2*%
%TO.N,mirror_middle_home*%
X237288896Y-111510850D03*
%TD*%
D21*
%TO.P,D27,1*%
%TO.N,P4*%
X225659811Y-95524126D03*
%TO.P,D27,2*%
%TO.N,mirror_middle_top*%
X228760797Y-94395460D03*
D22*
%TO.P,D27,1*%
%TO.N,P4*%
X223630075Y-96262890D03*
D12*
%TO.P,D27,2*%
%TO.N,mirror_middle_top*%
X230790533Y-93656696D03*
%TD*%
D21*
%TO.P,D28,1*%
%TO.N,P6*%
X222854528Y-143368983D03*
%TO.P,D28,2*%
%TO.N,mirror_index_bottom*%
X225955514Y-142240317D03*
D22*
%TO.P,D28,1*%
%TO.N,P6*%
X220824792Y-144107747D03*
D12*
%TO.P,D28,2*%
%TO.N,mirror_index_bottom*%
X227985250Y-141501553D03*
%TD*%
D21*
%TO.P,D29,1*%
%TO.N,P5*%
X216356140Y-125514827D03*
%TO.P,D29,2*%
%TO.N,mirror_index_home*%
X219457126Y-124386161D03*
D22*
%TO.P,D29,1*%
%TO.N,P5*%
X214326404Y-126253591D03*
D12*
%TO.P,D29,2*%
%TO.N,mirror_index_home*%
X221486862Y-123647397D03*
%TD*%
D21*
%TO.P,D30,1*%
%TO.N,P4*%
X209857771Y-107660658D03*
%TO.P,D30,2*%
%TO.N,mirror_index_top*%
X212958757Y-106531992D03*
D22*
%TO.P,D30,1*%
%TO.N,P4*%
X207828035Y-108399422D03*
D12*
%TO.P,D30,2*%
%TO.N,mirror_index_top*%
X214988493Y-105793228D03*
%TD*%
D21*
%TO.P,D31,1*%
%TO.N,P6*%
X205684415Y-151746738D03*
%TO.P,D31,2*%
%TO.N,mirror_inner_bottom*%
X208785401Y-150618072D03*
D22*
%TO.P,D31,1*%
%TO.N,P6*%
X203654679Y-152485502D03*
D12*
%TO.P,D31,2*%
%TO.N,mirror_inner_bottom*%
X210815137Y-149879308D03*
%TD*%
D21*
%TO.P,D32,1*%
%TO.N,P5*%
X199186020Y-133892598D03*
%TO.P,D32,2*%
%TO.N,mirror_inner_home*%
X202287006Y-132763932D03*
D22*
%TO.P,D32,1*%
%TO.N,P5*%
X197156284Y-134631362D03*
D12*
%TO.P,D32,2*%
%TO.N,mirror_inner_home*%
X204316742Y-132025168D03*
%TD*%
D21*
%TO.P,D33,1*%
%TO.N,P4*%
X192687639Y-116038433D03*
%TO.P,D33,2*%
%TO.N,mirror_inner_top*%
X195788625Y-114909767D03*
D22*
%TO.P,D33,1*%
%TO.N,P4*%
X190657903Y-116777197D03*
D12*
%TO.P,D33,2*%
%TO.N,mirror_inner_top*%
X197818361Y-114171003D03*
%TD*%
D21*
%TO.P,D34,1*%
%TO.N,P6*%
X218760652Y-167206777D03*
%TO.P,D34,2*%
%TO.N,mirror_near_thumb*%
X221861638Y-166078111D03*
D22*
%TO.P,D34,1*%
%TO.N,P6*%
X216730916Y-167945541D03*
D12*
%TO.P,D34,2*%
%TO.N,mirror_near_thumb*%
X223891374Y-165339347D03*
%TD*%
D23*
%TO.P,D35,1*%
%TO.N,P5*%
X200813204Y-180932018D03*
%TO.P,D35,2*%
%TO.N,mirror_home_thumb*%
X203021336Y-178479640D03*
D24*
%TO.P,D35,1*%
%TO.N,P5*%
X199367882Y-182537211D03*
D12*
%TO.P,D35,2*%
%TO.N,mirror_home_thumb*%
X204466658Y-176874447D03*
%TD*%
D25*
%TO.P,D36,1*%
%TO.N,P4*%
X190448961Y-200965415D03*
%TO.P,D36,2*%
%TO.N,mirror_far_thumb*%
X191247303Y-197763439D03*
D26*
%TO.P,D36,1*%
%TO.N,P4*%
X189926410Y-203061254D03*
D12*
%TO.P,D36,2*%
%TO.N,mirror_far_thumb*%
X191769854Y-195667600D03*
%TD*%
D27*
%TO.P,MCU1,1*%
%TO.N,RAW*%
X157915311Y-108805644D03*
D28*
%TO.P,MCU1,2*%
%TO.N,GND*%
X157915311Y-111345644D03*
%TO.P,MCU1,3*%
%TO.N,RST*%
X157915311Y-113885644D03*
%TO.P,MCU1,4*%
%TO.N,VCC*%
X157915311Y-116425644D03*
%TO.P,MCU1,5*%
%TO.N,P21*%
X157915311Y-118965644D03*
%TO.P,MCU1,6*%
%TO.N,P20*%
X157915311Y-121505644D03*
%TO.P,MCU1,7*%
%TO.N,P19*%
X157915311Y-124045644D03*
%TO.P,MCU1,8*%
%TO.N,P18*%
X157915311Y-126585644D03*
%TO.P,MCU1,9*%
%TO.N,P15*%
X157915311Y-129125644D03*
%TO.P,MCU1,10*%
%TO.N,P14*%
X157915311Y-131665644D03*
%TO.P,MCU1,11*%
%TO.N,P16*%
X157915311Y-134205644D03*
%TO.P,MCU1,12*%
%TO.N,P10*%
X157915311Y-136745644D03*
%TO.P,MCU1,13*%
%TO.N,P1*%
X173155311Y-108805644D03*
%TO.P,MCU1,14*%
%TO.N,P0*%
X173155311Y-111345644D03*
%TO.P,MCU1,15*%
%TO.N,GND*%
X173155311Y-113885644D03*
%TO.P,MCU1,16*%
X173155311Y-116425644D03*
%TO.P,MCU1,17*%
%TO.N,P2*%
X173155311Y-118965644D03*
%TO.P,MCU1,18*%
%TO.N,P3*%
X173155311Y-121505644D03*
%TO.P,MCU1,19*%
%TO.N,P4*%
X173155311Y-124045644D03*
%TO.P,MCU1,20*%
%TO.N,P5*%
X173155311Y-126585644D03*
%TO.P,MCU1,21*%
%TO.N,P6*%
X173155311Y-129125644D03*
%TO.P,MCU1,22*%
%TO.N,P7*%
X173155311Y-131665644D03*
%TO.P,MCU1,23*%
%TO.N,P8*%
X173155311Y-134205644D03*
%TO.P,MCU1,24*%
%TO.N,P9*%
X173155311Y-136745644D03*
%TD*%
D29*
%TO.P,_1,1*%
%TO.N,N/C*%
X73363461Y-90760097D03*
D30*
X72538461Y-89331155D03*
D29*
X72111410Y-90924933D03*
X73967403Y-88506155D03*
X70944683Y-88904104D03*
X71713461Y-87902213D03*
X71109519Y-90156155D03*
X74132239Y-89758206D03*
X72965512Y-87737377D03*
%TD*%
%TO.P,_2,1*%
%TO.N,N/C*%
X259961085Y-90156161D03*
D30*
X258532143Y-89331161D03*
D29*
X258959194Y-90924939D03*
X259357143Y-87902219D03*
X256938365Y-89758212D03*
X257103201Y-88506161D03*
X257707143Y-90760103D03*
X260125921Y-88904110D03*
X258105092Y-87737383D03*
%TD*%
%TO.P,_3,1*%
%TO.N,N/C*%
X62413071Y-138968616D03*
D30*
X61588071Y-137539674D03*
D29*
X61161020Y-139133452D03*
X63017013Y-136714674D03*
X59994293Y-137112623D03*
X60763071Y-136110732D03*
X60159129Y-138364674D03*
X63181849Y-137966725D03*
X62015122Y-135945896D03*
%TD*%
%TO.P,_4,1*%
%TO.N,N/C*%
X270911492Y-138364657D03*
D30*
X269482550Y-137539657D03*
D29*
X269909601Y-139133435D03*
X270307550Y-136110715D03*
X267888772Y-137966708D03*
X268053608Y-136714657D03*
X268657550Y-138968599D03*
X271076328Y-137112606D03*
X269055499Y-135945879D03*
%TD*%
%TO.P,_5,1*%
%TO.N,N/C*%
X151737802Y-116819905D03*
D30*
X151040482Y-115324497D03*
D29*
X150476149Y-116874990D03*
X152535890Y-114627177D03*
X149489989Y-114760164D03*
X150343162Y-113829089D03*
X149545074Y-116021817D03*
X152590975Y-115888830D03*
X151604815Y-113774004D03*
%TD*%
%TO.P,_6,1*%
%TO.N,N/C*%
X181525540Y-116021810D03*
D30*
X180030132Y-115324490D03*
D29*
X180594465Y-116874983D03*
X180727452Y-113829082D03*
X178479639Y-115888823D03*
X178534724Y-114627170D03*
X179332812Y-116819898D03*
X181580625Y-114760157D03*
X179465799Y-113773997D03*
%TD*%
%TO.P,_7,1*%
%TO.N,N/C*%
X138741052Y-152528246D03*
D30*
X138043732Y-151032838D03*
D29*
X137479399Y-152583331D03*
X139539140Y-150335518D03*
X136493239Y-150468505D03*
X137346412Y-149537430D03*
X136548324Y-151730158D03*
X139594225Y-151597171D03*
X138608065Y-149482345D03*
%TD*%
%TO.P,_8,1*%
%TO.N,N/C*%
X194522296Y-151730138D03*
D30*
X193026888Y-151032818D03*
D29*
X193591221Y-152583311D03*
X193724208Y-149537410D03*
X191476395Y-151597151D03*
X191531480Y-150335498D03*
X192329568Y-152528226D03*
X194577381Y-150468485D03*
X192462555Y-149482325D03*
%TD*%
%TO.P,_9,1*%
%TO.N,N/C*%
X166702034Y-199321539D03*
D30*
X165535308Y-198154813D03*
D29*
X165535308Y-199804813D03*
X166702034Y-196988087D03*
X163885308Y-198154813D03*
X164368582Y-196988087D03*
X164368582Y-199321539D03*
X167185308Y-198154813D03*
X165535308Y-196504813D03*
%TD*%
D31*
%TO.N,P20*%
X151400000Y-128000000D03*
%TO.N,P21*%
X152900000Y-124900000D03*
%TO.N,P4*%
X179700000Y-130734869D03*
%TO.N,P5*%
X180553830Y-133726915D03*
%TO.N,P16*%
X164751395Y-106772762D03*
%TO.N,P14*%
X163851405Y-107572761D03*
%TO.N,P10*%
X165551403Y-108372760D03*
%TO.N,P7*%
X167951396Y-109172749D03*
%TO.N,P8*%
X166985573Y-110006936D03*
%TD*%
D32*
%TO.N,P19*%
X120255477Y-150807978D02*
X120255477Y-149879332D01*
X107179251Y-165339354D02*
X107179251Y-163884204D01*
X107179251Y-163884204D02*
X120255477Y-150807978D01*
%TO.N,P21*%
X152900000Y-124900000D02*
X152900000Y-182068359D01*
X152900000Y-182068359D02*
X139300765Y-195667594D01*
%TO.N,P20*%
X151400000Y-155288132D02*
X151400000Y-128000000D01*
X132696848Y-173991284D02*
X151400000Y-155288132D01*
X129487137Y-173991284D02*
X132696848Y-173991284D01*
X126603965Y-176874456D02*
X129487137Y-173991284D01*
%TO.N,P4*%
X190231261Y-168466752D02*
X190231261Y-200747715D01*
X179700000Y-157935491D02*
X190231261Y-168466752D01*
X190231261Y-200747715D02*
X190448961Y-200965415D01*
X179700000Y-130734869D02*
X179700000Y-157935491D01*
%TO.N,P6*%
X179074352Y-129125644D02*
X173155311Y-129125644D01*
X179074354Y-129125646D02*
X179074352Y-129125644D01*
X179074354Y-129125646D02*
X179921694Y-129125646D01*
X173155312Y-129125647D02*
X179074354Y-129125646D01*
%TO.N,P5*%
X180500000Y-158099095D02*
X180553830Y-133726915D01*
X195832653Y-173431748D02*
X180500000Y-158099095D01*
X195832653Y-179001982D02*
X195832653Y-173431748D01*
X199367882Y-182537211D02*
X195832653Y-179001982D01*
%TO.N,P6*%
X209635328Y-162594726D02*
X210530522Y-165054251D01*
X210530522Y-165054251D02*
X216730917Y-167945542D01*
X209632236Y-162593281D02*
X209635328Y-162594726D01*
X205684414Y-151746739D02*
X209632236Y-162593281D01*
%TO.N,P19*%
X151987754Y-124045632D02*
X157915315Y-124045631D01*
X125415290Y-150618094D02*
X151987754Y-124045632D01*
X122285220Y-150618090D02*
X122285208Y-150618094D01*
X122285208Y-150618094D02*
X125415290Y-150618094D01*
X120255491Y-149879331D02*
X122285220Y-150618090D01*
%TO.N,P20*%
X150927758Y-121505627D02*
X157915307Y-121505627D01*
X131301463Y-136572762D02*
X135860629Y-136572761D01*
X126753866Y-132025168D02*
X131301463Y-136572762D01*
X135860629Y-136572761D02*
X150927758Y-121505627D01*
%TO.N,P6*%
X203281549Y-152485496D02*
X203654677Y-152485502D01*
X179921694Y-129125646D02*
X203281549Y-152485496D01*
%TO.N,P5*%
X191908510Y-134631362D02*
X197156283Y-134631360D01*
X183705268Y-126428118D02*
X191908510Y-134631362D01*
X173312843Y-126428119D02*
X183705268Y-126428118D01*
X173155311Y-126585645D02*
X173312843Y-126428119D01*
%TO.N,P4*%
X190557004Y-117014912D02*
X190657902Y-116777198D01*
X173155309Y-124045650D02*
X190557004Y-117014912D01*
%TO.N,P5*%
X212367534Y-130454407D02*
X214326406Y-126253594D01*
X200823407Y-134656127D02*
X212367534Y-130454407D01*
X199186013Y-133892603D02*
X200823407Y-134656127D01*
%TO.N,P6*%
X218865923Y-148308548D02*
X220824795Y-144107745D01*
X207321805Y-152510263D02*
X218865923Y-148308548D01*
X205684416Y-151746736D02*
X207321805Y-152510263D01*
%TO.N,P5*%
X227377334Y-120016793D02*
X230128437Y-114117038D01*
X217191090Y-123724289D02*
X227377334Y-120016793D01*
X216356142Y-125514827D02*
X217191090Y-123724289D01*
%TO.N,P6*%
X224491911Y-144132512D02*
X232277262Y-141298874D01*
X232277262Y-141298874D02*
X236626820Y-131971215D01*
X222854526Y-143368986D02*
X224491911Y-144132512D01*
X248910272Y-136013838D02*
X257217153Y-132990381D01*
X238656556Y-131232453D02*
X248910272Y-136013838D01*
%TO.N,P5*%
X232158170Y-113378276D02*
X242411883Y-118159662D01*
X242411883Y-118159662D02*
X250718766Y-115136207D01*
%TO.N,P6*%
X273571297Y-142232302D02*
X279943285Y-139913085D01*
X259246890Y-132251614D02*
X260693998Y-136227521D01*
X260693998Y-136227521D02*
X273571297Y-142232302D01*
%TO.N,P5*%
X271141513Y-122974238D02*
X275025720Y-121560507D01*
X252748505Y-114397442D02*
X271141513Y-122974238D01*
%TO.N,P4*%
X264735790Y-105163298D02*
X270108141Y-103207919D01*
X246250121Y-96543292D02*
X264735790Y-105163298D01*
X225711115Y-95665079D02*
X235772560Y-100356814D01*
X235772560Y-100356814D02*
X244220390Y-97282055D01*
X225659809Y-95524129D02*
X225711115Y-95665079D01*
X220819216Y-102290794D02*
X223630074Y-96262889D01*
X210632936Y-105998296D02*
X220819216Y-102290794D01*
X209857764Y-107660659D02*
X210632936Y-105998296D01*
X205869158Y-112600243D02*
X207828030Y-108399422D01*
X194325022Y-116801960D02*
X205869158Y-112600243D01*
X192687639Y-116038436D02*
X194325022Y-116801960D01*
%TO.N,P21*%
X56848706Y-104282811D02*
X55688507Y-101794762D01*
X60437236Y-105588931D02*
X56848706Y-104282811D01*
X78841319Y-97006971D02*
X60437236Y-105588931D01*
X79689783Y-94675849D02*
X78841319Y-97006971D01*
X83117891Y-98413438D02*
X81719518Y-95414614D01*
X99842056Y-94860184D02*
X88231059Y-100274479D01*
X88231059Y-100274479D02*
X83117891Y-98413438D01*
X100280087Y-93656699D02*
X99842056Y-94860184D01*
X105895860Y-102085731D02*
X102309830Y-94395463D01*
X116082126Y-105793225D02*
X105895860Y-102085731D01*
X119307209Y-109095419D02*
X118111861Y-106531990D01*
X133252245Y-114171001D02*
X119307209Y-109095419D01*
%TO.N,P20*%
X56211391Y-123631724D02*
X51615759Y-121959050D01*
X71795699Y-116364640D02*
X56211391Y-123631724D01*
X73191392Y-112530006D02*
X71795699Y-116364640D01*
X51615759Y-121959050D02*
X50770947Y-120147354D01*
X75259960Y-113282913D02*
X75221127Y-113268774D01*
X76180199Y-115256360D02*
X75259960Y-113282913D01*
X81554547Y-117212464D02*
X76180199Y-115256360D01*
X93781710Y-111510845D02*
X81554547Y-117212464D01*
X99397483Y-119939893D02*
X95811449Y-112249605D01*
X109583744Y-123647394D02*
X99397483Y-119939893D01*
X112808827Y-126949584D02*
X111613483Y-124386156D01*
X126753869Y-132025162D02*
X112808827Y-126949584D01*
%TO.N,P19*%
X50613924Y-136280066D02*
X45853385Y-138499936D01*
X66528585Y-130835910D02*
X52995021Y-137146710D01*
X66693003Y-130384167D02*
X66528585Y-130835910D01*
X52995021Y-137146710D02*
X50613924Y-136280066D01*
X70300423Y-134506269D02*
X68722740Y-131122927D01*
X76823133Y-136880337D02*
X70300423Y-134506269D01*
X86127053Y-132541858D02*
X76823133Y-136880337D01*
X87283334Y-129365018D02*
X86127053Y-132541858D01*
X92863056Y-137716764D02*
X89313068Y-130103778D01*
X94366564Y-138263992D02*
X92863056Y-137716764D01*
X94402608Y-138341288D02*
X94366564Y-138263992D01*
X103085357Y-141501552D02*
X94402608Y-138341288D01*
X106310444Y-144803747D02*
X105115093Y-142240319D01*
X120255480Y-149879329D02*
X106310444Y-144803747D01*
%TO.N,far_thumb*%
X140621662Y-200965399D02*
X141144213Y-203061246D01*
%TO.N,P21*%
X139300772Y-195667589D02*
X139823321Y-197763432D01*
%TO.N,home_thumb*%
X130257405Y-180932023D02*
X131702732Y-182537218D01*
%TO.N,P20*%
X126603956Y-176874457D02*
X128049279Y-178479641D01*
%TO.N,near_thumb*%
X112309975Y-167206780D02*
X114339712Y-167945532D01*
%TO.N,P19*%
X107179251Y-165339340D02*
X109208998Y-166078107D01*
%TO.N,mirror_far_thumb*%
X191247297Y-197763440D02*
X191769846Y-195667594D01*
%TO.N,P4*%
X189926413Y-203061248D02*
X190448953Y-200965411D01*
%TO.N,mirror_home_thumb*%
X203021325Y-178479645D02*
X204466657Y-176874442D01*
%TO.N,P5*%
X199367874Y-182537217D02*
X200813201Y-180932021D01*
%TO.N,P6*%
X218760642Y-167206779D02*
X216730908Y-167945549D01*
%TO.N,mirror_near_thumb*%
X221861624Y-166078101D02*
X223891363Y-165339342D01*
%TO.N,P6*%
X205684423Y-151746752D02*
X203654679Y-152485513D01*
%TO.N,mirror_inner_bottom*%
X208785393Y-150618085D02*
X210815125Y-149879321D01*
%TO.N,P6*%
X222854510Y-143368989D02*
X220824793Y-144107742D01*
%TO.N,mirror_index_bottom*%
X225955511Y-142240317D02*
X227985251Y-141501555D01*
%TO.N,mirror_index_home*%
X219457133Y-124386163D02*
X221486866Y-123647397D01*
%TO.N,P5*%
X216356143Y-125514850D02*
X214326408Y-126253604D01*
X199186011Y-133892594D02*
X197156294Y-134631362D01*
%TO.N,mirror_inner_home*%
X202287001Y-132763924D02*
X204316744Y-132025159D01*
%TO.N,P4*%
X192687639Y-116038423D02*
X190657909Y-116777189D01*
%TO.N,mirror_inner_top*%
X195788626Y-114909760D02*
X197818364Y-114170993D01*
%TO.N,P4*%
X209857774Y-107660664D02*
X207828033Y-108399443D01*
%TO.N,mirror_index_top*%
X212958758Y-106531984D02*
X214988477Y-105793238D01*
%TO.N,mirror_ring_top*%
X249351102Y-95414623D02*
X251380837Y-94675855D01*
%TO.N,P4*%
X246250126Y-96543286D02*
X244220378Y-97282063D01*
X225659815Y-95524129D02*
X223630054Y-96262893D01*
%TO.N,mirror_middle_top*%
X228760790Y-94395463D02*
X230790521Y-93656695D01*
%TO.N,P5*%
X232158175Y-113378278D02*
X230128454Y-114117054D01*
%TO.N,mirror_middle_home*%
X235259156Y-112249615D02*
X237288912Y-111510849D01*
%TO.N,mirror_ring_home*%
X255849484Y-113268788D02*
X257879223Y-112530021D01*
%TO.N,P5*%
X252748510Y-114397448D02*
X250718760Y-115136217D01*
%TO.N,P6*%
X238656553Y-131232440D02*
X236626816Y-131971213D01*
%TO.N,mirror_middle_bottom*%
X241757534Y-130103773D02*
X243787282Y-129365021D01*
%TO.N,mirror_ring_bottom*%
X262347876Y-131122952D02*
X264377614Y-130384179D01*
%TO.N,P6*%
X257347436Y-132942968D02*
X259246883Y-132251617D01*
X257169735Y-132860112D02*
X257347436Y-132942968D01*
X257217159Y-132990380D02*
X257169735Y-132860112D01*
X282029682Y-139354050D02*
X279943281Y-139913092D01*
%TO.N,mirror_pinky_bottom*%
X285217235Y-138499948D02*
X287303640Y-137940898D01*
%TO.N,mirror_pinky_home*%
X280299679Y-120147362D02*
X282386073Y-119588310D01*
%TO.N,P5*%
X277112125Y-121001468D02*
X275025700Y-121560506D01*
%TO.N,mirror_pinky_top*%
X275382109Y-101794764D02*
X277468493Y-101235724D01*
%TO.N,P4*%
X270108122Y-103207918D02*
X272194549Y-102648883D01*
%TO.N,pinky_bottom*%
X49040935Y-139354046D02*
X51127339Y-139913099D01*
%TO.N,P19*%
X45853385Y-138499944D02*
X43766976Y-137940891D01*
%TO.N,pinky_home*%
X53958502Y-121001465D02*
X56044908Y-121560515D01*
%TO.N,P20*%
X48684547Y-119588294D02*
X50770967Y-120147366D01*
%TO.N,pinky_top*%
X58876063Y-102648871D02*
X60962461Y-103207912D01*
%TO.N,P21*%
X53757586Y-101394583D02*
X53896245Y-101314548D01*
X53896245Y-101314548D02*
X55688513Y-101794769D01*
X53677539Y-101255934D02*
X53757586Y-101394583D01*
X53602099Y-101235729D02*
X53677539Y-101255934D01*
%TO.N,ring_top*%
X84820495Y-96543282D02*
X86850228Y-97282050D01*
%TO.N,P21*%
X81719515Y-95414625D02*
X79689778Y-94675857D01*
%TO.N,ring_home*%
X78322116Y-114397441D02*
X80351854Y-115136199D01*
%TO.N,P20*%
X75221134Y-113268780D02*
X73191391Y-112530017D01*
%TO.N,P19*%
X68722725Y-131122938D02*
X66693010Y-130384177D01*
%TO.N,ring_bottom*%
X71823732Y-132251603D02*
X73853474Y-132990361D01*
%TO.N,P19*%
X89313062Y-130103781D02*
X87283335Y-129365016D01*
%TO.N,middle_bottom*%
X92414041Y-131232438D02*
X94443789Y-131971202D01*
%TO.N,middle_home*%
X98912441Y-113378287D02*
X100942182Y-114117049D01*
%TO.N,P20*%
X95811447Y-112249612D02*
X93781716Y-111510862D01*
%TO.N,P21*%
X102309833Y-94395469D02*
X100280087Y-93656708D01*
%TO.N,middle_top*%
X105410813Y-95524130D02*
X107440550Y-96262899D01*
%TO.N,inner_top*%
X140412705Y-116777212D02*
X138382976Y-116038429D01*
%TO.N,P21*%
X135281980Y-114909775D02*
X133252243Y-114171001D01*
X118111853Y-106531988D02*
X116082121Y-105793212D01*
%TO.N,index_top*%
X121212840Y-107660663D02*
X123242585Y-108399418D01*
%TO.N,P20*%
X111613491Y-124386158D02*
X109583755Y-123647389D01*
%TO.N,index_home*%
X116744211Y-126253603D02*
X114714470Y-125514813D01*
%TO.N,inner_home*%
X131884602Y-133892593D02*
X133914334Y-134631376D01*
%TO.N,P20*%
X128783606Y-132763932D02*
X126753871Y-132025162D01*
%TO.N,P19*%
X105115118Y-142240314D02*
X103085364Y-141501545D01*
%TO.N,index_bottom*%
X108216089Y-143368985D02*
X110245819Y-144107748D01*
%TO.N,inner_bottom*%
X125386198Y-151746754D02*
X127415939Y-152485525D01*
%TO.N,P21*%
X138046874Y-118965644D02*
X157915295Y-118965651D01*
X133252244Y-114170999D02*
X138046874Y-118965644D01*
%TO.N,GND*%
X173155303Y-116425643D02*
X173155299Y-113885641D01*
%TO.N,P8*%
X166985597Y-128035919D02*
X173155310Y-134205640D01*
X166985573Y-110006936D02*
X166985597Y-128035919D01*
%TO.N,P7*%
X167951398Y-126461732D02*
X173155309Y-131665643D01*
X167951396Y-109172749D02*
X167951398Y-126461732D01*
%TO.N,P14*%
X163851401Y-125729547D02*
X157915311Y-131665640D01*
X163851405Y-107572761D02*
X163851401Y-125729547D01*
%TO.N,P16*%
X164751389Y-127369552D02*
X157915305Y-134205647D01*
X164751395Y-106772762D02*
X164751389Y-127369552D01*
%TO.N,P10*%
X165551403Y-108372760D02*
X165551402Y-129109556D01*
X165551402Y-129109556D02*
X157915307Y-136745659D01*
%TD*%
M02*
