%TF.GenerationSoftware,KiCad,Pcbnew,(6.0.10)*%
%TF.CreationDate,2024-09-29T17:33:22+02:00*%
%TF.ProjectId,blavinge,626c6176-696e-4676-952e-6b696361645f,v1.0.0*%
%TF.SameCoordinates,Original*%
%TF.FileFunction,Paste,Bot*%
%TF.FilePolarity,Positive*%
%FSLAX46Y46*%
G04 Gerber Fmt 4.6, Leading zero omitted, Abs format (unit mm)*
G04 Created by KiCad (PCBNEW (6.0.10)) date 2024-09-29 17:33:22*
%MOMM*%
%LPD*%
G01*
G04 APERTURE LIST*
G04 Aperture macros list*
%AMRotRect*
0 Rectangle, with rotation*
0 The origin of the aperture is its center*
0 $1 length*
0 $2 width*
0 $3 Rotation angle, in degrees counterclockwise*
0 Add horizontal line*
21,1,$1,$2,0,0,$3*%
G04 Aperture macros list end*
%ADD10RotRect,2.550000X2.500000X345.000000*%
%ADD11RotRect,2.550000X2.500000X340.000000*%
%ADD12RotRect,2.550000X2.500000X312.000000*%
%ADD13RotRect,2.550000X2.500000X284.000000*%
%ADD14RotRect,2.550000X2.500000X15.000000*%
%ADD15RotRect,2.550000X2.500000X20.000000*%
%ADD16RotRect,2.550000X2.500000X48.000000*%
%ADD17RotRect,2.550000X2.500000X76.000000*%
%ADD18RotRect,0.900000X1.200000X345.000000*%
%ADD19RotRect,0.900000X1.200000X340.000000*%
%ADD20RotRect,0.900000X1.200000X312.000000*%
%ADD21RotRect,0.900000X1.200000X284.000000*%
%ADD22RotRect,0.900000X1.200000X15.000000*%
%ADD23RotRect,0.900000X1.200000X20.000000*%
%ADD24RotRect,0.900000X1.200000X48.000000*%
%ADD25RotRect,0.900000X1.200000X76.000000*%
%ADD26R,1.100000X1.800000*%
G04 APERTURE END LIST*
D10*
%TO.C,S1*%
X42555086Y-129810187D03*
X55699009Y-130702490D03*
%TD*%
%TO.C,S2*%
X47472625Y-111457580D03*
X60616548Y-112349883D03*
%TD*%
%TO.C,S3*%
X52390180Y-93104995D03*
X65534103Y-93997298D03*
%TD*%
D11*
%TO.C,S4*%
X66194338Y-122178777D03*
X79210476Y-124213252D03*
%TD*%
%TO.C,S5*%
X72692728Y-104324612D03*
X85708866Y-106359087D03*
%TD*%
%TO.C,S6*%
X79191104Y-86470438D03*
X92207242Y-88504913D03*
%TD*%
%TO.C,S7*%
X86784662Y-121159626D03*
X99800800Y-123194101D03*
%TD*%
%TO.C,S8*%
X93283058Y-103305460D03*
X106299196Y-105339935D03*
%TD*%
%TO.C,S9*%
X99781436Y-85451303D03*
X112797574Y-87485778D03*
%TD*%
%TO.C,S10*%
X102586710Y-133296167D03*
X115602848Y-135330642D03*
%TD*%
%TO.C,S11*%
X109085097Y-115441998D03*
X122101235Y-117476473D03*
%TD*%
%TO.C,S12*%
X115583473Y-97587836D03*
X128599611Y-99622311D03*
%TD*%
%TO.C,S13*%
X119756829Y-141673932D03*
X132772967Y-143708407D03*
%TD*%
%TO.C,S14*%
X126255212Y-123819769D03*
X139271350Y-125854244D03*
%TD*%
%TO.C,S15*%
X132753587Y-105965604D03*
X145769725Y-108000079D03*
%TD*%
%TO.C,S16*%
X106680602Y-157133963D03*
X119696740Y-159168438D03*
%TD*%
D12*
%TO.C,S17*%
X130015867Y-169395412D03*
X140553306Y-177302454D03*
%TD*%
D13*
%TO.C,S18*%
X151416380Y-202594321D03*
X145824505Y-190665790D03*
%TD*%
D14*
%TO.C,S19*%
X274828375Y-133477640D03*
X286657498Y-127678435D03*
%TD*%
%TO.C,S20*%
X269910806Y-115125069D03*
X281739929Y-109325864D03*
%TD*%
%TO.C,S21*%
X264993225Y-96772472D03*
X276822348Y-90973267D03*
%TD*%
D15*
%TO.C,S22*%
X251560833Y-127025205D03*
X262839508Y-120217092D03*
%TD*%
%TO.C,S23*%
X245062450Y-109171045D03*
X256341125Y-102362932D03*
%TD*%
%TO.C,S24*%
X238564057Y-91316887D03*
X249842732Y-84508774D03*
%TD*%
%TO.C,S25*%
X230970507Y-126006058D03*
X242249182Y-119197945D03*
%TD*%
%TO.C,S26*%
X224472126Y-108151886D03*
X235750801Y-101343773D03*
%TD*%
%TO.C,S27*%
X217973736Y-90297731D03*
X229252411Y-83489618D03*
%TD*%
%TO.C,S28*%
X215168481Y-138142581D03*
X226447156Y-131334468D03*
%TD*%
%TO.C,S29*%
X208670095Y-120288412D03*
X219948770Y-113480299D03*
%TD*%
%TO.C,S30*%
X202171707Y-102434267D03*
X213450382Y-95626154D03*
%TD*%
%TO.C,S31*%
X197998341Y-146520350D03*
X209277016Y-139712237D03*
%TD*%
%TO.C,S32*%
X191499971Y-128666187D03*
X202778646Y-121858074D03*
%TD*%
%TO.C,S33*%
X185001574Y-110812019D03*
X196280249Y-104003906D03*
%TD*%
%TO.C,S34*%
X211074573Y-161980373D03*
X222353248Y-155172260D03*
%TD*%
D16*
%TO.C,S35*%
X191573176Y-179925773D03*
X198335439Y-168619548D03*
%TD*%
D17*
%TO.C,S36*%
X181818084Y-204414881D03*
X182480857Y-191257386D03*
%TD*%
D18*
%TO.C,D1*%
X49040934Y-139354039D03*
X45853378Y-138499937D03*
%TD*%
%TO.C,D2*%
X53958502Y-121001453D03*
X50770946Y-120147351D03*
%TD*%
%TO.C,D3*%
X58876059Y-102648866D03*
X55688503Y-101794764D03*
%TD*%
D19*
%TO.C,D4*%
X71823733Y-132251591D03*
X68722747Y-131122925D03*
%TD*%
%TO.C,D5*%
X78322110Y-114397438D03*
X75221124Y-113268772D03*
%TD*%
%TO.C,D6*%
X84820499Y-96543273D03*
X81719513Y-95414607D03*
%TD*%
%TO.C,D7*%
X92414047Y-131232439D03*
X89313061Y-130103773D03*
%TD*%
%TO.C,D8*%
X98912431Y-113378269D03*
X95811445Y-112249603D03*
%TD*%
%TO.C,D9*%
X105410817Y-95524124D03*
X102309831Y-94395458D03*
%TD*%
%TO.C,D10*%
X108216077Y-143368982D03*
X105115091Y-142240316D03*
%TD*%
%TO.C,D11*%
X114714466Y-125514818D03*
X111613480Y-124386152D03*
%TD*%
%TO.C,D12*%
X121212849Y-107660658D03*
X118111863Y-106531992D03*
%TD*%
%TO.C,D13*%
X125386199Y-151746762D03*
X122285213Y-150618096D03*
%TD*%
%TO.C,D14*%
X131884596Y-133892591D03*
X128783610Y-132763925D03*
%TD*%
%TO.C,D15*%
X138382960Y-116038433D03*
X135281974Y-114909767D03*
%TD*%
%TO.C,D16*%
X112309973Y-167206784D03*
X109208987Y-166078118D03*
%TD*%
D20*
%TO.C,D17*%
X130257419Y-180932027D03*
X128049287Y-178479649D03*
%TD*%
D21*
%TO.C,D18*%
X140621658Y-200965409D03*
X139823316Y-197763433D03*
%TD*%
D22*
%TO.C,D19*%
X285217241Y-138499935D03*
X282029685Y-139354037D03*
%TD*%
%TO.C,D20*%
X280299679Y-120147353D03*
X277112123Y-121001455D03*
%TD*%
%TO.C,D21*%
X275382096Y-101794765D03*
X272194540Y-102648867D03*
%TD*%
D23*
%TO.C,D22*%
X262347872Y-131122951D03*
X259246886Y-132251617D03*
%TD*%
%TO.C,D23*%
X255849492Y-113268775D03*
X252748506Y-114397441D03*
%TD*%
%TO.C,D24*%
X249351104Y-95414624D03*
X246250118Y-96543290D03*
%TD*%
%TO.C,D25*%
X241757541Y-130103786D03*
X238656555Y-131232452D03*
%TD*%
%TO.C,D26*%
X235259160Y-112249614D03*
X232158174Y-113378280D03*
%TD*%
%TO.C,D27*%
X228760797Y-94395460D03*
X225659811Y-95524126D03*
%TD*%
%TO.C,D28*%
X225955514Y-142240317D03*
X222854528Y-143368983D03*
%TD*%
%TO.C,D29*%
X219457126Y-124386161D03*
X216356140Y-125514827D03*
%TD*%
%TO.C,D30*%
X212958757Y-106531992D03*
X209857771Y-107660658D03*
%TD*%
%TO.C,D31*%
X208785401Y-150618072D03*
X205684415Y-151746738D03*
%TD*%
%TO.C,D32*%
X202287006Y-132763932D03*
X199186020Y-133892598D03*
%TD*%
%TO.C,D33*%
X195788625Y-114909767D03*
X192687639Y-116038433D03*
%TD*%
%TO.C,D34*%
X221861638Y-166078111D03*
X218760652Y-167206777D03*
%TD*%
D24*
%TO.C,D35*%
X203021336Y-178479640D03*
X200813204Y-180932018D03*
%TD*%
D25*
%TO.C,D36*%
X191247303Y-197763439D03*
X190448961Y-200965415D03*
%TD*%
D26*
%TO.C,B1*%
X167385303Y-150583953D03*
X167385303Y-144383953D03*
X163685303Y-150583953D03*
X163685303Y-144383953D03*
%TD*%
M02*
