%TF.GenerationSoftware,KiCad,Pcbnew,(6.0.10)*%
%TF.CreationDate,2024-09-29T17:33:22+02:00*%
%TF.ProjectId,blavinge,626c6176-696e-4676-952e-6b696361645f,v1.0.0*%
%TF.SameCoordinates,Original*%
%TF.FileFunction,Copper,L2,Bot*%
%TF.FilePolarity,Positive*%
%FSLAX46Y46*%
G04 Gerber Fmt 4.6, Leading zero omitted, Abs format (unit mm)*
G04 Created by KiCad (PCBNEW (6.0.10)) date 2024-09-29 17:33:22*
%MOMM*%
%LPD*%
G01*
G04 APERTURE LIST*
G04 Aperture macros list*
%AMRotRect*
0 Rectangle, with rotation*
0 The origin of the aperture is its center*
0 $1 length*
0 $2 width*
0 $3 Rotation angle, in degrees counterclockwise*
0 Add horizontal line*
21,1,$1,$2,0,0,$3*%
G04 Aperture macros list end*
%TA.AperFunction,SMDPad,CuDef*%
%ADD10RotRect,2.550000X2.500000X345.000000*%
%TD*%
%TA.AperFunction,SMDPad,CuDef*%
%ADD11RotRect,2.550000X2.500000X340.000000*%
%TD*%
%TA.AperFunction,SMDPad,CuDef*%
%ADD12RotRect,2.550000X2.500000X312.000000*%
%TD*%
%TA.AperFunction,SMDPad,CuDef*%
%ADD13RotRect,2.550000X2.500000X284.000000*%
%TD*%
%TA.AperFunction,SMDPad,CuDef*%
%ADD14RotRect,2.550000X2.500000X15.000000*%
%TD*%
%TA.AperFunction,SMDPad,CuDef*%
%ADD15RotRect,2.550000X2.500000X20.000000*%
%TD*%
%TA.AperFunction,SMDPad,CuDef*%
%ADD16RotRect,2.550000X2.500000X48.000000*%
%TD*%
%TA.AperFunction,SMDPad,CuDef*%
%ADD17RotRect,2.550000X2.500000X76.000000*%
%TD*%
%TA.AperFunction,SMDPad,CuDef*%
%ADD18RotRect,0.900000X1.200000X345.000000*%
%TD*%
%TA.AperFunction,ComponentPad*%
%ADD19RotRect,1.778000X1.778000X345.000000*%
%TD*%
%TA.AperFunction,ComponentPad*%
%ADD20C,1.905000*%
%TD*%
%TA.AperFunction,SMDPad,CuDef*%
%ADD21RotRect,0.900000X1.200000X340.000000*%
%TD*%
%TA.AperFunction,ComponentPad*%
%ADD22RotRect,1.778000X1.778000X340.000000*%
%TD*%
%TA.AperFunction,SMDPad,CuDef*%
%ADD23RotRect,0.900000X1.200000X312.000000*%
%TD*%
%TA.AperFunction,ComponentPad*%
%ADD24RotRect,1.778000X1.778000X312.000000*%
%TD*%
%TA.AperFunction,SMDPad,CuDef*%
%ADD25RotRect,0.900000X1.200000X284.000000*%
%TD*%
%TA.AperFunction,ComponentPad*%
%ADD26RotRect,1.778000X1.778000X284.000000*%
%TD*%
%TA.AperFunction,SMDPad,CuDef*%
%ADD27RotRect,0.900000X1.200000X15.000000*%
%TD*%
%TA.AperFunction,ComponentPad*%
%ADD28RotRect,1.778000X1.778000X15.000000*%
%TD*%
%TA.AperFunction,SMDPad,CuDef*%
%ADD29RotRect,0.900000X1.200000X20.000000*%
%TD*%
%TA.AperFunction,ComponentPad*%
%ADD30RotRect,1.778000X1.778000X20.000000*%
%TD*%
%TA.AperFunction,SMDPad,CuDef*%
%ADD31RotRect,0.900000X1.200000X48.000000*%
%TD*%
%TA.AperFunction,ComponentPad*%
%ADD32RotRect,1.778000X1.778000X48.000000*%
%TD*%
%TA.AperFunction,SMDPad,CuDef*%
%ADD33RotRect,0.900000X1.200000X76.000000*%
%TD*%
%TA.AperFunction,ComponentPad*%
%ADD34RotRect,1.778000X1.778000X76.000000*%
%TD*%
%TA.AperFunction,ComponentPad*%
%ADD35R,1.752600X1.752600*%
%TD*%
%TA.AperFunction,ComponentPad*%
%ADD36C,1.752600*%
%TD*%
%TA.AperFunction,SMDPad,CuDef*%
%ADD37R,1.100000X1.800000*%
%TD*%
%TA.AperFunction,ComponentPad*%
%ADD38C,0.700000*%
%TD*%
%TA.AperFunction,ComponentPad*%
%ADD39C,4.400000*%
%TD*%
%TA.AperFunction,ViaPad*%
%ADD40C,0.800000*%
%TD*%
%TA.AperFunction,Conductor*%
%ADD41C,0.250000*%
%TD*%
G04 APERTURE END LIST*
D10*
%TO.P,S1,1*%
%TO.N,P16*%
X42555086Y-129810187D03*
%TO.P,S1,2*%
%TO.N,pinky_bottom*%
X55699009Y-130702490D03*
%TD*%
%TO.P,S2,1*%
%TO.N,P16*%
X47472625Y-111457580D03*
%TO.P,S2,2*%
%TO.N,pinky_home*%
X60616548Y-112349883D03*
%TD*%
%TO.P,S3,1*%
%TO.N,P16*%
X52390180Y-93104995D03*
%TO.P,S3,2*%
%TO.N,pinky_top*%
X65534103Y-93997298D03*
%TD*%
D11*
%TO.P,S4,1*%
%TO.N,P14*%
X66194338Y-122178777D03*
%TO.P,S4,2*%
%TO.N,ring_bottom*%
X79210476Y-124213252D03*
%TD*%
%TO.P,S5,1*%
%TO.N,P14*%
X72692728Y-104324612D03*
%TO.P,S5,2*%
%TO.N,ring_home*%
X85708866Y-106359087D03*
%TD*%
%TO.P,S6,1*%
%TO.N,P14*%
X79191104Y-86470438D03*
%TO.P,S6,2*%
%TO.N,ring_top*%
X92207242Y-88504913D03*
%TD*%
%TO.P,S7,1*%
%TO.N,P10*%
X86784662Y-121159626D03*
%TO.P,S7,2*%
%TO.N,middle_bottom*%
X99800800Y-123194101D03*
%TD*%
%TO.P,S8,1*%
%TO.N,P10*%
X93283058Y-103305460D03*
%TO.P,S8,2*%
%TO.N,middle_home*%
X106299196Y-105339935D03*
%TD*%
%TO.P,S9,1*%
%TO.N,P10*%
X99781436Y-85451303D03*
%TO.P,S9,2*%
%TO.N,middle_top*%
X112797574Y-87485778D03*
%TD*%
%TO.P,S10,1*%
%TO.N,P7*%
X102586710Y-133296167D03*
%TO.P,S10,2*%
%TO.N,index_bottom*%
X115602848Y-135330642D03*
%TD*%
%TO.P,S11,1*%
%TO.N,P7*%
X109085097Y-115441998D03*
%TO.P,S11,2*%
%TO.N,index_home*%
X122101235Y-117476473D03*
%TD*%
%TO.P,S12,1*%
%TO.N,P7*%
X115583473Y-97587836D03*
%TO.P,S12,2*%
%TO.N,index_top*%
X128599611Y-99622311D03*
%TD*%
%TO.P,S13,1*%
%TO.N,P8*%
X119756829Y-141673932D03*
%TO.P,S13,2*%
%TO.N,inner_bottom*%
X132772967Y-143708407D03*
%TD*%
%TO.P,S14,1*%
%TO.N,P8*%
X126255212Y-123819769D03*
%TO.P,S14,2*%
%TO.N,inner_home*%
X139271350Y-125854244D03*
%TD*%
%TO.P,S15,1*%
%TO.N,P8*%
X132753587Y-105965604D03*
%TO.P,S15,2*%
%TO.N,inner_top*%
X145769725Y-108000079D03*
%TD*%
%TO.P,S16,1*%
%TO.N,P9*%
X106680602Y-157133963D03*
%TO.P,S16,2*%
%TO.N,near_thumb*%
X119696740Y-159168438D03*
%TD*%
D12*
%TO.P,S17,1*%
%TO.N,P9*%
X130015867Y-169395412D03*
%TO.P,S17,2*%
%TO.N,home_thumb*%
X140553306Y-177302454D03*
%TD*%
D13*
%TO.P,S18,2*%
%TO.N,far_thumb*%
X151416380Y-202594321D03*
%TO.P,S18,1*%
%TO.N,P9*%
X145824505Y-190665790D03*
%TD*%
D14*
%TO.P,S19,1*%
%TO.N,P16*%
X274828375Y-133477640D03*
%TO.P,S19,2*%
%TO.N,mirror_pinky_bottom*%
X286657498Y-127678435D03*
%TD*%
%TO.P,S20,1*%
%TO.N,P16*%
X269910806Y-115125069D03*
%TO.P,S20,2*%
%TO.N,mirror_pinky_home*%
X281739929Y-109325864D03*
%TD*%
%TO.P,S21,1*%
%TO.N,P16*%
X264993225Y-96772472D03*
%TO.P,S21,2*%
%TO.N,mirror_pinky_top*%
X276822348Y-90973267D03*
%TD*%
D15*
%TO.P,S22,1*%
%TO.N,P14*%
X251560833Y-127025205D03*
%TO.P,S22,2*%
%TO.N,mirror_ring_bottom*%
X262839508Y-120217092D03*
%TD*%
%TO.P,S23,1*%
%TO.N,P14*%
X245062450Y-109171045D03*
%TO.P,S23,2*%
%TO.N,mirror_ring_home*%
X256341125Y-102362932D03*
%TD*%
%TO.P,S24,1*%
%TO.N,P14*%
X238564057Y-91316887D03*
%TO.P,S24,2*%
%TO.N,mirror_ring_top*%
X249842732Y-84508774D03*
%TD*%
%TO.P,S25,1*%
%TO.N,P10*%
X230970507Y-126006058D03*
%TO.P,S25,2*%
%TO.N,mirror_middle_bottom*%
X242249182Y-119197945D03*
%TD*%
%TO.P,S26,1*%
%TO.N,P10*%
X224472126Y-108151886D03*
%TO.P,S26,2*%
%TO.N,mirror_middle_home*%
X235750801Y-101343773D03*
%TD*%
%TO.P,S27,1*%
%TO.N,P10*%
X217973736Y-90297731D03*
%TO.P,S27,2*%
%TO.N,mirror_middle_top*%
X229252411Y-83489618D03*
%TD*%
%TO.P,S28,1*%
%TO.N,P7*%
X215168481Y-138142581D03*
%TO.P,S28,2*%
%TO.N,mirror_index_bottom*%
X226447156Y-131334468D03*
%TD*%
%TO.P,S29,1*%
%TO.N,P7*%
X208670095Y-120288412D03*
%TO.P,S29,2*%
%TO.N,mirror_index_home*%
X219948770Y-113480299D03*
%TD*%
%TO.P,S30,1*%
%TO.N,P7*%
X202171707Y-102434267D03*
%TO.P,S30,2*%
%TO.N,mirror_index_top*%
X213450382Y-95626154D03*
%TD*%
%TO.P,S31,1*%
%TO.N,P8*%
X197998341Y-146520350D03*
%TO.P,S31,2*%
%TO.N,mirror_inner_bottom*%
X209277016Y-139712237D03*
%TD*%
%TO.P,S32,1*%
%TO.N,P8*%
X191499971Y-128666187D03*
%TO.P,S32,2*%
%TO.N,mirror_inner_home*%
X202778646Y-121858074D03*
%TD*%
%TO.P,S33,1*%
%TO.N,P8*%
X185001574Y-110812019D03*
%TO.P,S33,2*%
%TO.N,mirror_inner_top*%
X196280249Y-104003906D03*
%TD*%
%TO.P,S34,1*%
%TO.N,P9*%
X211074573Y-161980373D03*
%TO.P,S34,2*%
%TO.N,mirror_near_thumb*%
X222353248Y-155172260D03*
%TD*%
D16*
%TO.P,S35,1*%
%TO.N,P9*%
X191573176Y-179925773D03*
%TO.P,S35,2*%
%TO.N,mirror_home_thumb*%
X198335439Y-168619548D03*
%TD*%
D17*
%TO.P,S36,1*%
%TO.N,P9*%
X181818084Y-204414881D03*
%TO.P,S36,2*%
%TO.N,mirror_far_thumb*%
X182480857Y-191257386D03*
%TD*%
D18*
%TO.P,D1,2*%
%TO.N,pinky_bottom*%
X49040934Y-139354039D03*
%TO.P,D1,1*%
%TO.N,P19*%
X45853378Y-138499937D03*
D19*
X43766979Y-137940887D03*
D20*
%TO.P,D1,2*%
%TO.N,pinky_bottom*%
X51127333Y-139913089D03*
%TD*%
D18*
%TO.P,D2,2*%
%TO.N,pinky_home*%
X53958502Y-121001453D03*
%TO.P,D2,1*%
%TO.N,P20*%
X50770946Y-120147351D03*
D19*
X48684547Y-119588301D03*
D20*
%TO.P,D2,2*%
%TO.N,pinky_home*%
X56044901Y-121560503D03*
%TD*%
D18*
%TO.P,D3,2*%
%TO.N,pinky_top*%
X58876059Y-102648866D03*
%TO.P,D3,1*%
%TO.N,P21*%
X55688503Y-101794764D03*
D19*
X53602104Y-101235714D03*
D20*
%TO.P,D3,2*%
%TO.N,pinky_top*%
X60962458Y-103207916D03*
%TD*%
D21*
%TO.P,D4,2*%
%TO.N,ring_bottom*%
X71823733Y-132251591D03*
%TO.P,D4,1*%
%TO.N,P19*%
X68722747Y-131122925D03*
D22*
X66693011Y-130384161D03*
D20*
%TO.P,D4,2*%
%TO.N,ring_bottom*%
X73853469Y-132990355D03*
%TD*%
D21*
%TO.P,D5,2*%
%TO.N,ring_home*%
X78322110Y-114397438D03*
%TO.P,D5,1*%
%TO.N,P20*%
X75221124Y-113268772D03*
D22*
X73191388Y-112530008D03*
D20*
%TO.P,D5,2*%
%TO.N,ring_home*%
X80351846Y-115136202D03*
%TD*%
D21*
%TO.P,D6,2*%
%TO.N,ring_top*%
X84820499Y-96543273D03*
%TO.P,D6,1*%
%TO.N,P21*%
X81719513Y-95414607D03*
D22*
X79689777Y-94675843D03*
D20*
%TO.P,D6,2*%
%TO.N,ring_top*%
X86850235Y-97282037D03*
%TD*%
D21*
%TO.P,D7,2*%
%TO.N,middle_bottom*%
X92414047Y-131232439D03*
%TO.P,D7,1*%
%TO.N,P19*%
X89313061Y-130103773D03*
D22*
X87283325Y-129365009D03*
D20*
%TO.P,D7,2*%
%TO.N,middle_bottom*%
X94443783Y-131971203D03*
%TD*%
D21*
%TO.P,D8,2*%
%TO.N,middle_home*%
X98912431Y-113378269D03*
%TO.P,D8,1*%
%TO.N,P20*%
X95811445Y-112249603D03*
D22*
X93781709Y-111510839D03*
D20*
%TO.P,D8,2*%
%TO.N,middle_home*%
X100942167Y-114117033D03*
%TD*%
D21*
%TO.P,D9,2*%
%TO.N,middle_top*%
X105410817Y-95524124D03*
%TO.P,D9,1*%
%TO.N,P21*%
X102309831Y-94395458D03*
D22*
X100280095Y-93656694D03*
D20*
%TO.P,D9,2*%
%TO.N,middle_top*%
X107440553Y-96262888D03*
%TD*%
D21*
%TO.P,D10,2*%
%TO.N,index_bottom*%
X108216077Y-143368982D03*
%TO.P,D10,1*%
%TO.N,P19*%
X105115091Y-142240316D03*
D22*
X103085355Y-141501552D03*
D20*
%TO.P,D10,2*%
%TO.N,index_bottom*%
X110245813Y-144107746D03*
%TD*%
D21*
%TO.P,D11,2*%
%TO.N,index_home*%
X114714466Y-125514818D03*
%TO.P,D11,1*%
%TO.N,P20*%
X111613480Y-124386152D03*
D22*
X109583744Y-123647388D03*
D20*
%TO.P,D11,2*%
%TO.N,index_home*%
X116744202Y-126253582D03*
%TD*%
D21*
%TO.P,D12,2*%
%TO.N,index_top*%
X121212849Y-107660658D03*
%TO.P,D12,1*%
%TO.N,P21*%
X118111863Y-106531992D03*
D22*
X116082127Y-105793228D03*
D20*
%TO.P,D12,2*%
%TO.N,index_top*%
X123242585Y-108399422D03*
%TD*%
D21*
%TO.P,D13,2*%
%TO.N,inner_bottom*%
X125386199Y-151746762D03*
%TO.P,D13,1*%
%TO.N,P19*%
X122285213Y-150618096D03*
D22*
X120255477Y-149879332D03*
D20*
%TO.P,D13,2*%
%TO.N,inner_bottom*%
X127415935Y-152485526D03*
%TD*%
D21*
%TO.P,D14,2*%
%TO.N,inner_home*%
X131884596Y-133892591D03*
%TO.P,D14,1*%
%TO.N,P20*%
X128783610Y-132763925D03*
D22*
X126753874Y-132025161D03*
D20*
%TO.P,D14,2*%
%TO.N,inner_home*%
X133914332Y-134631355D03*
%TD*%
D21*
%TO.P,D15,2*%
%TO.N,inner_top*%
X138382960Y-116038433D03*
%TO.P,D15,1*%
%TO.N,P21*%
X135281974Y-114909767D03*
D22*
X133252238Y-114171003D03*
D20*
%TO.P,D15,2*%
%TO.N,inner_top*%
X140412696Y-116777197D03*
%TD*%
D21*
%TO.P,D16,2*%
%TO.N,near_thumb*%
X112309973Y-167206784D03*
%TO.P,D16,1*%
%TO.N,P19*%
X109208987Y-166078118D03*
D22*
X107179251Y-165339354D03*
D20*
%TO.P,D16,2*%
%TO.N,near_thumb*%
X114339709Y-167945548D03*
%TD*%
D23*
%TO.P,D17,2*%
%TO.N,home_thumb*%
X130257419Y-180932027D03*
%TO.P,D17,1*%
%TO.N,P20*%
X128049287Y-178479649D03*
D24*
X126603965Y-176874456D03*
D20*
%TO.P,D17,2*%
%TO.N,home_thumb*%
X131702741Y-182537220D03*
%TD*%
D25*
%TO.P,D18,2*%
%TO.N,far_thumb*%
X140621658Y-200965409D03*
%TO.P,D18,1*%
%TO.N,P21*%
X139823316Y-197763433D03*
D26*
X139300765Y-195667594D03*
D20*
%TO.P,D18,2*%
%TO.N,far_thumb*%
X141144209Y-203061248D03*
%TD*%
D27*
%TO.P,D19,2*%
%TO.N,mirror_pinky_bottom*%
X285217241Y-138499935D03*
%TO.P,D19,1*%
%TO.N,P6*%
X282029685Y-139354037D03*
D28*
X279943286Y-139913087D03*
D20*
%TO.P,D19,2*%
%TO.N,mirror_pinky_bottom*%
X287303640Y-137940885D03*
%TD*%
D27*
%TO.P,D20,2*%
%TO.N,mirror_pinky_home*%
X280299679Y-120147353D03*
%TO.P,D20,1*%
%TO.N,P5*%
X277112123Y-121001455D03*
D28*
X275025724Y-121560505D03*
D20*
%TO.P,D20,2*%
%TO.N,mirror_pinky_home*%
X282386078Y-119588303D03*
%TD*%
D27*
%TO.P,D21,2*%
%TO.N,mirror_pinky_top*%
X275382096Y-101794765D03*
%TO.P,D21,1*%
%TO.N,P4*%
X272194540Y-102648867D03*
D28*
X270108141Y-103207917D03*
D20*
%TO.P,D21,2*%
%TO.N,mirror_pinky_top*%
X277468495Y-101235715D03*
%TD*%
D29*
%TO.P,D22,2*%
%TO.N,mirror_ring_bottom*%
X262347872Y-131122951D03*
%TO.P,D22,1*%
%TO.N,P6*%
X259246886Y-132251617D03*
D30*
X257217150Y-132990381D03*
D20*
%TO.P,D22,2*%
%TO.N,mirror_ring_bottom*%
X264377608Y-130384187D03*
%TD*%
D29*
%TO.P,D23,2*%
%TO.N,mirror_ring_home*%
X255849492Y-113268775D03*
%TO.P,D23,1*%
%TO.N,P5*%
X252748506Y-114397441D03*
D30*
X250718770Y-115136205D03*
D20*
%TO.P,D23,2*%
%TO.N,mirror_ring_home*%
X257879228Y-112530011D03*
%TD*%
D29*
%TO.P,D24,2*%
%TO.N,mirror_ring_top*%
X249351104Y-95414624D03*
%TO.P,D24,1*%
%TO.N,P4*%
X246250118Y-96543290D03*
D30*
X244220382Y-97282054D03*
D20*
%TO.P,D24,2*%
%TO.N,mirror_ring_top*%
X251380840Y-94675860D03*
%TD*%
D29*
%TO.P,D25,2*%
%TO.N,mirror_middle_bottom*%
X241757541Y-130103786D03*
%TO.P,D25,1*%
%TO.N,P6*%
X238656555Y-131232452D03*
D30*
X236626819Y-131971216D03*
D20*
%TO.P,D25,2*%
%TO.N,mirror_middle_bottom*%
X243787277Y-129365022D03*
%TD*%
D29*
%TO.P,D26,2*%
%TO.N,mirror_middle_home*%
X235259160Y-112249614D03*
%TO.P,D26,1*%
%TO.N,P5*%
X232158174Y-113378280D03*
D30*
X230128438Y-114117044D03*
D20*
%TO.P,D26,2*%
%TO.N,mirror_middle_home*%
X237288896Y-111510850D03*
%TD*%
D29*
%TO.P,D27,2*%
%TO.N,mirror_middle_top*%
X228760797Y-94395460D03*
%TO.P,D27,1*%
%TO.N,P4*%
X225659811Y-95524126D03*
D30*
X223630075Y-96262890D03*
D20*
%TO.P,D27,2*%
%TO.N,mirror_middle_top*%
X230790533Y-93656696D03*
%TD*%
D29*
%TO.P,D28,2*%
%TO.N,mirror_index_bottom*%
X225955514Y-142240317D03*
%TO.P,D28,1*%
%TO.N,P6*%
X222854528Y-143368983D03*
D30*
X220824792Y-144107747D03*
D20*
%TO.P,D28,2*%
%TO.N,mirror_index_bottom*%
X227985250Y-141501553D03*
%TD*%
D29*
%TO.P,D29,2*%
%TO.N,mirror_index_home*%
X219457126Y-124386161D03*
%TO.P,D29,1*%
%TO.N,P5*%
X216356140Y-125514827D03*
D30*
X214326404Y-126253591D03*
D20*
%TO.P,D29,2*%
%TO.N,mirror_index_home*%
X221486862Y-123647397D03*
%TD*%
D29*
%TO.P,D30,2*%
%TO.N,mirror_index_top*%
X212958757Y-106531992D03*
%TO.P,D30,1*%
%TO.N,P4*%
X209857771Y-107660658D03*
D30*
X207828035Y-108399422D03*
D20*
%TO.P,D30,2*%
%TO.N,mirror_index_top*%
X214988493Y-105793228D03*
%TD*%
D29*
%TO.P,D31,2*%
%TO.N,mirror_inner_bottom*%
X208785401Y-150618072D03*
%TO.P,D31,1*%
%TO.N,P6*%
X205684415Y-151746738D03*
D30*
X203654679Y-152485502D03*
D20*
%TO.P,D31,2*%
%TO.N,mirror_inner_bottom*%
X210815137Y-149879308D03*
%TD*%
D29*
%TO.P,D32,2*%
%TO.N,mirror_inner_home*%
X202287006Y-132763932D03*
%TO.P,D32,1*%
%TO.N,P5*%
X199186020Y-133892598D03*
D30*
X197156284Y-134631362D03*
D20*
%TO.P,D32,2*%
%TO.N,mirror_inner_home*%
X204316742Y-132025168D03*
%TD*%
D29*
%TO.P,D33,2*%
%TO.N,mirror_inner_top*%
X195788625Y-114909767D03*
%TO.P,D33,1*%
%TO.N,P4*%
X192687639Y-116038433D03*
D30*
X190657903Y-116777197D03*
D20*
%TO.P,D33,2*%
%TO.N,mirror_inner_top*%
X197818361Y-114171003D03*
%TD*%
D29*
%TO.P,D34,2*%
%TO.N,mirror_near_thumb*%
X221861638Y-166078111D03*
%TO.P,D34,1*%
%TO.N,P6*%
X218760652Y-167206777D03*
D30*
X216730916Y-167945541D03*
D20*
%TO.P,D34,2*%
%TO.N,mirror_near_thumb*%
X223891374Y-165339347D03*
%TD*%
D31*
%TO.P,D35,2*%
%TO.N,mirror_home_thumb*%
X203021336Y-178479640D03*
%TO.P,D35,1*%
%TO.N,P5*%
X200813204Y-180932018D03*
D32*
X199367882Y-182537211D03*
D20*
%TO.P,D35,2*%
%TO.N,mirror_home_thumb*%
X204466658Y-176874447D03*
%TD*%
D33*
%TO.P,D36,2*%
%TO.N,mirror_far_thumb*%
X191247303Y-197763439D03*
%TO.P,D36,1*%
%TO.N,P4*%
X190448961Y-200965415D03*
D34*
X189926410Y-203061254D03*
D20*
%TO.P,D36,2*%
%TO.N,mirror_far_thumb*%
X191769854Y-195667600D03*
%TD*%
D35*
%TO.P,MCU1,1*%
%TO.N,RAW*%
X157915311Y-108805644D03*
D36*
%TO.P,MCU1,2*%
%TO.N,GND*%
X157915311Y-111345644D03*
%TO.P,MCU1,3*%
%TO.N,RST*%
X157915311Y-113885644D03*
%TO.P,MCU1,4*%
%TO.N,VCC*%
X157915311Y-116425644D03*
%TO.P,MCU1,5*%
%TO.N,P21*%
X157915311Y-118965644D03*
%TO.P,MCU1,6*%
%TO.N,P20*%
X157915311Y-121505644D03*
%TO.P,MCU1,7*%
%TO.N,P19*%
X157915311Y-124045644D03*
%TO.P,MCU1,8*%
%TO.N,P18*%
X157915311Y-126585644D03*
%TO.P,MCU1,9*%
%TO.N,P15*%
X157915311Y-129125644D03*
%TO.P,MCU1,10*%
%TO.N,P14*%
X157915311Y-131665644D03*
%TO.P,MCU1,11*%
%TO.N,P16*%
X157915311Y-134205644D03*
%TO.P,MCU1,12*%
%TO.N,P10*%
X157915311Y-136745644D03*
%TO.P,MCU1,13*%
%TO.N,P1*%
X173155311Y-108805644D03*
%TO.P,MCU1,14*%
%TO.N,P0*%
X173155311Y-111345644D03*
%TO.P,MCU1,15*%
%TO.N,GND*%
X173155311Y-113885644D03*
%TO.P,MCU1,16*%
X173155311Y-116425644D03*
%TO.P,MCU1,17*%
%TO.N,P2*%
X173155311Y-118965644D03*
%TO.P,MCU1,18*%
%TO.N,P3*%
X173155311Y-121505644D03*
%TO.P,MCU1,19*%
%TO.N,P4*%
X173155311Y-124045644D03*
%TO.P,MCU1,20*%
%TO.N,P5*%
X173155311Y-126585644D03*
%TO.P,MCU1,21*%
%TO.N,P6*%
X173155311Y-129125644D03*
%TO.P,MCU1,22*%
%TO.N,P7*%
X173155311Y-131665644D03*
%TO.P,MCU1,23*%
%TO.N,P8*%
X173155311Y-134205644D03*
%TO.P,MCU1,24*%
%TO.N,P9*%
X173155311Y-136745644D03*
%TD*%
D37*
%TO.P,B1,1*%
%TO.N,GND*%
X167385303Y-150583953D03*
X167385303Y-144383953D03*
%TO.P,B1,2*%
%TO.N,RST*%
X163685303Y-150583953D03*
X163685303Y-144383953D03*
%TD*%
D38*
%TO.P,_1,1*%
%TO.N,N/C*%
X73363461Y-90760097D03*
D39*
X72538461Y-89331155D03*
D38*
X72111410Y-90924933D03*
X73967403Y-88506155D03*
X70944683Y-88904104D03*
X71713461Y-87902213D03*
X71109519Y-90156155D03*
X74132239Y-89758206D03*
X72965512Y-87737377D03*
%TD*%
%TO.P,_2,1*%
%TO.N,N/C*%
X259961085Y-90156161D03*
D39*
X258532143Y-89331161D03*
D38*
X258959194Y-90924939D03*
X259357143Y-87902219D03*
X256938365Y-89758212D03*
X257103201Y-88506161D03*
X257707143Y-90760103D03*
X260125921Y-88904110D03*
X258105092Y-87737383D03*
%TD*%
%TO.P,_3,1*%
%TO.N,N/C*%
X62413071Y-138968616D03*
D39*
X61588071Y-137539674D03*
D38*
X61161020Y-139133452D03*
X63017013Y-136714674D03*
X59994293Y-137112623D03*
X60763071Y-136110732D03*
X60159129Y-138364674D03*
X63181849Y-137966725D03*
X62015122Y-135945896D03*
%TD*%
%TO.P,_4,1*%
%TO.N,N/C*%
X270911492Y-138364657D03*
D39*
X269482550Y-137539657D03*
D38*
X269909601Y-139133435D03*
X270307550Y-136110715D03*
X267888772Y-137966708D03*
X268053608Y-136714657D03*
X268657550Y-138968599D03*
X271076328Y-137112606D03*
X269055499Y-135945879D03*
%TD*%
%TO.P,_5,1*%
%TO.N,N/C*%
X151737802Y-116819905D03*
D39*
X151040482Y-115324497D03*
D38*
X150476149Y-116874990D03*
X152535890Y-114627177D03*
X149489989Y-114760164D03*
X150343162Y-113829089D03*
X149545074Y-116021817D03*
X152590975Y-115888830D03*
X151604815Y-113774004D03*
%TD*%
%TO.P,_6,1*%
%TO.N,N/C*%
X181525540Y-116021810D03*
D39*
X180030132Y-115324490D03*
D38*
X180594465Y-116874983D03*
X180727452Y-113829082D03*
X178479639Y-115888823D03*
X178534724Y-114627170D03*
X179332812Y-116819898D03*
X181580625Y-114760157D03*
X179465799Y-113773997D03*
%TD*%
%TO.P,_7,1*%
%TO.N,N/C*%
X138741052Y-152528246D03*
D39*
X138043732Y-151032838D03*
D38*
X137479399Y-152583331D03*
X139539140Y-150335518D03*
X136493239Y-150468505D03*
X137346412Y-149537430D03*
X136548324Y-151730158D03*
X139594225Y-151597171D03*
X138608065Y-149482345D03*
%TD*%
%TO.P,_8,1*%
%TO.N,N/C*%
X194522296Y-151730138D03*
D39*
X193026888Y-151032818D03*
D38*
X193591221Y-152583311D03*
X193724208Y-149537410D03*
X191476395Y-151597151D03*
X191531480Y-150335498D03*
X192329568Y-152528226D03*
X194577381Y-150468485D03*
X192462555Y-149482325D03*
%TD*%
%TO.P,_9,1*%
%TO.N,N/C*%
X166702034Y-199321539D03*
D39*
X165535308Y-198154813D03*
D38*
X165535308Y-199804813D03*
X166702034Y-196988087D03*
X163885308Y-198154813D03*
X164368582Y-196988087D03*
X164368582Y-199321539D03*
X167185308Y-198154813D03*
X165535308Y-196504813D03*
%TD*%
D40*
%TO.N,P20*%
X151400000Y-128000000D03*
%TO.N,P21*%
X152900000Y-124900000D03*
%TO.N,P4*%
X179700000Y-130734869D03*
%TO.N,P5*%
X180553830Y-133726915D03*
%TO.N,P16*%
X164751395Y-106772762D03*
%TO.N,P14*%
X163851405Y-107572761D03*
%TO.N,P10*%
X165551403Y-108372760D03*
%TO.N,P7*%
X167951396Y-109172749D03*
%TO.N,P8*%
X166985573Y-110006936D03*
%TD*%
D41*
%TO.N,P20*%
X151420955Y-128000000D02*
X157915311Y-121505644D01*
X151400000Y-128000000D02*
X151420955Y-128000000D01*
%TO.N,P21*%
X152900000Y-123980955D02*
X157915311Y-118965644D01*
X152900000Y-124900000D02*
X152900000Y-123980955D01*
%TO.N,P4*%
X179700000Y-130590333D02*
X173155311Y-124045644D01*
X179700000Y-130734869D02*
X179700000Y-130590333D01*
%TO.N,P5*%
X180296582Y-133726915D02*
X173155311Y-126585644D01*
X180553830Y-133726915D02*
X180296582Y-133726915D01*
%TO.N,GND*%
X160455308Y-113885640D02*
X173155299Y-113885641D01*
X157915299Y-111345640D02*
X160455308Y-113885640D01*
X167385311Y-122195633D02*
X173155303Y-116425643D01*
X167385310Y-144383958D02*
X167385311Y-122195633D01*
X167385307Y-150583954D02*
X167385310Y-144383958D01*
%TO.N,RST*%
X163685314Y-144383957D02*
X163685334Y-150583963D01*
X163685312Y-119655651D02*
X157915309Y-113885641D01*
X163685314Y-144383957D02*
X163685312Y-119655651D01*
%TO.N,P8*%
X133723462Y-104995736D02*
X132753581Y-105965617D01*
X147974362Y-104995733D02*
X133723462Y-104995736D01*
X150051400Y-107072741D02*
X147974362Y-104995733D01*
X161885584Y-110006940D02*
X158951395Y-107072755D01*
X171551399Y-107272756D02*
X181462303Y-107272753D01*
X181462303Y-107272753D02*
X185001570Y-110812024D01*
X158951395Y-107072755D02*
X150051400Y-107072741D01*
X168817220Y-110006938D02*
X171551399Y-107272756D01*
X166985573Y-110006936D02*
X161885584Y-110006940D01*
X166985573Y-110006936D02*
X168817220Y-110006938D01*
%TO.N,P7*%
X116898543Y-96272765D02*
X115583474Y-97587831D01*
X128751391Y-96272774D02*
X116898543Y-96272765D01*
X137024369Y-104545730D02*
X128751391Y-96272774D01*
X148224362Y-104545721D02*
X137024369Y-104545730D01*
X150301389Y-106622760D02*
X148224362Y-104545721D01*
X159137801Y-106622760D02*
X150301389Y-106622760D01*
X161687784Y-109172749D02*
X159137801Y-106622760D01*
X167951396Y-109172749D02*
X161687784Y-109172749D01*
X201196441Y-101459016D02*
X202171705Y-102434264D01*
X191451548Y-101458995D02*
X201196441Y-101459016D01*
X186101407Y-106822760D02*
X190489895Y-102434271D01*
X190489888Y-102420651D02*
X191451548Y-101458995D01*
X171365009Y-106822765D02*
X186101407Y-106822760D01*
X169015012Y-109172754D02*
X171365009Y-106822765D01*
X167951396Y-109172749D02*
X169015012Y-109172754D01*
X190489895Y-102434271D02*
X190489888Y-102420651D01*
%TO.N,P14*%
X238564065Y-89885414D02*
X238564062Y-91316898D01*
X230232573Y-81553918D02*
X238564065Y-89885414D01*
X225070237Y-81553930D02*
X230232573Y-81553918D01*
X219951411Y-86672748D02*
X225070237Y-81553930D01*
X214951392Y-86672769D02*
X219951411Y-86672748D01*
X212151394Y-89536365D02*
X212151407Y-89472759D01*
X201128763Y-100559016D02*
X212151394Y-89536365D01*
X191078749Y-100559005D02*
X201128763Y-100559016D01*
X185714993Y-105922751D02*
X191078749Y-100559005D01*
X170992217Y-105922760D02*
X185714993Y-105922751D01*
X82888806Y-82772757D02*
X79191108Y-86470437D01*
X111837787Y-82772754D02*
X82888806Y-82772757D01*
X124437800Y-95372759D02*
X111837787Y-82772754D01*
X169342215Y-107572761D02*
X170992217Y-105922760D01*
X129124198Y-95372764D02*
X124437800Y-95372759D01*
X137397161Y-103645738D02*
X129124198Y-95372764D01*
X148660759Y-103645728D02*
X137397161Y-103645738D01*
X159510581Y-105722762D02*
X150737789Y-105722771D01*
X161360589Y-107572764D02*
X159510581Y-105722762D01*
X163851405Y-107572761D02*
X161360589Y-107572764D01*
X150737789Y-105722771D02*
X148660759Y-103645728D01*
X163851405Y-107572761D02*
X169342215Y-107572761D01*
X212151407Y-89472759D02*
X214951392Y-86672769D01*
%TO.N,P16*%
X63172437Y-82322764D02*
X52390196Y-93105007D01*
X112024201Y-82322764D02*
X63172437Y-82322764D01*
X124624190Y-94922765D02*
X112024201Y-82322764D01*
X148847160Y-103195725D02*
X137583544Y-103195729D01*
X150924183Y-105272761D02*
X148847160Y-103195725D01*
X159696986Y-105272763D02*
X150924183Y-105272761D01*
X161196973Y-106772754D02*
X159696986Y-105272763D01*
X164751395Y-106772762D02*
X161196973Y-106772754D01*
X264993243Y-88014600D02*
X264993222Y-96772480D01*
X224883849Y-81103921D02*
X258082556Y-81103928D01*
X219765003Y-86222753D02*
X224883849Y-81103921D01*
X214764992Y-86222762D02*
X219765003Y-86222753D01*
X206464999Y-94522759D02*
X214764992Y-86222762D01*
X206465006Y-94586360D02*
X206464999Y-94522759D01*
X185501399Y-105472749D02*
X190865152Y-100109010D01*
X169505810Y-106772769D02*
X170805816Y-105472757D01*
X164751395Y-106772762D02*
X169505810Y-106772769D01*
X190865152Y-100109010D02*
X200942367Y-100109014D01*
X137583544Y-103195729D02*
X129310586Y-94922755D01*
X170805816Y-105472757D02*
X185501399Y-105472749D01*
X129310586Y-94922755D02*
X124624190Y-94922765D01*
X200942367Y-100109014D02*
X206465006Y-94586360D01*
X258082556Y-81103928D02*
X264993243Y-88014600D01*
%TO.N,P10*%
X100751315Y-84481429D02*
X99781434Y-85451308D01*
X112910076Y-84481429D02*
X100751315Y-84481429D01*
X124251398Y-95822760D02*
X112910076Y-84481429D01*
X128937791Y-95822764D02*
X124251398Y-95822760D01*
X137210762Y-104095731D02*
X128937791Y-95822764D01*
X148474374Y-104095727D02*
X137210762Y-104095731D01*
X159324201Y-106172768D02*
X150551400Y-106172752D01*
X161524186Y-108372752D02*
X159324201Y-106172768D01*
X212026440Y-90297737D02*
X217973734Y-90297723D01*
X201315150Y-101009009D02*
X212026440Y-90297737D01*
X191265147Y-101009021D02*
X201315150Y-101009009D01*
X171178612Y-106372749D02*
X185901394Y-106372752D01*
X169178603Y-108372761D02*
X171178612Y-106372749D01*
X150551400Y-106172752D02*
X148474374Y-104095727D01*
X165551403Y-108372760D02*
X161524186Y-108372752D01*
X165551403Y-108372760D02*
X169178603Y-108372761D01*
X185901394Y-106372752D02*
X191265147Y-101009021D01*
%TO.N,P8*%
X122216503Y-134915999D02*
X119756832Y-141673934D01*
X132753591Y-105965604D02*
X122216503Y-134915999D01*
%TO.N,P9*%
X188798511Y-169220132D02*
X193479587Y-169220112D01*
X173155307Y-136745645D02*
X173155306Y-153576922D01*
X173155306Y-153576922D02*
X188798511Y-169220132D01*
X176110764Y-185232377D02*
X180089016Y-189210629D01*
X147280390Y-185232375D02*
X176110764Y-185232377D01*
X180089016Y-189210629D02*
X179985439Y-189270438D01*
X190731740Y-183066051D02*
X180089016Y-189210629D01*
X147280390Y-185232375D02*
X145824506Y-190665804D01*
X131122594Y-168756451D02*
X138984214Y-170862950D01*
X130015867Y-169395401D02*
X131122594Y-168756451D01*
X138984214Y-170862950D02*
X147280390Y-185232375D01*
X181964484Y-203868462D02*
X181818084Y-204414873D01*
X177941148Y-196899833D02*
X181964484Y-203868462D01*
X179985439Y-189270438D02*
X177941148Y-196899833D01*
X191573168Y-179925778D02*
X190731740Y-183066051D01*
X207621682Y-161055170D02*
X193479587Y-169220112D01*
X193479587Y-169220112D02*
X190916012Y-178787536D01*
X190916012Y-178787536D02*
X191573168Y-179925778D01*
X211074572Y-161980383D02*
X207621682Y-161055170D01*
X123389914Y-157918928D02*
X130015867Y-169395401D01*
X111048597Y-154612072D02*
X123389914Y-157918928D01*
X106680596Y-157133947D02*
X111048597Y-154612072D01*
%TO.N,P16*%
X42555068Y-129810163D02*
X42555079Y-129810182D01*
X52390202Y-93105009D02*
X42555068Y-129810163D01*
%TO.N,P14*%
X79191109Y-86470460D02*
X66194336Y-122178791D01*
%TO.N,P10*%
X86784679Y-121159614D02*
X86784659Y-121159621D01*
X99781440Y-85451301D02*
X86784679Y-121159614D01*
%TO.N,P7*%
X102586690Y-133296152D02*
X102586700Y-133296146D01*
X115583478Y-97587836D02*
X102586690Y-133296152D01*
%TO.N,P16*%
X264993238Y-96772473D02*
X274828367Y-133477636D01*
X274828367Y-133477636D02*
X274828376Y-133477637D01*
%TO.N,P14*%
X251560818Y-127025195D02*
X251560821Y-127025216D01*
X238564063Y-91316898D02*
X251560818Y-127025195D01*
%TO.N,P10*%
X217973733Y-90297720D02*
X230970517Y-126006045D01*
%TO.N,P7*%
X215168466Y-138142577D02*
X215168478Y-138142575D01*
X202171712Y-102434273D02*
X215168466Y-138142577D01*
%TO.N,P8*%
X185001585Y-110812023D02*
X198619557Y-146288084D01*
%TO.N,mirror_pinky_bottom*%
X286657506Y-127678442D02*
X285220649Y-130167140D01*
X285220649Y-130167140D02*
X287303634Y-137940890D01*
X285217230Y-138499935D02*
X287303634Y-137940890D01*
%TO.N,P6*%
X282029670Y-139354052D02*
X279943279Y-139913092D01*
%TO.N,P5*%
X277112117Y-121001465D02*
X275025706Y-121560499D01*
%TO.N,mirror_pinky_home*%
X280299679Y-120147362D02*
X282386082Y-119588304D01*
X280303090Y-111814521D02*
X282386082Y-119588304D01*
X281739927Y-109325843D02*
X280303090Y-111814521D01*
%TO.N,P4*%
X272194547Y-102648871D02*
X270108143Y-103207910D01*
%TO.N,mirror_pinky_top*%
X275382110Y-101794764D02*
X277468500Y-101235713D01*
X275385528Y-93461945D02*
X277468500Y-101235713D01*
X276822371Y-90973271D02*
X275385528Y-93461945D01*
%TO.N,P6*%
X218760631Y-167206771D02*
X216730897Y-167945543D01*
%TO.N,mirror_near_thumb*%
X221861631Y-166078099D02*
X223891374Y-165339335D01*
%TO.N,mirror_far_thumb*%
X182474789Y-191281653D02*
X183936638Y-193714548D01*
X182480845Y-191257394D02*
X182474789Y-191281653D01*
X183936638Y-193714548D02*
X191769845Y-195667601D01*
%TO.N,P4*%
X190448954Y-200965420D02*
X189926389Y-203061249D01*
%TO.N,mirror_far_thumb*%
X191247294Y-197763443D02*
X191769845Y-195667601D01*
%TO.N,far_thumb*%
X148953154Y-201114286D02*
X151416382Y-202594322D01*
X141144207Y-203061264D02*
X148953154Y-201114286D01*
X140621658Y-200965417D02*
X141144207Y-203061264D01*
%TO.N,P21*%
X139274778Y-195563389D02*
X139823328Y-197763434D01*
X139300763Y-195667616D02*
X139274778Y-195563389D01*
%TO.N,P19*%
X45853380Y-138499947D02*
X43766995Y-137940884D01*
%TO.N,pinky_bottom*%
X49040927Y-139354054D02*
X51127337Y-139913096D01*
X53216781Y-132115174D02*
X51127337Y-139913096D01*
X55674854Y-130696012D02*
X53216781Y-132115174D01*
X55698998Y-130702482D02*
X55674854Y-130696012D01*
%TO.N,P20*%
X50770944Y-120147349D02*
X48684538Y-119588311D01*
%TO.N,pinky_home*%
X53958479Y-121001453D02*
X56044893Y-121560519D01*
X58127885Y-113786737D02*
X56044893Y-121560519D01*
X60616559Y-112349894D02*
X58127885Y-113786737D01*
%TO.N,P21*%
X55688524Y-101794756D02*
X53602104Y-101235722D01*
%TO.N,pinky_top*%
X58876073Y-102648858D02*
X60962464Y-103207909D01*
X65534123Y-93997304D02*
X63045448Y-95434142D01*
X63045448Y-95434142D02*
X60962464Y-103207909D01*
%TO.N,P21*%
X81719506Y-95414613D02*
X79689774Y-94675866D01*
%TO.N,ring_top*%
X86850236Y-97282052D02*
X84820492Y-96543283D01*
X89602812Y-89719406D02*
X86850236Y-97282052D01*
X92207253Y-88504918D02*
X89602812Y-89719406D01*
%TO.N,middle_top*%
X110193130Y-88700244D02*
X107440542Y-96262887D01*
X112797578Y-87485772D02*
X110193130Y-88700244D01*
%TO.N,P21*%
X102309822Y-94395457D02*
X100280081Y-93656700D01*
%TO.N,middle_top*%
X105410821Y-95524121D02*
X107440542Y-96262887D01*
%TO.N,P21*%
X118111876Y-106532021D02*
X116082125Y-105793235D01*
%TO.N,index_top*%
X121212844Y-107660671D02*
X123242582Y-108399431D01*
X125995173Y-100836776D02*
X123242582Y-108399431D01*
X128599620Y-99622312D02*
X125995173Y-100836776D01*
%TO.N,inner_top*%
X145746241Y-107991535D02*
X143173850Y-109191058D01*
X145769714Y-108000085D02*
X145746241Y-107991535D01*
X143173850Y-109191058D02*
X140412706Y-116777212D01*
X138382990Y-116038432D02*
X140412706Y-116777212D01*
%TO.N,P21*%
X135281985Y-114909786D02*
X133252252Y-114170997D01*
%TO.N,inner_home*%
X136666898Y-127068721D02*
X133914324Y-134631355D01*
X139271365Y-125854235D02*
X136666898Y-127068721D01*
X131884602Y-133892597D02*
X133914324Y-134631355D01*
%TO.N,P20*%
X126753862Y-132025165D02*
X128783600Y-132763929D01*
%TO.N,index_home*%
X119496774Y-118690957D02*
X116744200Y-126253605D01*
X122101217Y-117476479D02*
X119496774Y-118690957D01*
X114714486Y-125514820D02*
X116744200Y-126253605D01*
%TO.N,P20*%
X111613482Y-124386164D02*
X109583764Y-123647397D01*
%TO.N,middle_home*%
X103694746Y-106554415D02*
X100942174Y-114117052D01*
X106299190Y-105339931D02*
X103694746Y-106554415D01*
X98912444Y-113378287D02*
X100942174Y-114117052D01*
%TO.N,P20*%
X95811446Y-112249618D02*
X93781708Y-111510858D01*
%TO.N,ring_home*%
X83112964Y-107550069D02*
X80351857Y-115136192D01*
X85685364Y-106350542D02*
X83112964Y-107550069D01*
X85708869Y-106359097D02*
X85685364Y-106350542D01*
X78322109Y-114397451D02*
X80351857Y-115136192D01*
%TO.N,P20*%
X75221140Y-113268784D02*
X73191385Y-112530019D01*
%TO.N,P19*%
X68722738Y-131122932D02*
X66693012Y-130384181D01*
%TO.N,ring_bottom*%
X71823729Y-132251624D02*
X73853463Y-132990376D01*
X76606039Y-125427710D02*
X73853463Y-132990376D01*
X79210476Y-124213250D02*
X76606039Y-125427710D01*
%TO.N,middle_bottom*%
X99800827Y-123194101D02*
X99777304Y-123185548D01*
X99777304Y-123185548D02*
X97204912Y-124385052D01*
X97204912Y-124385052D02*
X94443792Y-131971219D01*
%TO.N,P19*%
X89313064Y-130103799D02*
X87283336Y-129365022D01*
%TO.N,middle_bottom*%
X92414037Y-131232433D02*
X94443792Y-131971219D01*
%TO.N,index_bottom*%
X115602841Y-135330621D02*
X112998393Y-136545119D01*
X112998393Y-136545119D02*
X110245818Y-144107751D01*
%TO.N,P19*%
X105115108Y-142240324D02*
X103085362Y-141501559D01*
%TO.N,index_bottom*%
X108216084Y-143368987D02*
X110245818Y-144107751D01*
%TO.N,inner_bottom*%
X132772960Y-143708405D02*
X130168523Y-144922873D01*
X130168523Y-144922873D02*
X127415942Y-152485506D01*
%TO.N,P19*%
X122285205Y-150618099D02*
X120255481Y-149879340D01*
%TO.N,inner_bottom*%
X125386191Y-151746758D02*
X127415942Y-152485506D01*
%TO.N,mirror_near_thumb*%
X221138782Y-157776681D02*
X223891378Y-165339332D01*
X222353244Y-155172252D02*
X221138782Y-157776681D01*
%TO.N,near_thumb*%
X117092292Y-160382886D02*
X114339719Y-167945528D01*
X119696738Y-159168414D02*
X117092292Y-160382886D01*
X112309970Y-167206776D02*
X114339719Y-167945528D01*
%TO.N,P19*%
X109209003Y-166078104D02*
X107179246Y-165339338D01*
%TO.N,mirror_ring_top*%
X248619720Y-87089711D02*
X251380844Y-94675855D01*
X249819232Y-84517313D02*
X248619720Y-87089711D01*
X249842757Y-84508776D02*
X249819232Y-84517313D01*
X249351113Y-95414626D02*
X251380844Y-94675855D01*
%TO.N,P4*%
X246250111Y-96543291D02*
X244220382Y-97282063D01*
%TO.N,mirror_middle_top*%
X228037948Y-86094043D02*
X230790521Y-93656692D01*
X229252414Y-83489598D02*
X228037948Y-86094043D01*
X228760784Y-94395467D02*
X230790521Y-93656692D01*
%TO.N,P4*%
X225659798Y-95524127D02*
X223630060Y-96262892D01*
%TO.N,mirror_index_top*%
X212227358Y-98207105D02*
X214988474Y-105793231D01*
X213426895Y-95634702D02*
X212227358Y-98207105D01*
X213450354Y-95626149D02*
X213426895Y-95634702D01*
X212958731Y-106531990D02*
X214988474Y-105793231D01*
%TO.N,P4*%
X209857761Y-107660659D02*
X207828028Y-108399441D01*
%TO.N,mirror_inner_top*%
X195065783Y-106608364D02*
X197818359Y-114170998D01*
X196280252Y-104003907D02*
X195065783Y-106608364D01*
%TO.N,P4*%
X192687649Y-116038427D02*
X190657911Y-116777198D01*
%TO.N,mirror_inner_top*%
X195788635Y-114909773D02*
X197818359Y-114170998D01*
%TO.N,mirror_inner_home*%
X202778640Y-121858073D02*
X201564184Y-124462525D01*
X201564184Y-124462525D02*
X204316744Y-132025162D01*
%TO.N,P5*%
X199186015Y-133892597D02*
X197156291Y-134631363D01*
%TO.N,mirror_inner_home*%
X204316744Y-132025162D02*
X202287008Y-132763928D01*
%TO.N,P5*%
X216356143Y-125514851D02*
X214326409Y-126253596D01*
%TO.N,mirror_index_home*%
X221486870Y-123647394D02*
X219457143Y-124386165D01*
X221366990Y-123591511D02*
X221486870Y-123647394D01*
X218678387Y-116204618D02*
X221366990Y-123591511D01*
X219948761Y-113480311D02*
X218678387Y-116204618D01*
%TO.N,mirror_middle_home*%
X234536336Y-103948204D02*
X237288906Y-111510855D01*
X235750800Y-101343781D02*
X234536336Y-103948204D01*
%TO.N,P5*%
X232158180Y-113378286D02*
X230128459Y-114117057D01*
%TO.N,mirror_middle_home*%
X235259170Y-112249625D02*
X237288906Y-111510855D01*
%TO.N,mirror_ring_home*%
X256341111Y-102362930D02*
X255126646Y-104967372D01*
X255126646Y-104967372D02*
X257879229Y-112530004D01*
%TO.N,P5*%
X252748508Y-114397445D02*
X250718767Y-115136213D01*
%TO.N,mirror_ring_home*%
X255849485Y-113268796D02*
X257879229Y-112530004D01*
%TO.N,mirror_ring_bottom*%
X261616465Y-122798038D02*
X264377629Y-130384179D01*
X262816005Y-120225641D02*
X261616465Y-122798038D01*
X262839497Y-120217098D02*
X262816005Y-120225641D01*
X262347876Y-131122948D02*
X264377629Y-130384179D01*
%TO.N,P6*%
X259246894Y-132251612D02*
X257217152Y-132990379D01*
%TO.N,mirror_middle_bottom*%
X241034706Y-121802374D02*
X243787290Y-129365019D01*
X242249187Y-119197943D02*
X241034706Y-121802374D01*
X241757548Y-130103775D02*
X243787290Y-129365019D01*
%TO.N,P6*%
X238656568Y-131232446D02*
X236626830Y-131971224D01*
%TO.N,mirror_index_bottom*%
X225955504Y-142240324D02*
X227985258Y-141501562D01*
%TO.N,P6*%
X222854510Y-143369000D02*
X220824788Y-144107746D01*
X205684412Y-151746749D02*
X203654685Y-152485515D01*
%TO.N,mirror_inner_bottom*%
X208785406Y-150618091D02*
X210815114Y-149879324D01*
X209277031Y-139712236D02*
X208062558Y-142316673D01*
X208062558Y-142316673D02*
X210815114Y-149879324D01*
%TO.N,mirror_index_bottom*%
X226423668Y-131343026D02*
X225224129Y-133915429D01*
X225224129Y-133915429D02*
X227985258Y-141501562D01*
X226447162Y-131334472D02*
X226423668Y-131343026D01*
%TO.N,P5*%
X200813199Y-181091892D02*
X199367866Y-182537202D01*
X200813186Y-180932033D02*
X200813199Y-181091892D01*
%TO.N,mirror_home_thumb*%
X204466652Y-177034317D02*
X203021318Y-178479645D01*
X204466649Y-176874450D02*
X204466652Y-177034317D01*
X204156498Y-176874446D02*
X204466649Y-176874450D01*
X198335426Y-171053388D02*
X204156498Y-176874446D01*
X198335424Y-168619555D02*
X198335426Y-171053388D01*
%TO.N,home_thumb*%
X136937494Y-177302441D02*
X131702741Y-182537215D01*
X140553311Y-177302466D02*
X136937494Y-177302441D01*
X130257406Y-181091894D02*
X131702741Y-182537215D01*
X130257412Y-180932011D02*
X130257406Y-181091894D01*
%TO.N,P20*%
X126603963Y-177034321D02*
X128049278Y-178479640D01*
X126603960Y-176874453D02*
X126603963Y-177034321D01*
%TD*%
M02*
