%TF.GenerationSoftware,KiCad,Pcbnew,(6.0.10)*%
%TF.CreationDate,2024-09-29T17:33:22+02:00*%
%TF.ProjectId,blavinge,626c6176-696e-4676-952e-6b696361645f,v1.0.0*%
%TF.SameCoordinates,Original*%
%TF.FileFunction,Legend,Top*%
%TF.FilePolarity,Positive*%
%FSLAX46Y46*%
G04 Gerber Fmt 4.6, Leading zero omitted, Abs format (unit mm)*
G04 Created by KiCad (PCBNEW (6.0.10)) date 2024-09-29 17:33:22*
%MOMM*%
%LPD*%
G01*
G04 APERTURE LIST*
%ADD10C,0.150000*%
%ADD11C,0.100000*%
%ADD12R,1.752600X1.752600*%
%ADD13C,1.752600*%
G04 APERTURE END LIST*
D10*
%TO.C,MCU1*%
X160182930Y-109167548D02*
X159916263Y-108786596D01*
X159725787Y-109167548D02*
X159725787Y-108367548D01*
X160030549Y-108367548D01*
X160106739Y-108405644D01*
X160144834Y-108443739D01*
X160182930Y-108519929D01*
X160182930Y-108634215D01*
X160144834Y-108710405D01*
X160106739Y-108748501D01*
X160030549Y-108786596D01*
X159725787Y-108786596D01*
X160487691Y-108938977D02*
X160868644Y-108938977D01*
X160411501Y-109167548D02*
X160678168Y-108367548D01*
X160944834Y-109167548D01*
X161135311Y-108367548D02*
X161325787Y-109167548D01*
X161478168Y-108596120D01*
X161630549Y-109167548D01*
X161821025Y-108367548D01*
X160125787Y-110945644D02*
X160049596Y-110907548D01*
X159935311Y-110907548D01*
X159821025Y-110945644D01*
X159744834Y-111021834D01*
X159706739Y-111098024D01*
X159668644Y-111250405D01*
X159668644Y-111364691D01*
X159706739Y-111517072D01*
X159744834Y-111593263D01*
X159821025Y-111669453D01*
X159935311Y-111707548D01*
X160011501Y-111707548D01*
X160125787Y-111669453D01*
X160163882Y-111631358D01*
X160163882Y-111364691D01*
X160011501Y-111364691D01*
X160506739Y-111707548D02*
X160506739Y-110907548D01*
X160963882Y-111707548D01*
X160963882Y-110907548D01*
X161344834Y-111707548D02*
X161344834Y-110907548D01*
X161535311Y-110907548D01*
X161649596Y-110945644D01*
X161725787Y-111021834D01*
X161763882Y-111098024D01*
X161801977Y-111250405D01*
X161801977Y-111364691D01*
X161763882Y-111517072D01*
X161725787Y-111593263D01*
X161649596Y-111669453D01*
X161535311Y-111707548D01*
X161344834Y-111707548D01*
X160297215Y-114247548D02*
X160030549Y-113866596D01*
X159840072Y-114247548D02*
X159840072Y-113447548D01*
X160144834Y-113447548D01*
X160221025Y-113485644D01*
X160259120Y-113523739D01*
X160297215Y-113599929D01*
X160297215Y-113714215D01*
X160259120Y-113790405D01*
X160221025Y-113828501D01*
X160144834Y-113866596D01*
X159840072Y-113866596D01*
X160601977Y-114209453D02*
X160716263Y-114247548D01*
X160906739Y-114247548D01*
X160982930Y-114209453D01*
X161021025Y-114171358D01*
X161059120Y-114095167D01*
X161059120Y-114018977D01*
X161021025Y-113942786D01*
X160982930Y-113904691D01*
X160906739Y-113866596D01*
X160754358Y-113828501D01*
X160678168Y-113790405D01*
X160640072Y-113752310D01*
X160601977Y-113676120D01*
X160601977Y-113599929D01*
X160640072Y-113523739D01*
X160678168Y-113485644D01*
X160754358Y-113447548D01*
X160944834Y-113447548D01*
X161059120Y-113485644D01*
X161287691Y-113447548D02*
X161744834Y-113447548D01*
X161516263Y-114247548D02*
X161516263Y-113447548D01*
X159668644Y-115987548D02*
X159935311Y-116787548D01*
X160201977Y-115987548D01*
X160925787Y-116711358D02*
X160887691Y-116749453D01*
X160773406Y-116787548D01*
X160697215Y-116787548D01*
X160582930Y-116749453D01*
X160506739Y-116673263D01*
X160468644Y-116597072D01*
X160430549Y-116444691D01*
X160430549Y-116330405D01*
X160468644Y-116178024D01*
X160506739Y-116101834D01*
X160582930Y-116025644D01*
X160697215Y-115987548D01*
X160773406Y-115987548D01*
X160887691Y-116025644D01*
X160925787Y-116063739D01*
X161725787Y-116711358D02*
X161687691Y-116749453D01*
X161573406Y-116787548D01*
X161497215Y-116787548D01*
X161382930Y-116749453D01*
X161306739Y-116673263D01*
X161268644Y-116597072D01*
X161230549Y-116444691D01*
X161230549Y-116330405D01*
X161268644Y-116178024D01*
X161306739Y-116101834D01*
X161382930Y-116025644D01*
X161497215Y-115987548D01*
X161573406Y-115987548D01*
X161687691Y-116025644D01*
X161725787Y-116063739D01*
X159763882Y-119327548D02*
X159763882Y-118527548D01*
X160068644Y-118527548D01*
X160144834Y-118565644D01*
X160182930Y-118603739D01*
X160221025Y-118679929D01*
X160221025Y-118794215D01*
X160182930Y-118870405D01*
X160144834Y-118908501D01*
X160068644Y-118946596D01*
X159763882Y-118946596D01*
X160525787Y-118603739D02*
X160563882Y-118565644D01*
X160640072Y-118527548D01*
X160830549Y-118527548D01*
X160906739Y-118565644D01*
X160944834Y-118603739D01*
X160982930Y-118679929D01*
X160982930Y-118756120D01*
X160944834Y-118870405D01*
X160487691Y-119327548D01*
X160982930Y-119327548D01*
X161744834Y-119327548D02*
X161287691Y-119327548D01*
X161516263Y-119327548D02*
X161516263Y-118527548D01*
X161440072Y-118641834D01*
X161363882Y-118718024D01*
X161287691Y-118756120D01*
X159763882Y-121867548D02*
X159763882Y-121067548D01*
X160068644Y-121067548D01*
X160144834Y-121105644D01*
X160182930Y-121143739D01*
X160221025Y-121219929D01*
X160221025Y-121334215D01*
X160182930Y-121410405D01*
X160144834Y-121448501D01*
X160068644Y-121486596D01*
X159763882Y-121486596D01*
X160525787Y-121143739D02*
X160563882Y-121105644D01*
X160640072Y-121067548D01*
X160830549Y-121067548D01*
X160906739Y-121105644D01*
X160944834Y-121143739D01*
X160982930Y-121219929D01*
X160982930Y-121296120D01*
X160944834Y-121410405D01*
X160487691Y-121867548D01*
X160982930Y-121867548D01*
X161478168Y-121067548D02*
X161554358Y-121067548D01*
X161630549Y-121105644D01*
X161668644Y-121143739D01*
X161706739Y-121219929D01*
X161744834Y-121372310D01*
X161744834Y-121562786D01*
X161706739Y-121715167D01*
X161668644Y-121791358D01*
X161630549Y-121829453D01*
X161554358Y-121867548D01*
X161478168Y-121867548D01*
X161401977Y-121829453D01*
X161363882Y-121791358D01*
X161325787Y-121715167D01*
X161287691Y-121562786D01*
X161287691Y-121372310D01*
X161325787Y-121219929D01*
X161363882Y-121143739D01*
X161401977Y-121105644D01*
X161478168Y-121067548D01*
X159763882Y-124407548D02*
X159763882Y-123607548D01*
X160068644Y-123607548D01*
X160144834Y-123645644D01*
X160182930Y-123683739D01*
X160221025Y-123759929D01*
X160221025Y-123874215D01*
X160182930Y-123950405D01*
X160144834Y-123988501D01*
X160068644Y-124026596D01*
X159763882Y-124026596D01*
X160982930Y-124407548D02*
X160525787Y-124407548D01*
X160754358Y-124407548D02*
X160754358Y-123607548D01*
X160678168Y-123721834D01*
X160601977Y-123798024D01*
X160525787Y-123836120D01*
X161363882Y-124407548D02*
X161516263Y-124407548D01*
X161592453Y-124369453D01*
X161630549Y-124331358D01*
X161706739Y-124217072D01*
X161744834Y-124064691D01*
X161744834Y-123759929D01*
X161706739Y-123683739D01*
X161668644Y-123645644D01*
X161592453Y-123607548D01*
X161440072Y-123607548D01*
X161363882Y-123645644D01*
X161325787Y-123683739D01*
X161287691Y-123759929D01*
X161287691Y-123950405D01*
X161325787Y-124026596D01*
X161363882Y-124064691D01*
X161440072Y-124102786D01*
X161592453Y-124102786D01*
X161668644Y-124064691D01*
X161706739Y-124026596D01*
X161744834Y-123950405D01*
X159763882Y-126947548D02*
X159763882Y-126147548D01*
X160068644Y-126147548D01*
X160144834Y-126185644D01*
X160182930Y-126223739D01*
X160221025Y-126299929D01*
X160221025Y-126414215D01*
X160182930Y-126490405D01*
X160144834Y-126528501D01*
X160068644Y-126566596D01*
X159763882Y-126566596D01*
X160982930Y-126947548D02*
X160525787Y-126947548D01*
X160754358Y-126947548D02*
X160754358Y-126147548D01*
X160678168Y-126261834D01*
X160601977Y-126338024D01*
X160525787Y-126376120D01*
X161440072Y-126490405D02*
X161363882Y-126452310D01*
X161325787Y-126414215D01*
X161287691Y-126338024D01*
X161287691Y-126299929D01*
X161325787Y-126223739D01*
X161363882Y-126185644D01*
X161440072Y-126147548D01*
X161592453Y-126147548D01*
X161668644Y-126185644D01*
X161706739Y-126223739D01*
X161744834Y-126299929D01*
X161744834Y-126338024D01*
X161706739Y-126414215D01*
X161668644Y-126452310D01*
X161592453Y-126490405D01*
X161440072Y-126490405D01*
X161363882Y-126528501D01*
X161325787Y-126566596D01*
X161287691Y-126642786D01*
X161287691Y-126795167D01*
X161325787Y-126871358D01*
X161363882Y-126909453D01*
X161440072Y-126947548D01*
X161592453Y-126947548D01*
X161668644Y-126909453D01*
X161706739Y-126871358D01*
X161744834Y-126795167D01*
X161744834Y-126642786D01*
X161706739Y-126566596D01*
X161668644Y-126528501D01*
X161592453Y-126490405D01*
X159763882Y-129487548D02*
X159763882Y-128687548D01*
X160068644Y-128687548D01*
X160144834Y-128725644D01*
X160182930Y-128763739D01*
X160221025Y-128839929D01*
X160221025Y-128954215D01*
X160182930Y-129030405D01*
X160144834Y-129068501D01*
X160068644Y-129106596D01*
X159763882Y-129106596D01*
X160982930Y-129487548D02*
X160525787Y-129487548D01*
X160754358Y-129487548D02*
X160754358Y-128687548D01*
X160678168Y-128801834D01*
X160601977Y-128878024D01*
X160525787Y-128916120D01*
X161706739Y-128687548D02*
X161325787Y-128687548D01*
X161287691Y-129068501D01*
X161325787Y-129030405D01*
X161401977Y-128992310D01*
X161592453Y-128992310D01*
X161668644Y-129030405D01*
X161706739Y-129068501D01*
X161744834Y-129144691D01*
X161744834Y-129335167D01*
X161706739Y-129411358D01*
X161668644Y-129449453D01*
X161592453Y-129487548D01*
X161401977Y-129487548D01*
X161325787Y-129449453D01*
X161287691Y-129411358D01*
X159763882Y-132027548D02*
X159763882Y-131227548D01*
X160068644Y-131227548D01*
X160144834Y-131265644D01*
X160182930Y-131303739D01*
X160221025Y-131379929D01*
X160221025Y-131494215D01*
X160182930Y-131570405D01*
X160144834Y-131608501D01*
X160068644Y-131646596D01*
X159763882Y-131646596D01*
X160982930Y-132027548D02*
X160525787Y-132027548D01*
X160754358Y-132027548D02*
X160754358Y-131227548D01*
X160678168Y-131341834D01*
X160601977Y-131418024D01*
X160525787Y-131456120D01*
X161668644Y-131494215D02*
X161668644Y-132027548D01*
X161478168Y-131189453D02*
X161287691Y-131760882D01*
X161782930Y-131760882D01*
X159763882Y-134567548D02*
X159763882Y-133767548D01*
X160068644Y-133767548D01*
X160144834Y-133805644D01*
X160182930Y-133843739D01*
X160221025Y-133919929D01*
X160221025Y-134034215D01*
X160182930Y-134110405D01*
X160144834Y-134148501D01*
X160068644Y-134186596D01*
X159763882Y-134186596D01*
X160982930Y-134567548D02*
X160525787Y-134567548D01*
X160754358Y-134567548D02*
X160754358Y-133767548D01*
X160678168Y-133881834D01*
X160601977Y-133958024D01*
X160525787Y-133996120D01*
X161668644Y-133767548D02*
X161516263Y-133767548D01*
X161440072Y-133805644D01*
X161401977Y-133843739D01*
X161325787Y-133958024D01*
X161287691Y-134110405D01*
X161287691Y-134415167D01*
X161325787Y-134491358D01*
X161363882Y-134529453D01*
X161440072Y-134567548D01*
X161592453Y-134567548D01*
X161668644Y-134529453D01*
X161706739Y-134491358D01*
X161744834Y-134415167D01*
X161744834Y-134224691D01*
X161706739Y-134148501D01*
X161668644Y-134110405D01*
X161592453Y-134072310D01*
X161440072Y-134072310D01*
X161363882Y-134110405D01*
X161325787Y-134148501D01*
X161287691Y-134224691D01*
X159763882Y-137107548D02*
X159763882Y-136307548D01*
X160068644Y-136307548D01*
X160144834Y-136345644D01*
X160182930Y-136383739D01*
X160221025Y-136459929D01*
X160221025Y-136574215D01*
X160182930Y-136650405D01*
X160144834Y-136688501D01*
X160068644Y-136726596D01*
X159763882Y-136726596D01*
X160982930Y-137107548D02*
X160525787Y-137107548D01*
X160754358Y-137107548D02*
X160754358Y-136307548D01*
X160678168Y-136421834D01*
X160601977Y-136498024D01*
X160525787Y-136536120D01*
X161478168Y-136307548D02*
X161554358Y-136307548D01*
X161630549Y-136345644D01*
X161668644Y-136383739D01*
X161706739Y-136459929D01*
X161744834Y-136612310D01*
X161744834Y-136802786D01*
X161706739Y-136955167D01*
X161668644Y-137031358D01*
X161630549Y-137069453D01*
X161554358Y-137107548D01*
X161478168Y-137107548D01*
X161401977Y-137069453D01*
X161363882Y-137031358D01*
X161325787Y-136955167D01*
X161287691Y-136802786D01*
X161287691Y-136612310D01*
X161325787Y-136459929D01*
X161363882Y-136383739D01*
X161401977Y-136345644D01*
X161478168Y-136307548D01*
X169363882Y-109167548D02*
X169363882Y-108367548D01*
X169668644Y-108367548D01*
X169744834Y-108405644D01*
X169782930Y-108443739D01*
X169821025Y-108519929D01*
X169821025Y-108634215D01*
X169782930Y-108710405D01*
X169744834Y-108748501D01*
X169668644Y-108786596D01*
X169363882Y-108786596D01*
X170316263Y-108367548D02*
X170392453Y-108367548D01*
X170468644Y-108405644D01*
X170506739Y-108443739D01*
X170544834Y-108519929D01*
X170582930Y-108672310D01*
X170582930Y-108862786D01*
X170544834Y-109015167D01*
X170506739Y-109091358D01*
X170468644Y-109129453D01*
X170392453Y-109167548D01*
X170316263Y-109167548D01*
X170240072Y-109129453D01*
X170201977Y-109091358D01*
X170163882Y-109015167D01*
X170125787Y-108862786D01*
X170125787Y-108672310D01*
X170163882Y-108519929D01*
X170201977Y-108443739D01*
X170240072Y-108405644D01*
X170316263Y-108367548D01*
X171344834Y-109167548D02*
X170887691Y-109167548D01*
X171116263Y-109167548D02*
X171116263Y-108367548D01*
X171040072Y-108481834D01*
X170963882Y-108558024D01*
X170887691Y-108596120D01*
X169363882Y-111707548D02*
X169363882Y-110907548D01*
X169668644Y-110907548D01*
X169744834Y-110945644D01*
X169782930Y-110983739D01*
X169821025Y-111059929D01*
X169821025Y-111174215D01*
X169782930Y-111250405D01*
X169744834Y-111288501D01*
X169668644Y-111326596D01*
X169363882Y-111326596D01*
X170316263Y-110907548D02*
X170392453Y-110907548D01*
X170468644Y-110945644D01*
X170506739Y-110983739D01*
X170544834Y-111059929D01*
X170582930Y-111212310D01*
X170582930Y-111402786D01*
X170544834Y-111555167D01*
X170506739Y-111631358D01*
X170468644Y-111669453D01*
X170392453Y-111707548D01*
X170316263Y-111707548D01*
X170240072Y-111669453D01*
X170201977Y-111631358D01*
X170163882Y-111555167D01*
X170125787Y-111402786D01*
X170125787Y-111212310D01*
X170163882Y-111059929D01*
X170201977Y-110983739D01*
X170240072Y-110945644D01*
X170316263Y-110907548D01*
X171078168Y-110907548D02*
X171154358Y-110907548D01*
X171230549Y-110945644D01*
X171268644Y-110983739D01*
X171306739Y-111059929D01*
X171344834Y-111212310D01*
X171344834Y-111402786D01*
X171306739Y-111555167D01*
X171268644Y-111631358D01*
X171230549Y-111669453D01*
X171154358Y-111707548D01*
X171078168Y-111707548D01*
X171001977Y-111669453D01*
X170963882Y-111631358D01*
X170925787Y-111555167D01*
X170887691Y-111402786D01*
X170887691Y-111212310D01*
X170925787Y-111059929D01*
X170963882Y-110983739D01*
X171001977Y-110945644D01*
X171078168Y-110907548D01*
X169725787Y-113485644D02*
X169649596Y-113447548D01*
X169535311Y-113447548D01*
X169421025Y-113485644D01*
X169344834Y-113561834D01*
X169306739Y-113638024D01*
X169268644Y-113790405D01*
X169268644Y-113904691D01*
X169306739Y-114057072D01*
X169344834Y-114133263D01*
X169421025Y-114209453D01*
X169535311Y-114247548D01*
X169611501Y-114247548D01*
X169725787Y-114209453D01*
X169763882Y-114171358D01*
X169763882Y-113904691D01*
X169611501Y-113904691D01*
X170106739Y-114247548D02*
X170106739Y-113447548D01*
X170563882Y-114247548D01*
X170563882Y-113447548D01*
X170944834Y-114247548D02*
X170944834Y-113447548D01*
X171135311Y-113447548D01*
X171249596Y-113485644D01*
X171325787Y-113561834D01*
X171363882Y-113638024D01*
X171401977Y-113790405D01*
X171401977Y-113904691D01*
X171363882Y-114057072D01*
X171325787Y-114133263D01*
X171249596Y-114209453D01*
X171135311Y-114247548D01*
X170944834Y-114247548D01*
X169725787Y-116025644D02*
X169649596Y-115987548D01*
X169535311Y-115987548D01*
X169421025Y-116025644D01*
X169344834Y-116101834D01*
X169306739Y-116178024D01*
X169268644Y-116330405D01*
X169268644Y-116444691D01*
X169306739Y-116597072D01*
X169344834Y-116673263D01*
X169421025Y-116749453D01*
X169535311Y-116787548D01*
X169611501Y-116787548D01*
X169725787Y-116749453D01*
X169763882Y-116711358D01*
X169763882Y-116444691D01*
X169611501Y-116444691D01*
X170106739Y-116787548D02*
X170106739Y-115987548D01*
X170563882Y-116787548D01*
X170563882Y-115987548D01*
X170944834Y-116787548D02*
X170944834Y-115987548D01*
X171135311Y-115987548D01*
X171249596Y-116025644D01*
X171325787Y-116101834D01*
X171363882Y-116178024D01*
X171401977Y-116330405D01*
X171401977Y-116444691D01*
X171363882Y-116597072D01*
X171325787Y-116673263D01*
X171249596Y-116749453D01*
X171135311Y-116787548D01*
X170944834Y-116787548D01*
X169363882Y-119327548D02*
X169363882Y-118527548D01*
X169668644Y-118527548D01*
X169744834Y-118565644D01*
X169782930Y-118603739D01*
X169821025Y-118679929D01*
X169821025Y-118794215D01*
X169782930Y-118870405D01*
X169744834Y-118908501D01*
X169668644Y-118946596D01*
X169363882Y-118946596D01*
X170316263Y-118527548D02*
X170392453Y-118527548D01*
X170468644Y-118565644D01*
X170506739Y-118603739D01*
X170544834Y-118679929D01*
X170582930Y-118832310D01*
X170582930Y-119022786D01*
X170544834Y-119175167D01*
X170506739Y-119251358D01*
X170468644Y-119289453D01*
X170392453Y-119327548D01*
X170316263Y-119327548D01*
X170240072Y-119289453D01*
X170201977Y-119251358D01*
X170163882Y-119175167D01*
X170125787Y-119022786D01*
X170125787Y-118832310D01*
X170163882Y-118679929D01*
X170201977Y-118603739D01*
X170240072Y-118565644D01*
X170316263Y-118527548D01*
X170887691Y-118603739D02*
X170925787Y-118565644D01*
X171001977Y-118527548D01*
X171192453Y-118527548D01*
X171268644Y-118565644D01*
X171306739Y-118603739D01*
X171344834Y-118679929D01*
X171344834Y-118756120D01*
X171306739Y-118870405D01*
X170849596Y-119327548D01*
X171344834Y-119327548D01*
X169363882Y-121867548D02*
X169363882Y-121067548D01*
X169668644Y-121067548D01*
X169744834Y-121105644D01*
X169782930Y-121143739D01*
X169821025Y-121219929D01*
X169821025Y-121334215D01*
X169782930Y-121410405D01*
X169744834Y-121448501D01*
X169668644Y-121486596D01*
X169363882Y-121486596D01*
X170316263Y-121067548D02*
X170392453Y-121067548D01*
X170468644Y-121105644D01*
X170506739Y-121143739D01*
X170544834Y-121219929D01*
X170582930Y-121372310D01*
X170582930Y-121562786D01*
X170544834Y-121715167D01*
X170506739Y-121791358D01*
X170468644Y-121829453D01*
X170392453Y-121867548D01*
X170316263Y-121867548D01*
X170240072Y-121829453D01*
X170201977Y-121791358D01*
X170163882Y-121715167D01*
X170125787Y-121562786D01*
X170125787Y-121372310D01*
X170163882Y-121219929D01*
X170201977Y-121143739D01*
X170240072Y-121105644D01*
X170316263Y-121067548D01*
X170849596Y-121067548D02*
X171344834Y-121067548D01*
X171078168Y-121372310D01*
X171192453Y-121372310D01*
X171268644Y-121410405D01*
X171306739Y-121448501D01*
X171344834Y-121524691D01*
X171344834Y-121715167D01*
X171306739Y-121791358D01*
X171268644Y-121829453D01*
X171192453Y-121867548D01*
X170963882Y-121867548D01*
X170887691Y-121829453D01*
X170849596Y-121791358D01*
X169363882Y-124407548D02*
X169363882Y-123607548D01*
X169668644Y-123607548D01*
X169744834Y-123645644D01*
X169782930Y-123683739D01*
X169821025Y-123759929D01*
X169821025Y-123874215D01*
X169782930Y-123950405D01*
X169744834Y-123988501D01*
X169668644Y-124026596D01*
X169363882Y-124026596D01*
X170316263Y-123607548D02*
X170392453Y-123607548D01*
X170468644Y-123645644D01*
X170506739Y-123683739D01*
X170544834Y-123759929D01*
X170582930Y-123912310D01*
X170582930Y-124102786D01*
X170544834Y-124255167D01*
X170506739Y-124331358D01*
X170468644Y-124369453D01*
X170392453Y-124407548D01*
X170316263Y-124407548D01*
X170240072Y-124369453D01*
X170201977Y-124331358D01*
X170163882Y-124255167D01*
X170125787Y-124102786D01*
X170125787Y-123912310D01*
X170163882Y-123759929D01*
X170201977Y-123683739D01*
X170240072Y-123645644D01*
X170316263Y-123607548D01*
X171268644Y-123874215D02*
X171268644Y-124407548D01*
X171078168Y-123569453D02*
X170887691Y-124140882D01*
X171382930Y-124140882D01*
X169363882Y-126947548D02*
X169363882Y-126147548D01*
X169668644Y-126147548D01*
X169744834Y-126185644D01*
X169782930Y-126223739D01*
X169821025Y-126299929D01*
X169821025Y-126414215D01*
X169782930Y-126490405D01*
X169744834Y-126528501D01*
X169668644Y-126566596D01*
X169363882Y-126566596D01*
X170316263Y-126147548D02*
X170392453Y-126147548D01*
X170468644Y-126185644D01*
X170506739Y-126223739D01*
X170544834Y-126299929D01*
X170582930Y-126452310D01*
X170582930Y-126642786D01*
X170544834Y-126795167D01*
X170506739Y-126871358D01*
X170468644Y-126909453D01*
X170392453Y-126947548D01*
X170316263Y-126947548D01*
X170240072Y-126909453D01*
X170201977Y-126871358D01*
X170163882Y-126795167D01*
X170125787Y-126642786D01*
X170125787Y-126452310D01*
X170163882Y-126299929D01*
X170201977Y-126223739D01*
X170240072Y-126185644D01*
X170316263Y-126147548D01*
X171306739Y-126147548D02*
X170925787Y-126147548D01*
X170887691Y-126528501D01*
X170925787Y-126490405D01*
X171001977Y-126452310D01*
X171192453Y-126452310D01*
X171268644Y-126490405D01*
X171306739Y-126528501D01*
X171344834Y-126604691D01*
X171344834Y-126795167D01*
X171306739Y-126871358D01*
X171268644Y-126909453D01*
X171192453Y-126947548D01*
X171001977Y-126947548D01*
X170925787Y-126909453D01*
X170887691Y-126871358D01*
X169363882Y-129487548D02*
X169363882Y-128687548D01*
X169668644Y-128687548D01*
X169744834Y-128725644D01*
X169782930Y-128763739D01*
X169821025Y-128839929D01*
X169821025Y-128954215D01*
X169782930Y-129030405D01*
X169744834Y-129068501D01*
X169668644Y-129106596D01*
X169363882Y-129106596D01*
X170316263Y-128687548D02*
X170392453Y-128687548D01*
X170468644Y-128725644D01*
X170506739Y-128763739D01*
X170544834Y-128839929D01*
X170582930Y-128992310D01*
X170582930Y-129182786D01*
X170544834Y-129335167D01*
X170506739Y-129411358D01*
X170468644Y-129449453D01*
X170392453Y-129487548D01*
X170316263Y-129487548D01*
X170240072Y-129449453D01*
X170201977Y-129411358D01*
X170163882Y-129335167D01*
X170125787Y-129182786D01*
X170125787Y-128992310D01*
X170163882Y-128839929D01*
X170201977Y-128763739D01*
X170240072Y-128725644D01*
X170316263Y-128687548D01*
X171268644Y-128687548D02*
X171116263Y-128687548D01*
X171040072Y-128725644D01*
X171001977Y-128763739D01*
X170925787Y-128878024D01*
X170887691Y-129030405D01*
X170887691Y-129335167D01*
X170925787Y-129411358D01*
X170963882Y-129449453D01*
X171040072Y-129487548D01*
X171192453Y-129487548D01*
X171268644Y-129449453D01*
X171306739Y-129411358D01*
X171344834Y-129335167D01*
X171344834Y-129144691D01*
X171306739Y-129068501D01*
X171268644Y-129030405D01*
X171192453Y-128992310D01*
X171040072Y-128992310D01*
X170963882Y-129030405D01*
X170925787Y-129068501D01*
X170887691Y-129144691D01*
X169363882Y-132027548D02*
X169363882Y-131227548D01*
X169668644Y-131227548D01*
X169744834Y-131265644D01*
X169782930Y-131303739D01*
X169821025Y-131379929D01*
X169821025Y-131494215D01*
X169782930Y-131570405D01*
X169744834Y-131608501D01*
X169668644Y-131646596D01*
X169363882Y-131646596D01*
X170316263Y-131227548D02*
X170392453Y-131227548D01*
X170468644Y-131265644D01*
X170506739Y-131303739D01*
X170544834Y-131379929D01*
X170582930Y-131532310D01*
X170582930Y-131722786D01*
X170544834Y-131875167D01*
X170506739Y-131951358D01*
X170468644Y-131989453D01*
X170392453Y-132027548D01*
X170316263Y-132027548D01*
X170240072Y-131989453D01*
X170201977Y-131951358D01*
X170163882Y-131875167D01*
X170125787Y-131722786D01*
X170125787Y-131532310D01*
X170163882Y-131379929D01*
X170201977Y-131303739D01*
X170240072Y-131265644D01*
X170316263Y-131227548D01*
X170849596Y-131227548D02*
X171382930Y-131227548D01*
X171040072Y-132027548D01*
X169363882Y-134567548D02*
X169363882Y-133767548D01*
X169668644Y-133767548D01*
X169744834Y-133805644D01*
X169782930Y-133843739D01*
X169821025Y-133919929D01*
X169821025Y-134034215D01*
X169782930Y-134110405D01*
X169744834Y-134148501D01*
X169668644Y-134186596D01*
X169363882Y-134186596D01*
X170316263Y-133767548D02*
X170392453Y-133767548D01*
X170468644Y-133805644D01*
X170506739Y-133843739D01*
X170544834Y-133919929D01*
X170582930Y-134072310D01*
X170582930Y-134262786D01*
X170544834Y-134415167D01*
X170506739Y-134491358D01*
X170468644Y-134529453D01*
X170392453Y-134567548D01*
X170316263Y-134567548D01*
X170240072Y-134529453D01*
X170201977Y-134491358D01*
X170163882Y-134415167D01*
X170125787Y-134262786D01*
X170125787Y-134072310D01*
X170163882Y-133919929D01*
X170201977Y-133843739D01*
X170240072Y-133805644D01*
X170316263Y-133767548D01*
X171040072Y-134110405D02*
X170963882Y-134072310D01*
X170925787Y-134034215D01*
X170887691Y-133958024D01*
X170887691Y-133919929D01*
X170925787Y-133843739D01*
X170963882Y-133805644D01*
X171040072Y-133767548D01*
X171192453Y-133767548D01*
X171268644Y-133805644D01*
X171306739Y-133843739D01*
X171344834Y-133919929D01*
X171344834Y-133958024D01*
X171306739Y-134034215D01*
X171268644Y-134072310D01*
X171192453Y-134110405D01*
X171040072Y-134110405D01*
X170963882Y-134148501D01*
X170925787Y-134186596D01*
X170887691Y-134262786D01*
X170887691Y-134415167D01*
X170925787Y-134491358D01*
X170963882Y-134529453D01*
X171040072Y-134567548D01*
X171192453Y-134567548D01*
X171268644Y-134529453D01*
X171306739Y-134491358D01*
X171344834Y-134415167D01*
X171344834Y-134262786D01*
X171306739Y-134186596D01*
X171268644Y-134148501D01*
X171192453Y-134110405D01*
X169363882Y-137107548D02*
X169363882Y-136307548D01*
X169668644Y-136307548D01*
X169744834Y-136345644D01*
X169782930Y-136383739D01*
X169821025Y-136459929D01*
X169821025Y-136574215D01*
X169782930Y-136650405D01*
X169744834Y-136688501D01*
X169668644Y-136726596D01*
X169363882Y-136726596D01*
X170316263Y-136307548D02*
X170392453Y-136307548D01*
X170468644Y-136345644D01*
X170506739Y-136383739D01*
X170544834Y-136459929D01*
X170582930Y-136612310D01*
X170582930Y-136802786D01*
X170544834Y-136955167D01*
X170506739Y-137031358D01*
X170468644Y-137069453D01*
X170392453Y-137107548D01*
X170316263Y-137107548D01*
X170240072Y-137069453D01*
X170201977Y-137031358D01*
X170163882Y-136955167D01*
X170125787Y-136802786D01*
X170125787Y-136612310D01*
X170163882Y-136459929D01*
X170201977Y-136383739D01*
X170240072Y-136345644D01*
X170316263Y-136307548D01*
X170963882Y-137107548D02*
X171116263Y-137107548D01*
X171192453Y-137069453D01*
X171230549Y-137031358D01*
X171306739Y-136917072D01*
X171344834Y-136764691D01*
X171344834Y-136459929D01*
X171306739Y-136383739D01*
X171268644Y-136345644D01*
X171192453Y-136307548D01*
X171040072Y-136307548D01*
X170963882Y-136345644D01*
X170925787Y-136383739D01*
X170887691Y-136459929D01*
X170887691Y-136650405D01*
X170925787Y-136726596D01*
X170963882Y-136764691D01*
X171040072Y-136802786D01*
X171192453Y-136802786D01*
X171268644Y-136764691D01*
X171306739Y-136726596D01*
X171344834Y-136650405D01*
%TO.C,_1*%
%TO.C,_2*%
%TO.C,_3*%
%TO.C,_4*%
%TO.C,_5*%
%TO.C,_6*%
%TO.C,_7*%
%TO.C,_8*%
%TO.C,_9*%
D11*
%TO.C,D1*%
X47688637Y-138991693D02*
X48171600Y-139121102D01*
X47585110Y-139378063D02*
X47109082Y-138836401D01*
X47792165Y-138605322D02*
X47585110Y-139378063D01*
X47109082Y-138836401D02*
X47792165Y-138605322D01*
X47109082Y-138836401D02*
X46966731Y-139367661D01*
X47109082Y-138836401D02*
X47251432Y-138305142D01*
X46722712Y-138732874D02*
X47109082Y-138836401D01*
%TO.C,D2*%
X52606205Y-120639107D02*
X53089168Y-120768516D01*
X52502678Y-121025477D02*
X52026650Y-120483815D01*
X52709733Y-120252736D02*
X52502678Y-121025477D01*
X52026650Y-120483815D02*
X52709733Y-120252736D01*
X52026650Y-120483815D02*
X51884299Y-121015075D01*
X52026650Y-120483815D02*
X52169000Y-119952556D01*
X51640280Y-120380288D02*
X52026650Y-120483815D01*
%TO.C,D3*%
X57523762Y-102286520D02*
X58006725Y-102415929D01*
X57420235Y-102672890D02*
X56944207Y-102131228D01*
X57627290Y-101900149D02*
X57420235Y-102672890D01*
X56944207Y-102131228D02*
X57627290Y-101900149D01*
X56944207Y-102131228D02*
X56801856Y-102662488D01*
X56944207Y-102131228D02*
X57086557Y-101599969D01*
X56557837Y-102027701D02*
X56944207Y-102131228D01*
%TO.C,D4*%
X70508163Y-131772763D02*
X70978009Y-131943773D01*
X70371355Y-132148640D02*
X69944348Y-131567551D01*
X70644971Y-131396886D02*
X70371355Y-132148640D01*
X69944348Y-131567551D02*
X70644971Y-131396886D01*
X69944348Y-131567551D02*
X69756237Y-132084382D01*
X69944348Y-131567551D02*
X70132459Y-131050720D01*
X69568471Y-131430743D02*
X69944348Y-131567551D01*
%TO.C,D5*%
X77006540Y-113918610D02*
X77476386Y-114089620D01*
X76869732Y-114294487D02*
X76442725Y-113713398D01*
X77143348Y-113542733D02*
X76869732Y-114294487D01*
X76442725Y-113713398D02*
X77143348Y-113542733D01*
X76442725Y-113713398D02*
X76254614Y-114230229D01*
X76442725Y-113713398D02*
X76630836Y-113196567D01*
X76066848Y-113576590D02*
X76442725Y-113713398D01*
%TO.C,D6*%
X83504929Y-96064445D02*
X83974775Y-96235455D01*
X83368121Y-96440322D02*
X82941114Y-95859233D01*
X83641737Y-95688568D02*
X83368121Y-96440322D01*
X82941114Y-95859233D02*
X83641737Y-95688568D01*
X82941114Y-95859233D02*
X82753003Y-96376064D01*
X82941114Y-95859233D02*
X83129225Y-95342402D01*
X82565237Y-95722425D02*
X82941114Y-95859233D01*
%TO.C,D7*%
X91098477Y-130753611D02*
X91568323Y-130924621D01*
X90961669Y-131129488D02*
X90534662Y-130548399D01*
X91235285Y-130377734D02*
X90961669Y-131129488D01*
X90534662Y-130548399D02*
X91235285Y-130377734D01*
X90534662Y-130548399D02*
X90346551Y-131065230D01*
X90534662Y-130548399D02*
X90722773Y-130031568D01*
X90158785Y-130411591D02*
X90534662Y-130548399D01*
%TO.C,D8*%
X97596861Y-112899441D02*
X98066707Y-113070451D01*
X97460053Y-113275318D02*
X97033046Y-112694229D01*
X97733669Y-112523564D02*
X97460053Y-113275318D01*
X97033046Y-112694229D02*
X97733669Y-112523564D01*
X97033046Y-112694229D02*
X96844935Y-113211060D01*
X97033046Y-112694229D02*
X97221157Y-112177398D01*
X96657169Y-112557421D02*
X97033046Y-112694229D01*
%TO.C,D9*%
X104095247Y-95045296D02*
X104565093Y-95216306D01*
X103958439Y-95421173D02*
X103531432Y-94840084D01*
X104232055Y-94669419D02*
X103958439Y-95421173D01*
X103531432Y-94840084D02*
X104232055Y-94669419D01*
X103531432Y-94840084D02*
X103343321Y-95356915D01*
X103531432Y-94840084D02*
X103719543Y-94323253D01*
X103155555Y-94703276D02*
X103531432Y-94840084D01*
%TO.C,D10*%
X106900507Y-142890154D02*
X107370353Y-143061164D01*
X106763699Y-143266031D02*
X106336692Y-142684942D01*
X107037315Y-142514277D02*
X106763699Y-143266031D01*
X106336692Y-142684942D02*
X107037315Y-142514277D01*
X106336692Y-142684942D02*
X106148581Y-143201773D01*
X106336692Y-142684942D02*
X106524803Y-142168111D01*
X105960815Y-142548134D02*
X106336692Y-142684942D01*
%TO.C,D11*%
X113398896Y-125035990D02*
X113868742Y-125207000D01*
X113262088Y-125411867D02*
X112835081Y-124830778D01*
X113535704Y-124660113D02*
X113262088Y-125411867D01*
X112835081Y-124830778D02*
X113535704Y-124660113D01*
X112835081Y-124830778D02*
X112646970Y-125347609D01*
X112835081Y-124830778D02*
X113023192Y-124313947D01*
X112459204Y-124693970D02*
X112835081Y-124830778D01*
%TO.C,D12*%
X119897279Y-107181830D02*
X120367125Y-107352840D01*
X119760471Y-107557707D02*
X119333464Y-106976618D01*
X120034087Y-106805953D02*
X119760471Y-107557707D01*
X119333464Y-106976618D02*
X120034087Y-106805953D01*
X119333464Y-106976618D02*
X119145353Y-107493449D01*
X119333464Y-106976618D02*
X119521575Y-106459787D01*
X118957587Y-106839810D02*
X119333464Y-106976618D01*
%TO.C,D13*%
X124070629Y-151267934D02*
X124540475Y-151438944D01*
X123933821Y-151643811D02*
X123506814Y-151062722D01*
X124207437Y-150892057D02*
X123933821Y-151643811D01*
X123506814Y-151062722D02*
X124207437Y-150892057D01*
X123506814Y-151062722D02*
X123318703Y-151579553D01*
X123506814Y-151062722D02*
X123694925Y-150545891D01*
X123130937Y-150925914D02*
X123506814Y-151062722D01*
%TO.C,D14*%
X130569026Y-133413763D02*
X131038872Y-133584773D01*
X130432218Y-133789640D02*
X130005211Y-133208551D01*
X130705834Y-133037886D02*
X130432218Y-133789640D01*
X130005211Y-133208551D02*
X130705834Y-133037886D01*
X130005211Y-133208551D02*
X129817100Y-133725382D01*
X130005211Y-133208551D02*
X130193322Y-132691720D01*
X129629334Y-133071743D02*
X130005211Y-133208551D01*
%TO.C,D15*%
X137067390Y-115559605D02*
X137537236Y-115730615D01*
X136930582Y-115935482D02*
X136503575Y-115354393D01*
X137204198Y-115183728D02*
X136930582Y-115935482D01*
X136503575Y-115354393D02*
X137204198Y-115183728D01*
X136503575Y-115354393D02*
X136315464Y-115871224D01*
X136503575Y-115354393D02*
X136691686Y-114837562D01*
X136127698Y-115217585D02*
X136503575Y-115354393D01*
%TO.C,D16*%
X110994403Y-166727956D02*
X111464249Y-166898966D01*
X110857595Y-167103833D02*
X110430588Y-166522744D01*
X111131211Y-166352079D02*
X110857595Y-167103833D01*
X110430588Y-166522744D02*
X111131211Y-166352079D01*
X110430588Y-166522744D02*
X110242477Y-167039575D01*
X110430588Y-166522744D02*
X110618699Y-166005913D01*
X110054711Y-166385936D02*
X110430588Y-166522744D01*
%TO.C,D17*%
X129320636Y-179891624D02*
X129655201Y-180263197D01*
X129023378Y-180159276D02*
X128919157Y-179445737D01*
X129617894Y-179623972D02*
X129023378Y-180159276D01*
X128919157Y-179445737D02*
X129617894Y-179623972D01*
X128919157Y-179445737D02*
X128510428Y-179813759D01*
X128919157Y-179445737D02*
X129327887Y-179077715D01*
X128651505Y-179148479D02*
X128919157Y-179445737D01*
%TO.C,D18*%
X140282967Y-199606995D02*
X140403928Y-200092143D01*
X139894849Y-199703764D02*
X140137814Y-199024817D01*
X140671086Y-199510226D02*
X139894849Y-199703764D01*
X140137814Y-199024817D02*
X140671086Y-199510226D01*
X140137814Y-199024817D02*
X139604152Y-199157875D01*
X140137814Y-199024817D02*
X140671477Y-198891760D01*
X140041046Y-198636699D02*
X140137814Y-199024817D01*
%TO.C,D19*%
X283864944Y-138862281D02*
X284347907Y-138732872D01*
X283968472Y-139248652D02*
X283285389Y-139017573D01*
X283761417Y-138475911D02*
X283968472Y-139248652D01*
X283285389Y-139017573D02*
X283761417Y-138475911D01*
X283285389Y-139017573D02*
X283427739Y-139548832D01*
X283285389Y-139017573D02*
X283143038Y-138486313D01*
X282899019Y-139121100D02*
X283285389Y-139017573D01*
%TO.C,D20*%
X278947382Y-120509699D02*
X279430345Y-120380290D01*
X279050910Y-120896070D02*
X278367827Y-120664991D01*
X278843855Y-120123329D02*
X279050910Y-120896070D01*
X278367827Y-120664991D02*
X278843855Y-120123329D01*
X278367827Y-120664991D02*
X278510177Y-121196250D01*
X278367827Y-120664991D02*
X278225476Y-120133731D01*
X277981457Y-120768518D02*
X278367827Y-120664991D01*
%TO.C,D21*%
X274029799Y-102157111D02*
X274512762Y-102027702D01*
X274133327Y-102543482D02*
X273450244Y-102312403D01*
X273926272Y-101770741D02*
X274133327Y-102543482D01*
X273450244Y-102312403D02*
X273926272Y-101770741D01*
X273450244Y-102312403D02*
X273592594Y-102843662D01*
X273450244Y-102312403D02*
X273307893Y-101781143D01*
X273063874Y-102415930D02*
X273450244Y-102312403D01*
%TO.C,D22*%
X261032302Y-131601779D02*
X261502148Y-131430769D01*
X261169110Y-131977656D02*
X260468487Y-131806991D01*
X260895494Y-131225902D02*
X261169110Y-131977656D01*
X260468487Y-131806991D02*
X260895494Y-131225902D01*
X260468487Y-131806991D02*
X260656598Y-132323822D01*
X260468487Y-131806991D02*
X260280376Y-131290160D01*
X260092610Y-131943799D02*
X260468487Y-131806991D01*
%TO.C,D23*%
X254533922Y-113747603D02*
X255003768Y-113576593D01*
X254670730Y-114123480D02*
X253970107Y-113952815D01*
X254397114Y-113371726D02*
X254670730Y-114123480D01*
X253970107Y-113952815D02*
X254397114Y-113371726D01*
X253970107Y-113952815D02*
X254158218Y-114469646D01*
X253970107Y-113952815D02*
X253781996Y-113435984D01*
X253594230Y-114089623D02*
X253970107Y-113952815D01*
%TO.C,D24*%
X248035534Y-95893452D02*
X248505380Y-95722442D01*
X248172342Y-96269329D02*
X247471719Y-96098664D01*
X247898726Y-95517575D02*
X248172342Y-96269329D01*
X247471719Y-96098664D02*
X247898726Y-95517575D01*
X247471719Y-96098664D02*
X247659830Y-96615495D01*
X247471719Y-96098664D02*
X247283608Y-95581833D01*
X247095842Y-96235472D02*
X247471719Y-96098664D01*
%TO.C,D25*%
X240441971Y-130582614D02*
X240911817Y-130411604D01*
X240578779Y-130958491D02*
X239878156Y-130787826D01*
X240305163Y-130206737D02*
X240578779Y-130958491D01*
X239878156Y-130787826D02*
X240305163Y-130206737D01*
X239878156Y-130787826D02*
X240066267Y-131304657D01*
X239878156Y-130787826D02*
X239690045Y-130270995D01*
X239502279Y-130924634D02*
X239878156Y-130787826D01*
%TO.C,D26*%
X233943590Y-112728442D02*
X234413436Y-112557432D01*
X234080398Y-113104319D02*
X233379775Y-112933654D01*
X233806782Y-112352565D02*
X234080398Y-113104319D01*
X233379775Y-112933654D02*
X233806782Y-112352565D01*
X233379775Y-112933654D02*
X233567886Y-113450485D01*
X233379775Y-112933654D02*
X233191664Y-112416823D01*
X233003898Y-113070462D02*
X233379775Y-112933654D01*
%TO.C,D27*%
X227445227Y-94874288D02*
X227915073Y-94703278D01*
X227582035Y-95250165D02*
X226881412Y-95079500D01*
X227308419Y-94498411D02*
X227582035Y-95250165D01*
X226881412Y-95079500D02*
X227308419Y-94498411D01*
X226881412Y-95079500D02*
X227069523Y-95596331D01*
X226881412Y-95079500D02*
X226693301Y-94562669D01*
X226505535Y-95216308D02*
X226881412Y-95079500D01*
%TO.C,D28*%
X224639944Y-142719145D02*
X225109790Y-142548135D01*
X224776752Y-143095022D02*
X224076129Y-142924357D01*
X224503136Y-142343268D02*
X224776752Y-143095022D01*
X224076129Y-142924357D02*
X224503136Y-142343268D01*
X224076129Y-142924357D02*
X224264240Y-143441188D01*
X224076129Y-142924357D02*
X223888018Y-142407526D01*
X223700252Y-143061165D02*
X224076129Y-142924357D01*
%TO.C,D29*%
X218141556Y-124864989D02*
X218611402Y-124693979D01*
X218278364Y-125240866D02*
X217577741Y-125070201D01*
X218004748Y-124489112D02*
X218278364Y-125240866D01*
X217577741Y-125070201D02*
X218004748Y-124489112D01*
X217577741Y-125070201D02*
X217765852Y-125587032D01*
X217577741Y-125070201D02*
X217389630Y-124553370D01*
X217201864Y-125207009D02*
X217577741Y-125070201D01*
%TO.C,D30*%
X211643187Y-107010820D02*
X212113033Y-106839810D01*
X211779995Y-107386697D02*
X211079372Y-107216032D01*
X211506379Y-106634943D02*
X211779995Y-107386697D01*
X211079372Y-107216032D02*
X211506379Y-106634943D01*
X211079372Y-107216032D02*
X211267483Y-107732863D01*
X211079372Y-107216032D02*
X210891261Y-106699201D01*
X210703495Y-107352840D02*
X211079372Y-107216032D01*
%TO.C,D31*%
X207469831Y-151096900D02*
X207939677Y-150925890D01*
X207606639Y-151472777D02*
X206906016Y-151302112D01*
X207333023Y-150721023D02*
X207606639Y-151472777D01*
X206906016Y-151302112D02*
X207333023Y-150721023D01*
X206906016Y-151302112D02*
X207094127Y-151818943D01*
X206906016Y-151302112D02*
X206717905Y-150785281D01*
X206530139Y-151438920D02*
X206906016Y-151302112D01*
%TO.C,D32*%
X200971436Y-133242760D02*
X201441282Y-133071750D01*
X201108244Y-133618637D02*
X200407621Y-133447972D01*
X200834628Y-132866883D02*
X201108244Y-133618637D01*
X200407621Y-133447972D02*
X200834628Y-132866883D01*
X200407621Y-133447972D02*
X200595732Y-133964803D01*
X200407621Y-133447972D02*
X200219510Y-132931141D01*
X200031744Y-133584780D02*
X200407621Y-133447972D01*
%TO.C,D33*%
X194473055Y-115388595D02*
X194942901Y-115217585D01*
X194609863Y-115764472D02*
X193909240Y-115593807D01*
X194336247Y-115012718D02*
X194609863Y-115764472D01*
X193909240Y-115593807D02*
X194336247Y-115012718D01*
X193909240Y-115593807D02*
X194097351Y-116110638D01*
X193909240Y-115593807D02*
X193721129Y-115076976D01*
X193533363Y-115730615D02*
X193909240Y-115593807D01*
%TO.C,D34*%
X220546068Y-166556939D02*
X221015914Y-166385929D01*
X220682876Y-166932816D02*
X219982253Y-166762151D01*
X220409260Y-166181062D02*
X220682876Y-166932816D01*
X219982253Y-166762151D02*
X220409260Y-166181062D01*
X219982253Y-166762151D02*
X220170364Y-167278982D01*
X219982253Y-166762151D02*
X219794142Y-166245320D01*
X219606376Y-166898959D02*
X219982253Y-166762151D01*
%TO.C,D35*%
X202084553Y-179520043D02*
X202419118Y-179148470D01*
X202381811Y-179787695D02*
X201683074Y-179965930D01*
X201787295Y-179252391D02*
X202381811Y-179787695D01*
X201683074Y-179965930D02*
X201787295Y-179252391D01*
X201683074Y-179965930D02*
X202091804Y-180333952D01*
X201683074Y-179965930D02*
X201274345Y-179597908D01*
X201415422Y-180263188D02*
X201683074Y-179965930D01*
%TO.C,D36*%
X190908612Y-199121853D02*
X191029573Y-198636705D01*
X191296731Y-199218622D02*
X190763459Y-199704031D01*
X190520494Y-199025084D02*
X191296731Y-199218622D01*
X190763459Y-199704031D02*
X190520494Y-199025084D01*
X190763459Y-199704031D02*
X191297122Y-199837088D01*
X190763459Y-199704031D02*
X190229797Y-199570973D01*
X190666691Y-200092149D02*
X190763459Y-199704031D01*
D10*
%TO.C,MCU1*%
X156645311Y-104995644D02*
X156645311Y-138015644D01*
X156645311Y-138015644D02*
X174425311Y-138015644D01*
X174425311Y-138015644D02*
X174425311Y-104995644D01*
X174425311Y-104995644D02*
X156645311Y-104995644D01*
X159185311Y-107535644D02*
X159185311Y-110075644D01*
X159185311Y-107535644D02*
X156645311Y-107535644D01*
X159185311Y-110075644D02*
X156645311Y-110075644D01*
%TD*%
D12*
%TO.C,MCU1*%
X157915311Y-108805644D03*
D13*
X157915311Y-111345644D03*
X157915311Y-113885644D03*
X157915311Y-116425644D03*
X157915311Y-118965644D03*
X157915311Y-121505644D03*
X157915311Y-124045644D03*
X157915311Y-126585644D03*
X157915311Y-129125644D03*
X157915311Y-131665644D03*
X157915311Y-134205644D03*
X157915311Y-136745644D03*
X173155311Y-108805644D03*
X173155311Y-111345644D03*
X173155311Y-113885644D03*
X173155311Y-116425644D03*
X173155311Y-118965644D03*
X173155311Y-121505644D03*
X173155311Y-124045644D03*
X173155311Y-126585644D03*
X173155311Y-129125644D03*
X173155311Y-131665644D03*
X173155311Y-134205644D03*
X173155311Y-136745644D03*
%TD*%
M02*
