%TF.GenerationSoftware,KiCad,Pcbnew,(6.0.10)*%
%TF.CreationDate,2024-09-29T17:33:22+02:00*%
%TF.ProjectId,blavinge,626c6176-696e-4676-952e-6b696361645f,v1.0.0*%
%TF.SameCoordinates,Original*%
%TF.FileFunction,Soldermask,Top*%
%TF.FilePolarity,Negative*%
%FSLAX46Y46*%
G04 Gerber Fmt 4.6, Leading zero omitted, Abs format (unit mm)*
G04 Created by KiCad (PCBNEW (6.0.10)) date 2024-09-29 17:33:22*
%MOMM*%
%LPD*%
G01*
G04 APERTURE LIST*
G04 Aperture macros list*
%AMRoundRect*
0 Rectangle with rounded corners*
0 $1 Rounding radius*
0 $2 $3 $4 $5 $6 $7 $8 $9 X,Y pos of 4 corners*
0 Add a 4 corners polygon primitive as box body*
4,1,4,$2,$3,$4,$5,$6,$7,$8,$9,$2,$3,0*
0 Add four circle primitives for the rounded corners*
1,1,$1+$1,$2,$3*
1,1,$1+$1,$4,$5*
1,1,$1+$1,$6,$7*
1,1,$1+$1,$8,$9*
0 Add four rect primitives between the rounded corners*
20,1,$1+$1,$2,$3,$4,$5,0*
20,1,$1+$1,$4,$5,$6,$7,0*
20,1,$1+$1,$6,$7,$8,$9,0*
20,1,$1+$1,$8,$9,$2,$3,0*%
G04 Aperture macros list end*
%ADD10C,4.087800*%
%ADD11C,1.801800*%
%ADD12C,3.100000*%
%ADD13RoundRect,0.050000X-0.589958X-0.463087X0.279375X-0.696024X0.589958X0.463087X-0.279375X0.696024X0*%
%ADD14RoundRect,0.050000X-1.088798X-0.628618X0.628618X-1.088798X1.088798X0.628618X-0.628618X1.088798X0*%
%ADD15C,2.005000*%
%ADD16RoundRect,0.050000X-0.628074X-0.409907X0.217650X-0.717725X0.628074X0.409907X-0.217650X0.717725X0*%
%ADD17RoundRect,0.050000X-1.139443X-0.531331X0.531331X-1.139443X1.139443X0.531331X-0.531331X1.139443X0*%
%ADD18RoundRect,0.050000X-0.746996X-0.067063X-0.144778X-0.735894X0.746996X0.067063X0.144778X0.735894X0*%
%ADD19RoundRect,0.050000X-1.255513X0.065799X-0.065799X-1.255513X1.255513X-0.065799X0.065799X1.255513X0*%
%ADD20RoundRect,0.050000X-0.691042X0.291480X-0.473313X-0.581786X0.691042X-0.291480X0.473313X0.581786X0*%
%ADD21RoundRect,0.050000X-1.077661X0.647524X-0.647524X-1.077661X1.077661X-0.647524X0.647524X1.077661X0*%
%ADD22RoundRect,0.050000X-0.279375X-0.696024X0.589958X-0.463087X0.279375X0.696024X-0.589958X0.463087X0*%
%ADD23RoundRect,0.050000X-0.628618X-1.088798X1.088798X-0.628618X0.628618X1.088798X-1.088798X0.628618X0*%
%ADD24RoundRect,0.050000X-0.217650X-0.717725X0.628074X-0.409907X0.217650X0.717725X-0.628074X0.409907X0*%
%ADD25RoundRect,0.050000X-0.531331X-1.139443X1.139443X-0.531331X0.531331X1.139443X-1.139443X0.531331X0*%
%ADD26RoundRect,0.050000X0.144778X-0.735894X0.746996X-0.067063X-0.144778X0.735894X-0.746996X0.067063X0*%
%ADD27RoundRect,0.050000X0.065799X-1.255513X1.255513X0.065799X-0.065799X1.255513X-1.255513X-0.065799X0*%
%ADD28RoundRect,0.050000X0.473313X-0.581786X0.691042X0.291480X-0.473313X0.581786X-0.691042X-0.291480X0*%
%ADD29RoundRect,0.050000X0.647524X-1.077661X1.077661X0.647524X-0.647524X1.077661X-1.077661X-0.647524X0*%
%ADD30RoundRect,0.050000X-0.876300X0.876300X-0.876300X-0.876300X0.876300X-0.876300X0.876300X0.876300X0*%
%ADD31C,1.852600*%
%ADD32C,0.800000*%
%ADD33C,4.500000*%
G04 APERTURE END LIST*
D10*
%TO.C,S1*%
X48741270Y-134097372D03*
D11*
X53648173Y-135412173D03*
X43834367Y-132782571D03*
D12*
X52509522Y-129847869D03*
X45718493Y-130657820D03*
%TD*%
D10*
%TO.C,S2*%
X53658809Y-115744765D03*
D11*
X58565712Y-117059566D03*
X48751906Y-114429964D03*
D12*
X57427061Y-111495262D03*
X50636032Y-112305213D03*
%TD*%
D10*
%TO.C,S3*%
X58576364Y-97392180D03*
D11*
X63483267Y-98706981D03*
X53669461Y-96077379D03*
D12*
X62344616Y-93142677D03*
X55553587Y-93952628D03*
%TD*%
D10*
%TO.C,S4*%
X71983329Y-126988809D03*
D11*
X76756968Y-128726271D03*
X67209690Y-125251347D03*
D12*
X76107611Y-123083902D03*
X69271831Y-123298893D03*
%TD*%
D10*
%TO.C,S5*%
X78481719Y-109134644D03*
D11*
X83255358Y-110872106D03*
X73708080Y-107397182D03*
D12*
X82606001Y-105229737D03*
X75770221Y-105444728D03*
%TD*%
D10*
%TO.C,S6*%
X84980095Y-91280470D03*
D11*
X89753734Y-93017932D03*
X80206456Y-89543008D03*
D12*
X89104377Y-87375563D03*
X82268597Y-87590554D03*
%TD*%
D10*
%TO.C,S7*%
X92573653Y-125969658D03*
D11*
X97347292Y-127707120D03*
X87800014Y-124232196D03*
D12*
X96697935Y-122064751D03*
X89862155Y-122279742D03*
%TD*%
D10*
%TO.C,S8*%
X99072049Y-108115492D03*
D11*
X103845688Y-109852954D03*
X94298410Y-106378030D03*
D12*
X103196331Y-104210585D03*
X96360551Y-104425576D03*
%TD*%
D10*
%TO.C,S9*%
X105570427Y-90261335D03*
D11*
X110344066Y-91998797D03*
X100796788Y-88523873D03*
D12*
X109694709Y-86356428D03*
X102858929Y-86571419D03*
%TD*%
D10*
%TO.C,S10*%
X108375701Y-138106199D03*
D11*
X113149340Y-139843661D03*
X103602062Y-136368737D03*
D12*
X112499983Y-134201292D03*
X105664203Y-134416283D03*
%TD*%
D10*
%TO.C,S11*%
X114874088Y-120252030D03*
D11*
X119647727Y-121989492D03*
X110100449Y-118514568D03*
D12*
X118998370Y-116347123D03*
X112162590Y-116562114D03*
%TD*%
D10*
%TO.C,S12*%
X121372464Y-102397868D03*
D11*
X126146103Y-104135330D03*
X116598825Y-100660406D03*
D12*
X125496746Y-98492961D03*
X118660966Y-98707952D03*
%TD*%
D10*
%TO.C,S13*%
X125545820Y-146483964D03*
D11*
X130319459Y-148221426D03*
X120772181Y-144746502D03*
D12*
X129670102Y-142579057D03*
X122834322Y-142794048D03*
%TD*%
D10*
%TO.C,S14*%
X132044203Y-128629801D03*
D11*
X136817842Y-130367263D03*
X127270564Y-126892339D03*
D12*
X136168485Y-124724894D03*
X129332705Y-124939885D03*
%TD*%
D10*
%TO.C,S15*%
X138542578Y-110775636D03*
D11*
X143316217Y-112513098D03*
X133768939Y-109038174D03*
D12*
X142666860Y-106870729D03*
X135831080Y-107085720D03*
%TD*%
D10*
%TO.C,S16*%
X112469593Y-161943995D03*
D11*
X117243232Y-163681457D03*
X107695954Y-160206533D03*
D12*
X116593875Y-158039088D03*
X109758095Y-158254079D03*
%TD*%
D10*
%TO.C,S17*%
X132869069Y-176360185D03*
D11*
X136268252Y-180135361D03*
X129469886Y-172585009D03*
D12*
X138343836Y-174848589D03*
X132207269Y-171829211D03*
%TD*%
%TO.C,S18*%
X146616799Y-193843509D03*
X150617554Y-199390405D03*
D11*
X143845007Y-193225715D03*
X146302933Y-203083919D03*
D10*
X145073970Y-198154817D03*
%TD*%
%TO.C,S19*%
X282329360Y-134097359D03*
D11*
X287236263Y-132782558D03*
X277422457Y-135412160D03*
D12*
X283468011Y-128533055D03*
X277991782Y-132630008D03*
%TD*%
D10*
%TO.C,S20*%
X277411791Y-115744788D03*
D11*
X282318694Y-114429987D03*
X272504888Y-117059589D03*
D12*
X278550442Y-110180484D03*
X273074213Y-114277437D03*
%TD*%
D10*
%TO.C,S21*%
X272494210Y-97392191D03*
D11*
X277401113Y-96077390D03*
X267587307Y-98706992D03*
D12*
X273632861Y-91827887D03*
X268156632Y-95924840D03*
%TD*%
D10*
%TO.C,S22*%
X259087286Y-126988812D03*
D11*
X263860925Y-125251350D03*
X254313647Y-128726274D03*
D12*
X259736643Y-121346442D03*
X254638326Y-125905089D03*
%TD*%
D10*
%TO.C,S23*%
X252588903Y-109134652D03*
D11*
X257362542Y-107397190D03*
X247815264Y-110872114D03*
D12*
X253238260Y-103492282D03*
X248139943Y-108050929D03*
%TD*%
D10*
%TO.C,S24*%
X246090510Y-91280494D03*
D11*
X250864149Y-89543032D03*
X241316871Y-93017956D03*
D12*
X246739867Y-85638124D03*
X241641550Y-90196771D03*
%TD*%
D10*
%TO.C,S25*%
X238496960Y-125969665D03*
D11*
X243270599Y-124232203D03*
X233723321Y-127707127D03*
D12*
X239146317Y-120327295D03*
X234048000Y-124885942D03*
%TD*%
D10*
%TO.C,S26*%
X231998579Y-108115493D03*
D11*
X236772218Y-106378031D03*
X227224940Y-109852955D03*
D12*
X232647936Y-102473123D03*
X227549619Y-107031770D03*
%TD*%
D10*
%TO.C,S27*%
X225500189Y-90261338D03*
D11*
X230273828Y-88523876D03*
X220726550Y-91998800D03*
D12*
X226149546Y-84618968D03*
X221051229Y-89177615D03*
%TD*%
D10*
%TO.C,S28*%
X222694934Y-138106188D03*
D11*
X227468573Y-136368726D03*
X217921295Y-139843650D03*
D12*
X223344291Y-132463818D03*
X218245974Y-137022465D03*
%TD*%
D10*
%TO.C,S29*%
X216196548Y-120252019D03*
D11*
X220970187Y-118514557D03*
X211422909Y-121989481D03*
D12*
X216845905Y-114609649D03*
X211747588Y-119168296D03*
%TD*%
D10*
%TO.C,S30*%
X209698160Y-102397874D03*
D11*
X214471799Y-100660412D03*
X204924521Y-104135336D03*
D12*
X210347517Y-96755504D03*
X205249200Y-101314151D03*
%TD*%
D10*
%TO.C,S31*%
X205524794Y-146483957D03*
D11*
X210298433Y-144746495D03*
X200751155Y-148221419D03*
D12*
X206174151Y-140841587D03*
X201075834Y-145400234D03*
%TD*%
D10*
%TO.C,S32*%
X199026424Y-128629794D03*
D11*
X203800063Y-126892332D03*
X194252785Y-130367256D03*
D12*
X199675781Y-122987424D03*
X194577464Y-127546071D03*
%TD*%
D10*
%TO.C,S33*%
X192528027Y-110775626D03*
D11*
X197301666Y-109038164D03*
X187754388Y-112513088D03*
D12*
X193177384Y-105133256D03*
X188079067Y-109691903D03*
%TD*%
D10*
%TO.C,S34*%
X218601026Y-161943980D03*
D11*
X223374665Y-160206518D03*
X213827387Y-163681442D03*
D12*
X219250383Y-156301610D03*
X214152066Y-160860257D03*
%TD*%
D10*
%TO.C,S35*%
X198201554Y-176360184D03*
D11*
X201600737Y-172585008D03*
X194802371Y-180135360D03*
D12*
X196125970Y-171073413D03*
X193764579Y-177491974D03*
%TD*%
D10*
%TO.C,S36*%
X185996652Y-198154817D03*
D11*
X187225615Y-193225715D03*
X184767689Y-203083919D03*
D12*
X181682031Y-194461303D03*
X182610378Y-201237162D03*
%TD*%
D13*
%TO.C,D1*%
X45853378Y-138499937D03*
X49040934Y-139354039D03*
D14*
X43766979Y-137940887D03*
D15*
X51127333Y-139913089D03*
%TD*%
D13*
%TO.C,D2*%
X50770946Y-120147351D03*
X53958502Y-121001453D03*
D14*
X48684547Y-119588301D03*
D15*
X56044901Y-121560503D03*
%TD*%
D13*
%TO.C,D3*%
X55688503Y-101794764D03*
X58876059Y-102648866D03*
D14*
X53602104Y-101235714D03*
D15*
X60962458Y-103207916D03*
%TD*%
D16*
%TO.C,D4*%
X68722747Y-131122925D03*
X71823733Y-132251591D03*
D17*
X66693011Y-130384161D03*
D15*
X73853469Y-132990355D03*
%TD*%
D16*
%TO.C,D5*%
X75221124Y-113268772D03*
X78322110Y-114397438D03*
D17*
X73191388Y-112530008D03*
D15*
X80351846Y-115136202D03*
%TD*%
D16*
%TO.C,D6*%
X81719513Y-95414607D03*
X84820499Y-96543273D03*
D17*
X79689777Y-94675843D03*
D15*
X86850235Y-97282037D03*
%TD*%
D16*
%TO.C,D7*%
X89313061Y-130103773D03*
X92414047Y-131232439D03*
D17*
X87283325Y-129365009D03*
D15*
X94443783Y-131971203D03*
%TD*%
D16*
%TO.C,D8*%
X95811445Y-112249603D03*
X98912431Y-113378269D03*
D17*
X93781709Y-111510839D03*
D15*
X100942167Y-114117033D03*
%TD*%
D16*
%TO.C,D9*%
X102309831Y-94395458D03*
X105410817Y-95524124D03*
D17*
X100280095Y-93656694D03*
D15*
X107440553Y-96262888D03*
%TD*%
D16*
%TO.C,D10*%
X105115091Y-142240316D03*
X108216077Y-143368982D03*
D17*
X103085355Y-141501552D03*
D15*
X110245813Y-144107746D03*
%TD*%
D16*
%TO.C,D11*%
X111613480Y-124386152D03*
X114714466Y-125514818D03*
D17*
X109583744Y-123647388D03*
D15*
X116744202Y-126253582D03*
%TD*%
D16*
%TO.C,D12*%
X118111863Y-106531992D03*
X121212849Y-107660658D03*
D17*
X116082127Y-105793228D03*
D15*
X123242585Y-108399422D03*
%TD*%
D16*
%TO.C,D13*%
X122285213Y-150618096D03*
X125386199Y-151746762D03*
D17*
X120255477Y-149879332D03*
D15*
X127415935Y-152485526D03*
%TD*%
D16*
%TO.C,D14*%
X128783610Y-132763925D03*
X131884596Y-133892591D03*
D17*
X126753874Y-132025161D03*
D15*
X133914332Y-134631355D03*
%TD*%
D16*
%TO.C,D15*%
X135281974Y-114909767D03*
X138382960Y-116038433D03*
D17*
X133252238Y-114171003D03*
D15*
X140412696Y-116777197D03*
%TD*%
D16*
%TO.C,D16*%
X109208987Y-166078118D03*
X112309973Y-167206784D03*
D17*
X107179251Y-165339354D03*
D15*
X114339709Y-167945548D03*
%TD*%
D18*
%TO.C,D17*%
X128049287Y-178479649D03*
X130257419Y-180932027D03*
D19*
X126603965Y-176874456D03*
D15*
X131702741Y-182537220D03*
%TD*%
D20*
%TO.C,D18*%
X139823316Y-197763433D03*
X140621658Y-200965409D03*
D21*
X139300765Y-195667594D03*
D15*
X141144209Y-203061248D03*
%TD*%
D22*
%TO.C,D19*%
X282029685Y-139354037D03*
X285217241Y-138499935D03*
D23*
X279943286Y-139913087D03*
D15*
X287303640Y-137940885D03*
%TD*%
D22*
%TO.C,D20*%
X277112123Y-121001455D03*
X280299679Y-120147353D03*
D23*
X275025724Y-121560505D03*
D15*
X282386078Y-119588303D03*
%TD*%
D22*
%TO.C,D21*%
X272194540Y-102648867D03*
X275382096Y-101794765D03*
D23*
X270108141Y-103207917D03*
D15*
X277468495Y-101235715D03*
%TD*%
D24*
%TO.C,D22*%
X259246886Y-132251617D03*
X262347872Y-131122951D03*
D25*
X257217150Y-132990381D03*
D15*
X264377608Y-130384187D03*
%TD*%
D24*
%TO.C,D23*%
X252748506Y-114397441D03*
X255849492Y-113268775D03*
D25*
X250718770Y-115136205D03*
D15*
X257879228Y-112530011D03*
%TD*%
D24*
%TO.C,D24*%
X246250118Y-96543290D03*
X249351104Y-95414624D03*
D25*
X244220382Y-97282054D03*
D15*
X251380840Y-94675860D03*
%TD*%
D24*
%TO.C,D25*%
X238656555Y-131232452D03*
X241757541Y-130103786D03*
D25*
X236626819Y-131971216D03*
D15*
X243787277Y-129365022D03*
%TD*%
D24*
%TO.C,D26*%
X232158174Y-113378280D03*
X235259160Y-112249614D03*
D25*
X230128438Y-114117044D03*
D15*
X237288896Y-111510850D03*
%TD*%
D24*
%TO.C,D27*%
X225659811Y-95524126D03*
X228760797Y-94395460D03*
D25*
X223630075Y-96262890D03*
D15*
X230790533Y-93656696D03*
%TD*%
D24*
%TO.C,D28*%
X222854528Y-143368983D03*
X225955514Y-142240317D03*
D25*
X220824792Y-144107747D03*
D15*
X227985250Y-141501553D03*
%TD*%
D24*
%TO.C,D29*%
X216356140Y-125514827D03*
X219457126Y-124386161D03*
D25*
X214326404Y-126253591D03*
D15*
X221486862Y-123647397D03*
%TD*%
D24*
%TO.C,D30*%
X209857771Y-107660658D03*
X212958757Y-106531992D03*
D25*
X207828035Y-108399422D03*
D15*
X214988493Y-105793228D03*
%TD*%
D24*
%TO.C,D31*%
X205684415Y-151746738D03*
X208785401Y-150618072D03*
D25*
X203654679Y-152485502D03*
D15*
X210815137Y-149879308D03*
%TD*%
D24*
%TO.C,D32*%
X199186020Y-133892598D03*
X202287006Y-132763932D03*
D25*
X197156284Y-134631362D03*
D15*
X204316742Y-132025168D03*
%TD*%
D24*
%TO.C,D33*%
X192687639Y-116038433D03*
X195788625Y-114909767D03*
D25*
X190657903Y-116777197D03*
D15*
X197818361Y-114171003D03*
%TD*%
D24*
%TO.C,D34*%
X218760652Y-167206777D03*
X221861638Y-166078111D03*
D25*
X216730916Y-167945541D03*
D15*
X223891374Y-165339347D03*
%TD*%
D26*
%TO.C,D35*%
X200813204Y-180932018D03*
X203021336Y-178479640D03*
D27*
X199367882Y-182537211D03*
D15*
X204466658Y-176874447D03*
%TD*%
D28*
%TO.C,D36*%
X190448961Y-200965415D03*
X191247303Y-197763439D03*
D29*
X189926410Y-203061254D03*
D15*
X191769854Y-195667600D03*
%TD*%
D30*
%TO.C,MCU1*%
X157915311Y-108805644D03*
D31*
X157915311Y-111345644D03*
X157915311Y-113885644D03*
X157915311Y-116425644D03*
X157915311Y-118965644D03*
X157915311Y-121505644D03*
X157915311Y-124045644D03*
X157915311Y-126585644D03*
X157915311Y-129125644D03*
X157915311Y-131665644D03*
X157915311Y-134205644D03*
X157915311Y-136745644D03*
X173155311Y-108805644D03*
X173155311Y-111345644D03*
X173155311Y-113885644D03*
X173155311Y-116425644D03*
X173155311Y-118965644D03*
X173155311Y-121505644D03*
X173155311Y-124045644D03*
X173155311Y-126585644D03*
X173155311Y-129125644D03*
X173155311Y-131665644D03*
X173155311Y-134205644D03*
X173155311Y-136745644D03*
%TD*%
D32*
%TO.C,_1*%
X73363461Y-90760097D03*
D33*
X72538461Y-89331155D03*
D32*
X72111410Y-90924933D03*
X73967403Y-88506155D03*
X70944683Y-88904104D03*
X71713461Y-87902213D03*
X71109519Y-90156155D03*
X74132239Y-89758206D03*
X72965512Y-87737377D03*
%TD*%
%TO.C,_2*%
X259961085Y-90156161D03*
D33*
X258532143Y-89331161D03*
D32*
X258959194Y-90924939D03*
X259357143Y-87902219D03*
X256938365Y-89758212D03*
X257103201Y-88506161D03*
X257707143Y-90760103D03*
X260125921Y-88904110D03*
X258105092Y-87737383D03*
%TD*%
%TO.C,_3*%
X62413071Y-138968616D03*
D33*
X61588071Y-137539674D03*
D32*
X61161020Y-139133452D03*
X63017013Y-136714674D03*
X59994293Y-137112623D03*
X60763071Y-136110732D03*
X60159129Y-138364674D03*
X63181849Y-137966725D03*
X62015122Y-135945896D03*
%TD*%
%TO.C,_4*%
X270911492Y-138364657D03*
D33*
X269482550Y-137539657D03*
D32*
X269909601Y-139133435D03*
X270307550Y-136110715D03*
X267888772Y-137966708D03*
X268053608Y-136714657D03*
X268657550Y-138968599D03*
X271076328Y-137112606D03*
X269055499Y-135945879D03*
%TD*%
%TO.C,_5*%
X151737802Y-116819905D03*
D33*
X151040482Y-115324497D03*
D32*
X150476149Y-116874990D03*
X152535890Y-114627177D03*
X149489989Y-114760164D03*
X150343162Y-113829089D03*
X149545074Y-116021817D03*
X152590975Y-115888830D03*
X151604815Y-113774004D03*
%TD*%
%TO.C,_6*%
X181525540Y-116021810D03*
D33*
X180030132Y-115324490D03*
D32*
X180594465Y-116874983D03*
X180727452Y-113829082D03*
X178479639Y-115888823D03*
X178534724Y-114627170D03*
X179332812Y-116819898D03*
X181580625Y-114760157D03*
X179465799Y-113773997D03*
%TD*%
%TO.C,_7*%
X138741052Y-152528246D03*
D33*
X138043732Y-151032838D03*
D32*
X137479399Y-152583331D03*
X139539140Y-150335518D03*
X136493239Y-150468505D03*
X137346412Y-149537430D03*
X136548324Y-151730158D03*
X139594225Y-151597171D03*
X138608065Y-149482345D03*
%TD*%
%TO.C,_8*%
X194522296Y-151730138D03*
D33*
X193026888Y-151032818D03*
D32*
X193591221Y-152583311D03*
X193724208Y-149537410D03*
X191476395Y-151597151D03*
X191531480Y-150335498D03*
X192329568Y-152528226D03*
X194577381Y-150468485D03*
X192462555Y-149482325D03*
%TD*%
%TO.C,_9*%
X166702034Y-199321539D03*
D33*
X165535308Y-198154813D03*
D32*
X165535308Y-199804813D03*
X166702034Y-196988087D03*
X163885308Y-198154813D03*
X164368582Y-196988087D03*
X164368582Y-199321539D03*
X167185308Y-198154813D03*
X165535308Y-196504813D03*
%TD*%
M02*
