M48
; DRILL file {KiCad (6.0.10)} date Sun Sep 29 17:33:26 2024
; FORMAT={-:-/ absolute / inch / decimal}
; #@! TF.CreationDate,2024-09-29T17:33:26+02:00
; #@! TF.GenerationSoftware,Kicad,Pcbnew,(6.0.10)
; #@! TF.FileFunction,MixedPlating,1,2
FMAT,2
INCH
; #@! TA.AperFunction,Plated,PTH,ViaDrill
T1C0.0157
; #@! TA.AperFunction,Plated,PTH,ComponentDrill
T2C0.0157
; #@! TA.AperFunction,Plated,PTH,ComponentDrill
T3C0.0390
; #@! TA.AperFunction,Plated,PTH,ComponentDrill
T4C0.0430
; #@! TA.AperFunction,Plated,PTH,ComponentDrill
T5C0.0866
; #@! TA.AperFunction,NonPlated,NPTH,ComponentDrill
T6C0.0670
; #@! TA.AperFunction,NonPlated,NPTH,ComponentDrill
T7C0.1181
; #@! TA.AperFunction,NonPlated,NPTH,ComponentDrill
T8C0.1570
%
G90
G05
T1
X5.9606Y-5.0394
X6.0197Y-4.9173
X6.4508Y-4.2351
X6.4863Y-4.2037
X6.5178Y-4.2666
X6.5742Y-4.331
X6.6123Y-4.2981
X7.0748Y-5.147
X7.1084Y-5.2648
T2
X2.362Y-5.3981
X2.3685Y-5.4474
X2.3922Y-5.3587
X2.4079Y-5.4777
X2.4415Y-5.3522
X2.4572Y-5.4712
X2.481Y-5.3825
X2.4875Y-5.4318
X2.7931Y-3.5002
X2.7996Y-3.5495
X2.8234Y-3.4607
X2.839Y-3.5797
X2.8727Y-3.4542
X2.8883Y-3.5732
X2.9121Y-3.4845
X2.9186Y-3.5338
X5.3737Y-5.924
X5.3759Y-5.9736
X5.4073Y-5.8873
X5.4126Y-6.0072
X5.457Y-5.8851
X5.4622Y-6.005
X5.4937Y-5.9187
X5.4958Y-5.9684
X5.8854Y-4.5181
X5.8876Y-4.5678
X5.919Y-4.4815
X5.9243Y-4.6014
X5.9687Y-4.4793
X5.9739Y-4.5992
X6.0053Y-4.5129
X6.0075Y-4.5626
X6.4522Y-7.8014
X6.4712Y-7.7554
X6.4712Y-7.8473
X6.5171Y-7.7364
X6.5171Y-7.8663
X6.5631Y-7.7554
X6.5631Y-7.8473
X6.5821Y-7.8014
X7.0268Y-4.5626
X7.0289Y-4.5129
X7.0603Y-4.5992
X7.0656Y-4.4793
X7.11Y-4.6014
X7.1153Y-4.4815
X7.1467Y-4.5678
X7.1488Y-4.5181
X7.5384Y-5.9684
X7.5406Y-5.9187
X7.572Y-6.005
X7.5773Y-5.8851
X7.6217Y-6.0072
X7.6269Y-5.8873
X7.6584Y-5.9736
X7.6605Y-5.924
X10.1157Y-3.5338
X10.1222Y-3.4845
X10.146Y-3.5732
X10.1616Y-3.4542
X10.1952Y-3.5797
X10.2109Y-3.4607
X10.2347Y-3.5495
X10.2412Y-3.5002
X10.5468Y-5.4318
X10.5533Y-5.3825
X10.5771Y-5.4712
X10.5927Y-5.3522
X10.6264Y-5.4777
X10.642Y-5.3587
X10.6658Y-5.4474
X10.6723Y-5.3981
T3
X1.7231Y-5.4307
X1.9167Y-4.7082
X2.0129Y-5.5084
X2.1103Y-3.9857
X2.2065Y-4.7858
X2.4001Y-4.0633
X2.6257Y-5.1332
X2.8816Y-4.4303
X2.9076Y-5.2358
X3.1374Y-3.7274
X3.1635Y-4.5329
X3.4193Y-3.83
X3.4364Y-5.0931
X3.6922Y-4.3902
X3.7183Y-5.1957
X3.948Y-3.6873
X3.9741Y-4.4928
X4.0585Y-5.5709
X4.2197Y-6.5094
X4.2299Y-3.7899
X4.3143Y-4.868
X4.3404Y-5.6735
X4.5016Y-6.612
X4.5702Y-4.1651
X4.5962Y-4.9706
X4.7345Y-5.9008
X4.8521Y-4.2677
X4.9844Y-6.9636
X4.9903Y-5.1978
X5.0164Y-6.0034
X5.1851Y-7.1865
X5.2462Y-4.4949
X5.2722Y-5.3004
X5.4843Y-7.7034
X5.5281Y-4.5975
X5.5569Y-7.9945
X7.4774Y-7.9945
X7.5062Y-4.5975
X7.55Y-7.7034
X7.7621Y-5.3004
X7.7881Y-4.4949
X7.8491Y-7.1865
X8.0179Y-6.0034
X8.044Y-5.1978
X8.0499Y-6.9636
X8.1822Y-4.2677
X8.2998Y-5.9008
X8.438Y-4.9706
X8.4641Y-4.1651
X8.5327Y-6.612
X8.6939Y-5.6735
X8.72Y-4.868
X8.8043Y-3.7899
X8.8146Y-6.5094
X8.9758Y-5.5709
X9.0602Y-4.4928
X9.0862Y-3.6873
X9.316Y-5.1957
X9.3421Y-4.3902
X9.5979Y-5.0931
X9.615Y-3.83
X9.8708Y-4.5329
X9.8969Y-3.7274
X10.1267Y-5.2358
X10.1527Y-4.4303
X10.4086Y-5.1332
X10.6342Y-4.0633
X10.8278Y-4.7858
X10.924Y-3.9857
X11.0214Y-5.5084
X11.1176Y-4.7082
X11.3112Y-5.4307
T4
X6.2171Y-4.2837
X6.2171Y-4.3837
X6.2171Y-4.4837
X6.2171Y-4.5837
X6.2171Y-4.6837
X6.2171Y-4.7837
X6.2171Y-4.8837
X6.2171Y-4.9837
X6.2171Y-5.0837
X6.2171Y-5.1837
X6.2171Y-5.2837
X6.2171Y-5.3837
X6.8171Y-4.2837
X6.8171Y-4.3837
X6.8171Y-4.4837
X6.8171Y-4.5837
X6.8171Y-4.6837
X6.8171Y-4.7837
X6.8171Y-4.8837
X6.8171Y-4.9837
X6.8171Y-5.0837
X6.8171Y-5.1837
X6.8171Y-5.2837
X6.8171Y-5.3837
T5
X2.4247Y-5.4149
X2.8558Y-3.517
X5.4348Y-5.9462
X5.9465Y-4.5403
X6.5171Y-7.8014
X7.0878Y-4.5403
X7.5995Y-5.9462
X10.1784Y-3.517
X10.6095Y-5.4149
T6
X1.7258Y-5.2277
X1.9194Y-4.5051
X2.1121Y-5.3312
X2.113Y-3.7826
X2.3057Y-4.6086
X2.4993Y-3.8861
X2.6461Y-4.9312
X2.9019Y-4.2282
X3.0219Y-5.068
X3.1577Y-3.5253
X3.2778Y-4.365
X3.4567Y-4.891
X3.5336Y-3.6621
X3.7125Y-4.1881
X3.8326Y-5.0278
X3.9684Y-3.4852
X4.0788Y-5.3688
X4.0884Y-4.3249
X4.24Y-6.3073
X4.3347Y-4.6659
X4.3443Y-3.622
X4.4547Y-5.5057
X4.5905Y-3.963
X4.6159Y-6.4442
X4.7105Y-4.8027
X4.7548Y-5.6987
X4.9664Y-4.0998
X5.0107Y-4.9958
X5.0972Y-6.7947
X5.1307Y-5.8355
X5.2665Y-4.2928
X5.3649Y-7.0919
X5.3865Y-5.1326
X5.6424Y-4.4296
X5.6632Y-7.6073
X5.76Y-7.9954
X7.2743Y-7.9954
X7.3711Y-7.6073
X7.3919Y-4.4296
X7.6477Y-5.1326
X7.6694Y-7.0919
X7.7678Y-4.2928
X7.9036Y-5.8355
X7.937Y-6.7947
X8.0236Y-4.9958
X8.0679Y-4.0998
X8.2795Y-5.6987
X8.3237Y-4.8027
X8.4184Y-6.4442
X8.4438Y-3.963
X8.5796Y-5.5057
X8.69Y-3.622
X8.6996Y-4.6659
X8.7943Y-6.3073
X8.9459Y-4.3249
X8.9555Y-5.3688
X9.0659Y-3.4852
X9.2017Y-5.0278
X9.3217Y-4.1881
X9.5007Y-3.6621
X9.5776Y-4.891
X9.7565Y-4.365
X9.8765Y-3.5253
X10.0123Y-5.068
X10.1324Y-4.2282
X10.3882Y-4.9312
X10.5349Y-3.8861
X10.7285Y-4.6086
X10.9213Y-3.7826
X10.9221Y-5.3312
X11.1149Y-4.5051
X11.3085Y-5.2277
T7
X1.7999Y-5.144
X1.9935Y-4.4215
X2.0673Y-5.1121
X2.1871Y-3.6989
X2.2609Y-4.3896
X2.4545Y-3.667
X2.7272Y-4.8543
X2.9831Y-4.1514
X2.9964Y-4.8458
X3.2389Y-3.4484
X3.2522Y-4.1429
X3.508Y-3.44
X3.5379Y-4.8142
X3.7937Y-4.1112
X3.807Y-4.8057
X4.0496Y-3.4083
X4.0628Y-4.1028
X4.16Y-5.292
X4.3187Y-3.3999
X4.3212Y-6.2305
X4.4158Y-4.5891
X4.4291Y-5.2835
X4.5903Y-6.222
X4.6717Y-3.8861
X4.685Y-4.5806
X4.836Y-5.6218
X4.9408Y-3.8777
X5.0918Y-4.9189
X5.1051Y-5.6133
X5.205Y-6.7649
X5.3477Y-4.216
X5.361Y-4.9104
X5.4466Y-6.8838
X5.6168Y-4.2075
X5.7723Y-7.6316
X5.9298Y-7.85
X7.1528Y-7.656
X7.1894Y-7.9227
X7.4047Y-4.3186
X7.6054Y-4.1391
X7.6285Y-6.9879
X7.6605Y-5.0215
X7.7215Y-6.7352
X7.8613Y-4.842
X7.9164Y-5.7244
X8.0807Y-3.9887
X8.1171Y-5.5449
X8.2814Y-3.8093
X8.3365Y-4.6917
X8.4312Y-6.3331
X8.5372Y-4.5122
X8.5924Y-5.3946
X8.6319Y-6.1536
X8.7028Y-3.5109
X8.7931Y-5.2151
X8.9035Y-3.3315
X8.9586Y-4.2138
X9.1594Y-4.0344
X9.2145Y-4.9168
X9.4152Y-4.7373
X9.5134Y-3.5511
X9.7142Y-3.3716
X9.7693Y-4.254
X9.97Y-4.0745
X10.0251Y-4.9569
X10.2259Y-4.7774
X10.5573Y-3.7766
X10.751Y-4.4991
X10.7729Y-3.6153
X10.9446Y-5.2217
X10.9666Y-4.3378
X11.1602Y-5.0604
T8
X1.9189Y-5.2794
X2.1126Y-4.5569
X2.3062Y-3.8343
X2.834Y-4.9996
X3.0898Y-4.2966
X3.3457Y-3.5937
X3.6446Y-4.9594
X3.9005Y-4.2565
X4.1563Y-3.5536
X4.2668Y-5.4373
X4.4279Y-6.3757
X4.5226Y-4.7343
X4.7784Y-4.0314
X4.9427Y-5.7671
X5.1986Y-5.0642
X5.2311Y-6.9433
X5.4544Y-4.3612
X5.7116Y-7.8014
X7.3227Y-7.8014
X7.5798Y-4.3612
X7.8032Y-6.9433
X7.8357Y-5.0642
X8.0915Y-5.7671
X8.2558Y-4.0314
X8.5117Y-4.7343
X8.6063Y-6.3757
X8.7675Y-5.4373
X8.878Y-3.5536
X9.1338Y-4.2565
X9.3896Y-4.9594
X9.6886Y-3.5937
X9.9444Y-4.2966
X10.2003Y-4.9996
X10.7281Y-3.8343
X10.9217Y-4.5569
X11.1153Y-5.2794
T0
M30
